SplineFontDB: 3.0
FontName: MezenetsUnicode
FullName: Mezenets Unicode
FamilyName: MezenetsUnicode
Weight: Medium
Copyright: This font is part of the Slavonic Encoding Initiative at the Ponomar Project.\nCopyright 2013-2015 Aleksandr Andreev and Nikita Simmons.\nSee http://ponomar.net/cu_support.html for more information.
UComments: "2014-4-19: Created.+AAoA-See README for more information." 
Version: 001.000
ItalicAngle: 0
UnderlinePosition: -80
UnderlineWidth: 50
Ascent: 800
Descent: 200
woffMajor: 1
woffMinor: 1
LayerCount: 3
Layer: 0 0 "Back"  1
Layer: 1 0 "Fore"  0
Layer: 2 1 "TTFLayer"  0
XUID: [1021 1004 1038049950 1172439]
FSType: 8
OS2Version: 0
OS2_WeightWidthSlopeOnly: 0
OS2_UseTypoMetrics: 1
CreationTime: 1397905996
ModificationTime: 1440579966
PfmFamily: 17
TTFWeight: 500
TTFWidth: 5
LineGap: 50
VLineGap: 0
OS2TypoAscent: -138
OS2TypoAOffset: 1
OS2TypoDescent: 197
OS2TypoDOffset: 1
OS2TypoLinegap: 50
OS2WinAscent: -20
OS2WinAOffset: 1
OS2WinDescent: -31
OS2WinDOffset: 1
HheadAscent: -144
HheadAOffset: 1
HheadDescent: 215
HheadDOffset: 1
OS2Vendor: 'PfEd'
Lookup: 263 0 0 "'kern' Horizontal Kerning with Shaidur Marks"  {"'kern' Horizontal Kerning with Shaidur Marks-1"  } ['kern' ('DFLT' <'dflt' > 'cyrl' <'dflt' > 'latn' <'dflt' > ) ]
Lookup: 260 0 0 "'mark' Black Pitch Marking Positions"  {"'mark' Black Pitch Marking Positions-1"  } ['mark' ('DFLT' <'dflt' > 'cyrl' <'dflt' > 'latn' <'dflt' > ) ]
Lookup: 260 0 0 "'mark' Cinnabar Pitch Marking Positioning"  {"'mark' Cinnabar Pitch Marking Positioning-1"  } ['mark' ('DFLT' <'dflt' > 'cyrl' <'dflt' > 'latn' <'dflt' > ) ]
Lookup: 260 0 0 "'mark' Cinnabar Indicatory Mark Positioning"  {"'mark' Cinnabar Indicatory Mark Positioning-1"  } ['mark' ('DFLT' <'dflt' > 'cyrl' <'dflt' > 'latn' <'dflt' > ) ]
Lookup: 262 0 0 "'mkmk' Double Shaidur Attachment"  {"'mkmk' Double Shaidur Attachment-1"  } ['mkmk' ('DFLT' <'dflt' > 'cyrl' <'dflt' > 'latn' <'dflt' > ) ]

StartChar: uni0002
Encoding: 2 2 0
Width: 500
Flags: W
HStem: 0 19<66 435> 748 22<66 435>
VStem: 37 22<34 733> 442 22<34 733>
DStem2: 66 748 59 733 0.465951 -0.884811<10.0105 395.419 421.078 806.952> 59 34 66 19 0.465951 0.884811<0 385.408 411.068 796.942>
LayerCount: 3
Fore
SplineSet
37 770 m 5
 464 770 l 5
 464 0 l 5
 37 0 l 5
 37 770 l 5
66 748 m 5
 250 398 l 5
 435 748 l 5
 66 748 l 5
258 383 m 5
 442 34 l 5
 442 733 l 5
 258 383 l 5
435 19 m 5
 250 369 l 5
 66 19 l 5
 435 19 l 5
59 733 m 5
 59 34 l 5
 243 383 l 5
 59 733 l 5
EndSplineSet
Validated: 1
EndChar

StartChar: uni0001
Encoding: 1 1 2
Width: 500
Flags: W
HStem: 0 19<66 435> 748 22<66 435>
VStem: 37 22<34 733> 442 22<34 733>
DStem2: 66 748 59 733 0.465951 -0.884811<10.0105 395.419 421.078 806.952> 59 34 66 19 0.465951 0.884811<0 385.408 411.068 796.942>
LayerCount: 3
Fore
SplineSet
37 770 m 1
 464 770 l 1
 464 0 l 1
 37 0 l 1
 37 770 l 1
66 748 m 1
 250 398 l 1
 435 748 l 1
 66 748 l 1
258 383 m 1
 442 34 l 1
 442 733 l 1
 258 383 l 1
435 19 m 1
 250 369 l 1
 66 19 l 1
 435 19 l 1
59 733 m 1
 59 34 l 1
 243 383 l 1
 59 733 l 1
EndSplineSet
Validated: 1
EndChar

StartChar: uni0003
Encoding: 3 3 3
Width: 500
Flags: W
HStem: 0 19<66 435> 748 22<66 435>
VStem: 37 22<34 733> 442 22<34 733>
DStem2: 66 748 59 733 0.465951 -0.884811<10.0105 395.419 421.078 806.952> 59 34 66 19 0.465951 0.884811<0 385.408 411.068 796.942>
LayerCount: 3
Fore
SplineSet
37 770 m 5
 464 770 l 5
 464 0 l 5
 37 0 l 5
 37 770 l 5
66 748 m 5
 250 398 l 5
 435 748 l 5
 66 748 l 5
258 383 m 5
 442 34 l 5
 442 733 l 5
 258 383 l 5
435 19 m 5
 250 369 l 5
 66 19 l 5
 435 19 l 5
59 733 m 5
 59 34 l 5
 243 383 l 5
 59 733 l 5
EndSplineSet
Validated: 1
EndChar

StartChar: uni0004
Encoding: 4 4 4
Width: 500
Flags: W
HStem: 0 19<66 435> 748 22<66 435>
VStem: 37 22<34 733> 442 22<34 733>
DStem2: 66 748 59 733 0.465951 -0.884811<10.0105 395.419 421.078 806.952> 59 34 66 19 0.465951 0.884811<0 385.408 411.068 796.942>
LayerCount: 3
Fore
SplineSet
37 770 m 5
 464 770 l 5
 464 0 l 5
 37 0 l 5
 37 770 l 5
66 748 m 5
 250 398 l 5
 435 748 l 5
 66 748 l 5
258 383 m 5
 442 34 l 5
 442 733 l 5
 258 383 l 5
435 19 m 5
 250 369 l 5
 66 19 l 5
 435 19 l 5
59 733 m 5
 59 34 l 5
 243 383 l 5
 59 733 l 5
EndSplineSet
Validated: 1
EndChar

StartChar: uni0005
Encoding: 5 5 5
Width: 500
Flags: W
HStem: 0 19<66 435> 748 22<66 435>
VStem: 37 22<34 733> 442 22<34 733>
DStem2: 66 748 59 733 0.465951 -0.884811<10.0105 395.419 421.078 806.952> 59 34 66 19 0.465951 0.884811<0 385.408 411.068 796.942>
LayerCount: 3
Fore
SplineSet
37 770 m 5
 464 770 l 5
 464 0 l 5
 37 0 l 5
 37 770 l 5
66 748 m 5
 250 398 l 5
 435 748 l 5
 66 748 l 5
258 383 m 5
 442 34 l 5
 442 733 l 5
 258 383 l 5
435 19 m 5
 250 369 l 5
 66 19 l 5
 435 19 l 5
59 733 m 5
 59 34 l 5
 243 383 l 5
 59 733 l 5
EndSplineSet
Validated: 1
EndChar

StartChar: uni0006
Encoding: 6 6 6
Width: 500
Flags: W
HStem: 0 19<66 435> 748 22<66 435>
VStem: 37 22<34 733> 442 22<34 733>
DStem2: 66 748 59 733 0.465951 -0.884811<10.0105 395.419 421.078 806.952> 59 34 66 19 0.465951 0.884811<0 385.408 411.068 796.942>
LayerCount: 3
Fore
SplineSet
37 770 m 5
 464 770 l 5
 464 0 l 5
 37 0 l 5
 37 770 l 5
66 748 m 5
 250 398 l 5
 435 748 l 5
 66 748 l 5
258 383 m 5
 442 34 l 5
 442 733 l 5
 258 383 l 5
435 19 m 5
 250 369 l 5
 66 19 l 5
 435 19 l 5
59 733 m 5
 59 34 l 5
 243 383 l 5
 59 733 l 5
EndSplineSet
Validated: 1
EndChar

StartChar: uni0007
Encoding: 7 7 7
Width: 500
Flags: W
HStem: 0 19<66 435> 748 22<66 435>
VStem: 37 22<34 733> 442 22<34 733>
DStem2: 66 748 59 733 0.465951 -0.884811<10.0105 395.419 421.078 806.952> 59 34 66 19 0.465951 0.884811<0 385.408 411.068 796.942>
LayerCount: 3
Fore
SplineSet
37 770 m 5
 464 770 l 5
 464 0 l 5
 37 0 l 5
 37 770 l 5
66 748 m 5
 250 398 l 5
 435 748 l 5
 66 748 l 5
258 383 m 5
 442 34 l 5
 442 733 l 5
 258 383 l 5
435 19 m 5
 250 369 l 5
 66 19 l 5
 435 19 l 5
59 733 m 5
 59 34 l 5
 243 383 l 5
 59 733 l 5
EndSplineSet
Validated: 1
EndChar

StartChar: uni000B
Encoding: 11 11 11
Width: 500
Flags: W
HStem: 0 19<66 435> 748 22<66 435>
VStem: 37 22<34 733> 442 22<34 733>
DStem2: 66 748 59 733 0.465951 -0.884811<10.0105 395.419 421.078 806.952> 59 34 66 19 0.465951 0.884811<0 385.408 411.068 796.942>
LayerCount: 3
Fore
SplineSet
37 770 m 5
 464 770 l 5
 464 0 l 5
 37 0 l 5
 37 770 l 5
66 748 m 5
 250 398 l 5
 435 748 l 5
 66 748 l 5
258 383 m 5
 442 34 l 5
 442 733 l 5
 258 383 l 5
435 19 m 5
 250 369 l 5
 66 19 l 5
 435 19 l 5
59 733 m 5
 59 34 l 5
 243 383 l 5
 59 733 l 5
EndSplineSet
Validated: 1
EndChar

StartChar: uni000C
Encoding: 12 12 12
Width: 500
Flags: W
HStem: 0 19<66 435> 748 22<66 435>
VStem: 37 22<34 733> 442 22<34 733>
DStem2: 66 748 59 733 0.465951 -0.884811<10.0105 395.419 421.078 806.952> 59 34 66 19 0.465951 0.884811<0 385.408 411.068 796.942>
LayerCount: 3
Fore
SplineSet
37 770 m 5
 464 770 l 5
 464 0 l 5
 37 0 l 5
 37 770 l 5
66 748 m 5
 250 398 l 5
 435 748 l 5
 66 748 l 5
258 383 m 5
 442 34 l 5
 442 733 l 5
 258 383 l 5
435 19 m 5
 250 369 l 5
 66 19 l 5
 435 19 l 5
59 733 m 5
 59 34 l 5
 243 383 l 5
 59 733 l 5
EndSplineSet
Validated: 1
EndChar

StartChar: uni000E
Encoding: 14 14 14
Width: 500
Flags: W
HStem: 0 19<66 435> 748 22<66 435>
VStem: 37 22<34 733> 442 22<34 733>
DStem2: 66 748 59 733 0.465951 -0.884811<10.0105 395.419 421.078 806.952> 59 34 66 19 0.465951 0.884811<0 385.408 411.068 796.942>
LayerCount: 3
Fore
SplineSet
37 770 m 5
 464 770 l 5
 464 0 l 5
 37 0 l 5
 37 770 l 5
66 748 m 5
 250 398 l 5
 435 748 l 5
 66 748 l 5
258 383 m 5
 442 34 l 5
 442 733 l 5
 258 383 l 5
435 19 m 5
 250 369 l 5
 66 19 l 5
 435 19 l 5
59 733 m 5
 59 34 l 5
 243 383 l 5
 59 733 l 5
EndSplineSet
Validated: 1
EndChar

StartChar: uni000F
Encoding: 15 15 15
Width: 500
Flags: W
HStem: 0 19<66 435> 748 22<66 435>
VStem: 37 22<34 733> 442 22<34 733>
DStem2: 66 748 59 733 0.465951 -0.884811<10.0105 395.419 421.078 806.952> 59 34 66 19 0.465951 0.884811<0 385.408 411.068 796.942>
LayerCount: 3
Fore
SplineSet
37 770 m 5
 464 770 l 5
 464 0 l 5
 37 0 l 5
 37 770 l 5
66 748 m 5
 250 398 l 5
 435 748 l 5
 66 748 l 5
258 383 m 5
 442 34 l 5
 442 733 l 5
 258 383 l 5
435 19 m 5
 250 369 l 5
 66 19 l 5
 435 19 l 5
59 733 m 5
 59 34 l 5
 243 383 l 5
 59 733 l 5
EndSplineSet
Validated: 1
EndChar

StartChar: uni0010
Encoding: 16 16 16
Width: 500
Flags: W
HStem: 0 19<66 435> 748 22<66 435>
VStem: 37 22<34 733> 442 22<34 733>
DStem2: 66 748 59 733 0.465951 -0.884811<10.0105 395.419 421.078 806.952> 59 34 66 19 0.465951 0.884811<0 385.408 411.068 796.942>
LayerCount: 3
Fore
SplineSet
37 770 m 5
 464 770 l 5
 464 0 l 5
 37 0 l 5
 37 770 l 5
66 748 m 5
 250 398 l 5
 435 748 l 5
 66 748 l 5
258 383 m 5
 442 34 l 5
 442 733 l 5
 258 383 l 5
435 19 m 5
 250 369 l 5
 66 19 l 5
 435 19 l 5
59 733 m 5
 59 34 l 5
 243 383 l 5
 59 733 l 5
EndSplineSet
Validated: 1
EndChar

StartChar: uni0011
Encoding: 17 17 17
Width: 500
Flags: W
HStem: 0 19<66 435> 748 22<66 435>
VStem: 37 22<34 733> 442 22<34 733>
DStem2: 66 748 59 733 0.465951 -0.884811<10.0105 395.419 421.078 806.952> 59 34 66 19 0.465951 0.884811<0 385.408 411.068 796.942>
LayerCount: 3
Fore
SplineSet
37 770 m 5
 464 770 l 5
 464 0 l 5
 37 0 l 5
 37 770 l 5
66 748 m 5
 250 398 l 5
 435 748 l 5
 66 748 l 5
258 383 m 5
 442 34 l 5
 442 733 l 5
 258 383 l 5
435 19 m 5
 250 369 l 5
 66 19 l 5
 435 19 l 5
59 733 m 5
 59 34 l 5
 243 383 l 5
 59 733 l 5
EndSplineSet
Validated: 1
EndChar

StartChar: uni0012
Encoding: 18 18 18
Width: 500
Flags: W
HStem: 0 19<66 435> 748 22<66 435>
VStem: 37 22<34 733> 442 22<34 733>
DStem2: 66 748 59 733 0.465951 -0.884811<10.0105 395.419 421.078 806.952> 59 34 66 19 0.465951 0.884811<0 385.408 411.068 796.942>
LayerCount: 3
Fore
SplineSet
37 770 m 5
 464 770 l 5
 464 0 l 5
 37 0 l 5
 37 770 l 5
66 748 m 5
 250 398 l 5
 435 748 l 5
 66 748 l 5
258 383 m 5
 442 34 l 5
 442 733 l 5
 258 383 l 5
435 19 m 5
 250 369 l 5
 66 19 l 5
 435 19 l 5
59 733 m 5
 59 34 l 5
 243 383 l 5
 59 733 l 5
EndSplineSet
Validated: 1
EndChar

StartChar: uni0013
Encoding: 19 19 19
Width: 500
Flags: W
HStem: 0 19<66 435> 748 22<66 435>
VStem: 37 22<34 733> 442 22<34 733>
DStem2: 66 748 59 733 0.465951 -0.884811<10.0105 395.419 421.078 806.952> 59 34 66 19 0.465951 0.884811<0 385.408 411.068 796.942>
LayerCount: 3
Fore
SplineSet
37 770 m 5
 464 770 l 5
 464 0 l 5
 37 0 l 5
 37 770 l 5
66 748 m 5
 250 398 l 5
 435 748 l 5
 66 748 l 5
258 383 m 5
 442 34 l 5
 442 733 l 5
 258 383 l 5
435 19 m 5
 250 369 l 5
 66 19 l 5
 435 19 l 5
59 733 m 5
 59 34 l 5
 243 383 l 5
 59 733 l 5
EndSplineSet
Validated: 1
EndChar

StartChar: uni0014
Encoding: 20 20 20
Width: 500
Flags: W
HStem: 0 19<66 435> 748 22<66 435>
VStem: 37 22<34 733> 442 22<34 733>
DStem2: 66 748 59 733 0.465951 -0.884811<10.0105 395.419 421.078 806.952> 59 34 66 19 0.465951 0.884811<0 385.408 411.068 796.942>
LayerCount: 3
Fore
SplineSet
37 770 m 5
 464 770 l 5
 464 0 l 5
 37 0 l 5
 37 770 l 5
66 748 m 5
 250 398 l 5
 435 748 l 5
 66 748 l 5
258 383 m 5
 442 34 l 5
 442 733 l 5
 258 383 l 5
435 19 m 5
 250 369 l 5
 66 19 l 5
 435 19 l 5
59 733 m 5
 59 34 l 5
 243 383 l 5
 59 733 l 5
EndSplineSet
Validated: 1
EndChar

StartChar: uni0015
Encoding: 21 21 21
Width: 500
Flags: W
HStem: 0 19<66 435> 748 22<66 435>
VStem: 37 22<34 733> 442 22<34 733>
DStem2: 66 748 59 733 0.465951 -0.884811<10.0105 395.419 421.078 806.952> 59 34 66 19 0.465951 0.884811<0 385.408 411.068 796.942>
LayerCount: 3
Fore
SplineSet
37 770 m 5
 464 770 l 5
 464 0 l 5
 37 0 l 5
 37 770 l 5
66 748 m 5
 250 398 l 5
 435 748 l 5
 66 748 l 5
258 383 m 5
 442 34 l 5
 442 733 l 5
 258 383 l 5
435 19 m 5
 250 369 l 5
 66 19 l 5
 435 19 l 5
59 733 m 5
 59 34 l 5
 243 383 l 5
 59 733 l 5
EndSplineSet
Validated: 1
EndChar

StartChar: uni0016
Encoding: 22 22 22
Width: 500
Flags: W
HStem: 0 19<66 435> 748 22<66 435>
VStem: 37 22<34 733> 442 22<34 733>
DStem2: 66 748 59 733 0.465951 -0.884811<10.0105 395.419 421.078 806.952> 59 34 66 19 0.465951 0.884811<0 385.408 411.068 796.942>
LayerCount: 3
Fore
SplineSet
37 770 m 5
 464 770 l 5
 464 0 l 5
 37 0 l 5
 37 770 l 5
66 748 m 5
 250 398 l 5
 435 748 l 5
 66 748 l 5
258 383 m 5
 442 34 l 5
 442 733 l 5
 258 383 l 5
435 19 m 5
 250 369 l 5
 66 19 l 5
 435 19 l 5
59 733 m 5
 59 34 l 5
 243 383 l 5
 59 733 l 5
EndSplineSet
Validated: 1
EndChar

StartChar: uni0017
Encoding: 23 23 23
Width: 500
Flags: W
HStem: 0 19<66 435> 748 22<66 435>
VStem: 37 22<34 733> 442 22<34 733>
DStem2: 66 748 59 733 0.465951 -0.884811<10.0105 395.419 421.078 806.952> 59 34 66 19 0.465951 0.884811<0 385.408 411.068 796.942>
LayerCount: 3
Fore
SplineSet
37 770 m 5
 464 770 l 5
 464 0 l 5
 37 0 l 5
 37 770 l 5
66 748 m 5
 250 398 l 5
 435 748 l 5
 66 748 l 5
258 383 m 5
 442 34 l 5
 442 733 l 5
 258 383 l 5
435 19 m 5
 250 369 l 5
 66 19 l 5
 435 19 l 5
59 733 m 5
 59 34 l 5
 243 383 l 5
 59 733 l 5
EndSplineSet
Validated: 1
EndChar

StartChar: uni0018
Encoding: 24 24 24
Width: 500
Flags: W
HStem: 0 19<66 435> 748 22<66 435>
VStem: 37 22<34 733> 442 22<34 733>
DStem2: 66 748 59 733 0.465951 -0.884811<10.0105 395.419 421.078 806.952> 59 34 66 19 0.465951 0.884811<0 385.408 411.068 796.942>
LayerCount: 3
Fore
SplineSet
37 770 m 5
 464 770 l 5
 464 0 l 5
 37 0 l 5
 37 770 l 5
66 748 m 5
 250 398 l 5
 435 748 l 5
 66 748 l 5
258 383 m 5
 442 34 l 5
 442 733 l 5
 258 383 l 5
435 19 m 5
 250 369 l 5
 66 19 l 5
 435 19 l 5
59 733 m 5
 59 34 l 5
 243 383 l 5
 59 733 l 5
EndSplineSet
Validated: 1
EndChar

StartChar: uni0019
Encoding: 25 25 25
Width: 500
Flags: W
HStem: 0 19<66 435> 748 22<66 435>
VStem: 37 22<34 733> 442 22<34 733>
DStem2: 66 748 59 733 0.465951 -0.884811<10.0105 395.419 421.078 806.952> 59 34 66 19 0.465951 0.884811<0 385.408 411.068 796.942>
LayerCount: 3
Fore
SplineSet
37 770 m 5
 464 770 l 5
 464 0 l 5
 37 0 l 5
 37 770 l 5
66 748 m 5
 250 398 l 5
 435 748 l 5
 66 748 l 5
258 383 m 5
 442 34 l 5
 442 733 l 5
 258 383 l 5
435 19 m 5
 250 369 l 5
 66 19 l 5
 435 19 l 5
59 733 m 5
 59 34 l 5
 243 383 l 5
 59 733 l 5
EndSplineSet
Validated: 1
EndChar

StartChar: uni001A
Encoding: 26 26 26
Width: 500
Flags: W
HStem: 0 19<66 435> 748 22<66 435>
VStem: 37 22<34 733> 442 22<34 733>
DStem2: 66 748 59 733 0.465951 -0.884811<10.0105 395.419 421.078 806.952> 59 34 66 19 0.465951 0.884811<0 385.408 411.068 796.942>
LayerCount: 3
Fore
SplineSet
37 770 m 5
 464 770 l 5
 464 0 l 5
 37 0 l 5
 37 770 l 5
66 748 m 5
 250 398 l 5
 435 748 l 5
 66 748 l 5
258 383 m 5
 442 34 l 5
 442 733 l 5
 258 383 l 5
435 19 m 5
 250 369 l 5
 66 19 l 5
 435 19 l 5
59 733 m 5
 59 34 l 5
 243 383 l 5
 59 733 l 5
EndSplineSet
Validated: 1
EndChar

StartChar: uni001B
Encoding: 27 27 27
Width: 500
Flags: W
HStem: 0 19<66 435> 748 22<66 435>
VStem: 37 22<34 733> 442 22<34 733>
DStem2: 66 748 59 733 0.465951 -0.884811<10.0105 395.419 421.078 806.952> 59 34 66 19 0.465951 0.884811<0 385.408 411.068 796.942>
LayerCount: 3
Fore
SplineSet
37 770 m 5
 464 770 l 5
 464 0 l 5
 37 0 l 5
 37 770 l 5
66 748 m 5
 250 398 l 5
 435 748 l 5
 66 748 l 5
258 383 m 5
 442 34 l 5
 442 733 l 5
 258 383 l 5
435 19 m 5
 250 369 l 5
 66 19 l 5
 435 19 l 5
59 733 m 5
 59 34 l 5
 243 383 l 5
 59 733 l 5
EndSplineSet
Validated: 1
EndChar

StartChar: uni001C
Encoding: 28 28 28
Width: 500
Flags: W
HStem: 0 19<66 435> 748 22<66 435>
VStem: 37 22<34 733> 442 22<34 733>
DStem2: 66 748 59 733 0.465951 -0.884811<10.0105 395.419 421.078 806.952> 59 34 66 19 0.465951 0.884811<0 385.408 411.068 796.942>
LayerCount: 3
Fore
SplineSet
37 770 m 5
 464 770 l 5
 464 0 l 5
 37 0 l 5
 37 770 l 5
66 748 m 5
 250 398 l 5
 435 748 l 5
 66 748 l 5
258 383 m 5
 442 34 l 5
 442 733 l 5
 258 383 l 5
435 19 m 5
 250 369 l 5
 66 19 l 5
 435 19 l 5
59 733 m 5
 59 34 l 5
 243 383 l 5
 59 733 l 5
EndSplineSet
Validated: 1
EndChar

StartChar: uni001E
Encoding: 30 30 30
Width: 500
Flags: W
HStem: 0 19<66 435> 748 22<66 435>
VStem: 37 22<34 733> 442 22<34 733>
DStem2: 66 748 59 733 0.465951 -0.884811<10.0105 395.419 421.078 806.952> 59 34 66 19 0.465951 0.884811<0 385.408 411.068 796.942>
LayerCount: 3
Fore
SplineSet
37 770 m 5
 464 770 l 5
 464 0 l 5
 37 0 l 5
 37 770 l 5
66 748 m 5
 250 398 l 5
 435 748 l 5
 66 748 l 5
258 383 m 5
 442 34 l 5
 442 733 l 5
 258 383 l 5
435 19 m 5
 250 369 l 5
 66 19 l 5
 435 19 l 5
59 733 m 5
 59 34 l 5
 243 383 l 5
 59 733 l 5
EndSplineSet
Validated: 1
EndChar

StartChar: uni001F
Encoding: 31 31 31
Width: 500
Flags: W
HStem: 0 19<66 435> 748 22<66 435>
VStem: 37 22<34 733> 442 22<34 733>
DStem2: 66 748 59 733 0.465951 -0.884811<10.0105 395.419 421.078 806.952> 59 34 66 19 0.465951 0.884811<0 385.408 411.068 796.942>
LayerCount: 3
Fore
SplineSet
37 770 m 5
 464 770 l 5
 464 0 l 5
 37 0 l 5
 37 770 l 5
66 748 m 5
 250 398 l 5
 435 748 l 5
 66 748 l 5
258 383 m 5
 442 34 l 5
 442 733 l 5
 258 383 l 5
435 19 m 5
 250 369 l 5
 66 19 l 5
 435 19 l 5
59 733 m 5
 59 34 l 5
 243 383 l 5
 59 733 l 5
EndSplineSet
Validated: 1
EndChar

StartChar: bracketleft
Encoding: 91 91 33
Width: 241
VWidth: 0
Flags: W
HStem: -107 37<110.144 204.903> 684 38<118.143 220.894>
VStem: 0 102<-64.8513 452.688> 12 102<155.516 683.988>
LayerCount: 3
Fore
SplineSet
205 -103 m 0xe0
 204 -104 198 -106 189 -107 c 0
 186 -107 183 -107 179 -107 c 0
 172 -107 164 -107 154 -107 c 0
 141 -107 125 -107 109 -107 c 0
 94 -107 77 -107 63 -107 c 0
 49 -107 37 -102 27 -102 c 0
 17 -102 10 -98 7 -95 c 0
 4 -92 0 -88 0 -84 c 0
 -1 -82 -1 -79 -1 -76 c 0
 -1 -70 0 -61 0 -49 c 0
 0 -32 0 -4 0 31 c 0xe0
 0 68 7 117 7 182 c 0
 7 280 12 362 12 428 c 0
 12 494 12 547 12 586 c 0
 12 627 12 656 12 674 c 0
 12 693 12 705 15 709 c 0
 16 711 23 713 32 715 c 0
 41 717 54 719 67 719 c 0
 80 721 96 721 111 721 c 0
 126 721 142 722 156 722 c 0
 170 722 183 721 193 721 c 0
 204 719 210 718 213 717 c 0
 218 714 221 708 221 701 c 0
 221 694 218 687 213 684 c 0
 211 683 205 684 197 684 c 0
 187 684 177 684 166 684 c 0
 156 684 145 684 137 684 c 0
 127 684 121 680 118 678 c 1
 116 676 115 664 115 644 c 0
 115 624 114 598 114 567 c 2
 114 468 l 1xd0
 113 368 l 1
 113 314 106 261 106 211 c 0
 106 161 102 116 102 76 c 0
 102 36 102 4 102 -22 c 0
 102 -48 107 -62 110 -65 c 0
 113 -68 120 -70 129 -70 c 0
 138 -71 149 -70 159 -70 c 0
 169 -70 178 -70 188 -70 c 0
 196 -70 203 -71 205 -73 c 0
 210 -77 212 -82 213 -90 c 0
 213 -96 210 -101 205 -103 c 0xe0
EndSplineSet
Validated: 1
EndChar

StartChar: backslash
Encoding: 92 92 34
Width: 296
Flags: W
HStem: -14 21G<221.391 296> 656 20G<0 73.6377>
VStem: 0 296
DStem2: 67 676 0 676 0.31499 -0.949095<0 705.589>
LayerCount: 3
Fore
SplineSet
0 676 m 1
 67 676 l 1
 296 -14 l 1
 228 -14 l 1
 0 676 l 1
EndSplineSet
Validated: 1
EndChar

StartChar: bracketright
Encoding: 93 93 35
Width: 284
VWidth: 0
Flags: W
HStem: -107 37<41.1421 136.856> 684 38<51.3999 154.856>
VStem: 150 98<-64.8513 643.058> 158 103<469.685 684>
LayerCount: 3
Fore
SplineSet
239 -95 m 1xe0
 236 -98 229 -102 219 -102 c 0
 209 -102 196 -107 182 -107 c 0
 168 -107 152 -107 136 -107 c 0
 120 -107 104 -107 91 -107 c 0
 82 -107 73 -107 66 -107 c 0
 62 -107 59 -107 56 -107 c 0
 47 -106 41 -104 40 -103 c 0
 35 -101 32 -96 33 -90 c 0
 34 -82 36 -77 41 -73 c 0
 44 -71 49 -70 58 -70 c 0
 67 -70 77 -70 88 -70 c 0
 98 -70 109 -71 118 -70 c 0
 127 -70 134 -68 137 -65 c 0
 140 -62 145 -48 145 -22 c 0
 145 4 150 36 150 76 c 0
 150 116 150 161 150 211 c 0
 150 261 150 314 150 368 c 0xe0
 150 400 151 432 151 468 c 0
 151 504 155 536 155 567 c 0
 155 598 158 624 158 644 c 0
 158 664 157 676 155 678 c 0
 152 680 145 684 137 684 c 0
 127 684 117 684 106 684 c 0
 96 684 86 684 78 684 c 0
 68 684 62 683 59 684 c 0
 54 687 51 694 51 701 c 0
 52 708 55 714 60 717 c 0
 63 718 71 719 82 721 c 0
 92 721 105 722 119 722 c 0
 132 722 148 721 163 721 c 0
 178 721 194 721 207 719 c 0
 220 719 233 717 242 715 c 0
 251 714 257 712 258 709 c 0
 261 705 261 693 261 674 c 0xd0
 261 656 258 627 258 586 c 0
 258 547 252 494 252 428 c 0
 252 362 248 280 248 182 c 2
 248 31 l 1
 248 -49 l 1
 248 -84 l 1
 239 -95 l 1xe0
EndSplineSet
Validated: 1
EndChar

StartChar: uni25CC
Encoding: 9676 9676 37
Width: 525
Flags: W
HStem: -11 69<228.499 293.116> 42 69<94.4993 160.204 360.499 425.204> 174 69<34.1933 99.3896 422.499 487.204> 319 69<94.7991 159.92 363.219 422.698> 376 69<228.508 293.246>
VStem: 33 67<174.596 241.864> 93 68<42.7508 109.864 319.837 385.91> 227 67<-9.86539 56.8636 376.837 443.492> 359 67<42.7508 109.97 324.788 392.864> 421 67<174.796 241.864>
AnchorPoint: "Shaidur" 1 209.4 basechar 0
LayerCount: 3
Fore
SplineSet
67 243 m 0x25
 81 243 83.5 243 93 233 c 0x23
 102.5 223 100 223 100 208 c 0
 100 193 100 193 91 183.5 c 0
 82 174 82 174 67 174 c 0
 52 174 52 174 42.5 184 c 0
 33 194 33 194 33 208 c 0
 33 222 33 222 43.5 232.5 c 0
 54 243 54 243 67 243 c 0x25
127 111 m 0x63
 142 111 142 111 151.5 101 c 0
 161 91 161 91 161 76 c 0
 161 62 161 62 151 52 c 0
 141 42 141 42 127 42 c 0
 113 42 113 42 103 52 c 0
 93 62 93 62 93 76 c 0
 93 89 93 89 103.5 100 c 0
 114 111 114 111 127 111 c 0x63
127 388 m 0x33
 141 388 141 386 151 376 c 0x2b
 161 366 161 368 161 354 c 0
 161 339 161 339 151.5 329 c 0
 142 319 142 319 127 319 c 0x33
 113 319 113 319 103 329.5 c 0
 93 340 93 340 93 354 c 0
 93 366 93 365 104 376 c 0x2b
 115 387 115 388 127 388 c 0x33
261 58 m 0xa1
 276 58 276 58 285 48 c 0
 294 38 294 38 294 23 c 0
 294 9 294 10 284.5 0 c 0
 275 -10 275 -11 261 -11 c 0
 247 -11 247 -10 237 0 c 0
 227 10 227 9 227 23 c 0
 227 36 227 36 237.5 47 c 0
 248 58 248 58 261 58 c 0xa1
261 445 m 0x29
 275 445 275 445 284.5 435 c 0
 294 425 294 425 294 411 c 0
 294 396 294 396 285 386 c 0
 276 376 276 376 261 376 c 0
 247 376 247 376 237 386.5 c 0
 227 397 227 397 227 411 c 0
 227 423 227 423 238 434 c 0
 249 445 249 445 261 445 c 0x29
392 111 m 0x6180
 407 111 407 111 416.5 101 c 0
 426 91 426 91 426 76 c 0
 426 61 426 61 416.5 51.5 c 0
 407 42 407 42 392 42 c 0
 379 42 379 42 369 52 c 0
 359 62 359 62 359 76 c 0
 359 89 359 89 369.5 100 c 0
 380 111 380 111 392 111 c 0x6180
392 394 m 0
 407 394 407 394 416.5 384 c 0
 426 374 426 374 426 359 c 0
 426 344 426 344 416.5 334 c 0
 407 324 407 324 392 324 c 0
 379 324 379 324 369 334.5 c 0
 359 345 359 345 359 359 c 0
 359 371 359 371 369.5 382.5 c 0
 380 394 380 394 392 394 c 0
455 243 m 0
 469 243 469 243 478.5 233 c 0
 488 223 488 223 488 208 c 0
 488 193 488 193 479 183.5 c 0
 470 174 470 174 455 174 c 0
 441 174 441 174 431 184 c 0
 421 194 421 194 421 208 c 0x2140
 421 221 421 221 431.5 232 c 0
 442 243 442 243 455 243 c 0
EndSplineSet
Validated: 1
Position2: "Advance neume with cinnabar mark-1" dx=200 dy=0 dh=0 dv=0
EndChar

StartChar: exclam
Encoding: 33 33 47
Width: 333
Flags: W
HStem: -9 107<140.695 225.537> 656 20G<166.5 200>
VStem: 130 107<0.953918 86.462 423.917 663.421>
LayerCount: 3
Fore
SplineSet
189 176 m 5
 176 176 l 5
 152.054 463.358 130 526.089 130 599 c 4
 130 646 150 676 183 676 c 4
 217 676 236 648 236 596 c 4
 236 526 214 462 189 176 c 5
183 98 m 4
 213 98 237 73 237 43 c 4
 237 13 214 -9 182 -9 c 4
 152 -9 130 13 130 43 c 4
 130 74 153 98 183 98 c 4
EndSplineSet
Validated: 1
EndChar

StartChar: quotedbl
Encoding: 34 34 48
Width: 343
Flags: W
HStem: 431 245<86.1143 114.395 228.114 256.395>
VStem: 58 85<489.767 670.645> 200 85<489.767 670.645>
LayerCount: 3
Fore
SplineSet
253 431 m 1
 232 431 l 1
 215 521 200 619 200 635 c 0
 200 658 219 676 243 676 c 0
 266 676 285 658 285 636 c 0
 285 618 270 520 253 431 c 1
111 431 m 1
 90 431 l 1
 73 521 58 619 58 635 c 0
 58 658 77 676 101 676 c 0
 124 676 143 658 143 636 c 0
 143 618 128 520 111 431 c 1
EndSplineSet
Validated: 1
EndChar

StartChar: numbersign
Encoding: 35 35 49
Width: 500
Flags: W
HStem: 0 21G<79 140.056 273 333.87> 216 55<5 112 179 304 371 471> 405 55<32 142 208 333 399 496> 642 20G<177.931 239 368.03 429>
VStem: 79 58<0 58> 181 58<604 662> 273 58<0 58> 371 58<604 662>
DStem2: 79 0 137 0 0.152282 0.988337<8.83233 218.506 283.068 409.87 474.279 669.812> 273 0 331 0 0.14644 0.989219<8.49354 218.211 282.43 409.42 473.492 669.214>
LayerCount: 3
Fore
SplineSet
471 271 m 1
 471 216 l 1
 362 216 l 1
 331 0 l 1
 273 0 l 1
 304 216 l 1
 170 216 l 1
 137 0 l 1
 79 0 l 1
 112 216 l 1
 5 216 l 1
 5 271 l 1
 121 271 l 1
 142 405 l 1
 32 405 l 1
 32 460 l 1
 150 460 l 1
 181 662 l 1
 239 662 l 1
 208 460 l 1
 341 460 l 1
 371 662 l 1
 429 662 l 1
 399 460 l 1
 496 460 l 1
 496 405 l 1
 391 405 l 1
 371 271 l 1
 471 271 l 1
333 405 m 1
 200 405 l 1
 179 271 l 1
 313 271 l 1
 333 405 l 1
EndSplineSet
Validated: 1
EndChar

StartChar: dollar
Encoding: 36 36 50
Width: 500
Flags: W
HStem: 0 28<156.808 230 264 307.033> 637 27<188.186 229 264 316.718>
VStem: 44 15<157.447 181> 52 74<473.95 588.358> 230 34<-87 0 28 293 407 637 662.064 727> 378 79<88.2245 218.132> 410 15<500 526.362>
LayerCount: 3
Fore
SplineSet
52 512 m 0xd8
 52 596 111 651 230 664 c 1
 230 727 l 1
 264 727 l 1
 264 664 l 1
 348 654 391 639 425 611 c 1
 425 500 l 1
 410 500 l 1xda
 393 585 348 627 264 637 c 1
 264 391 l 1
 372 328 457 294 457 170 c 0
 457 66 385 20 264 0 c 1
 264 -87 l 1
 230 -87 l 1
 230 0 l 1
 146 3 104 14 44 51 c 1
 44 181 l 1
 59 181 l 1xec
 83 76 136 29 230 28 c 1
 230 310 l 1
 103 381 52 429 52 512 c 0xd8
229 407 m 1
 229 637 l 1
 160 623 126 589 126 534 c 0
 126 488 146 463 229 407 c 1
264 293 m 1
 264 28 l 1
 342 43 378 80 378 146 c 0xcc
 378 208 357 235 264 293 c 1
EndSplineSet
Validated: 1
EndChar

StartChar: percent
Encoding: 37 37 51
Width: 833
Flags: W
HStem: -13 21G<201 260.176> 0 30<545.704 635.409> 289 34<154.321 248.289> 339 32<630.353 717.395> 583 25<378.409 512.947> 632 30<244.357 305.06> 656 20G<568 634>
VStem: 61 76<342.841 484.296> 359 25<474.893 592.444> 449 76<50.6492 193.061> 746 26<183.851 304.003>
DStem2: 201 -13 249 -13 0.487793 0.872959<23.4141 717.688 734.553 793.659>
LayerCount: 3
Fore
SplineSet
669 371 m 0x79e0
 734 371 772 332 772 264 c 0
 772 186 739 105 686 51 c 0
 651 16 614 0 569 0 c 0
 497 0 449 51 449 129 c 0
 449 254 556 371 669 371 c 0x79e0
586 30 m 0
 676 30 746 166 746 259 c 0
 746 303 714 339 676 339 c 0
 575 339 525 145 525 94 c 0
 525 56 550 30 586 30 c 0
282 662 m 0xbde0
 358 662 341 608 439 608 c 0
 501 608 541 625 595 676 c 1
 634 676 l 1x3be0
 249 -13 l 1
 201 -13 l 1
 552 613 l 1
 512 590 486 583 442 583 c 0
 413 583 395 586 377 593 c 1
 382 575 384 563 384 549 c 0
 384 435 301 289 179 289 c 0
 114 289 61 346 61 416 c 0
 61 543 168 662 282 662 c 0xbde0
282 632 m 0x3de0
 215 632 137 477 137 384 c 0
 137 348 161 323 196 323 c 0
 277 323 359 438 359 551 c 0
 359 565 356 580 350 600 c 1
 291 616 296 632 282 632 c 0x3de0
EndSplineSet
Validated: 1
EndChar

StartChar: ampersand
Encoding: 38 38 52
Width: 778
Flags: W
HStem: -13 71<566.92 675.071> -13 52<197.514 324.13> 405 21<495 540.711 665.613 711> 644 32<310.145 404.649>
VStem: 42 92<104.791 228.596> 202 79<458.044 599.8> 438 53<492.35 617.761>
LayerCount: 3
Fore
SplineSet
491 555 m 0x7e
 491 486 451 438 336 384 c 1
 380 298 412 247 468 178 c 1
 532 263 559 317 559 360 c 0
 559 390 545 400 495 405 c 1
 495 426 l 1
 711 426 l 1
 711 405 l 1
 661 399 641 387 617 346 c 0
 575.489 272.557 559.728 242.158 491 150 c 1
 537 89 589 58 645 58 c 0
 681 58 703 71 735 111 c 1
 750 100 l 1
 720 29 663 -13 599 -13 c 0xbe
 541 -13 492 13 429 78 c 1
 354 12 294 -13 213 -13 c 0
 107 -13 42 44 42 139 c 0
 42 266 148 328 237 377 c 1
 210 452 202 484 202 522 c 0
 202 608 270 676 356 676 c 0
 435 676 491 626 491 555 c 0x7e
321 416 m 1
 403 460 438 503 438 559 c 0
 438 608 404 644 358 644 c 0
 312 644 281 610 281 562 c 0
 281 517 291 479 321 416 c 1
252 343 m 1
 165 287 134 244 134 180 c 0
 134 103 193 39 263 39 c 0x7e
 305 39 345 57 404 104 c 1
 347 174 312 229 252 343 c 1
EndSplineSet
Validated: 1
EndChar

StartChar: quotesingle
Encoding: 39 39 53
Width: 200
Flags: W
HStem: 431 245<86.1143 114.395>
VStem: 58 85<489.767 670.645>
LayerCount: 3
Fore
SplineSet
111 431 m 1
 90 431 l 1
 73 521 58 619 58 635 c 0
 58 658 77 676 101 676 c 0
 124 676 143 658 143 636 c 0
 143 618 128 520 111 431 c 1
EndSplineSet
Validated: 1
EndChar

StartChar: parenleft
Encoding: 40 40 54
Width: 333
Flags: W
HStem: 656 20G<254 304>
VStem: 48 86<109.424 400.802>
LayerCount: 3
Fore
SplineSet
292 -177 m 5
 218 -132 48 11 48 252 c 4
 48 506 213 623 295 676 c 5
 304 660 l 5
 201 577 134 500 134 255 c 4
 134 0 201 -80 304 -161 c 5
 292 -177 l 5
EndSplineSet
Validated: 1
EndChar

StartChar: asterisk
Encoding: 42 42 56
Width: 500
Flags: W
HStem: 656 20G<241 261>
VStem: 214 74<269.579 383.485 556.84 672.448> 241 19<370.98 456 486 569.041>
LayerCount: 3
Fore
SplineSet
214 302 m 0xc0
 214 337 241 358 241 456 c 1
 145 397 156 351 105 351 c 0
 83 351 69 364 69 386 c 0
 69 434 136 411 234 471 c 1
 134 523 69 500.424 69 555 c 0
 69 575 84 591 103 591 c 0
 151 591 143 543 241 486 c 1
 241 585 216 604.94 216 641 c 0
 216 661 231 676 251 676 c 0
 271 676 287 660 287 639 c 0
 287 597.707 260 586.021 260 484 c 1
 346 537 352 593 395 593 c 0
 416 593 431 577 431 554 c 0
 431 507 357 522 268 470 c 1
 361 412 432 436 432 387 c 0
 432 365 418 350 397 350 c 0
 349 350 348 396 260 456 c 1xa0
 260 359.201 288 331.81 288 305 c 0
 288 284 270 265 249 265 c 0
 230 265 214 282 214 302 c 0xc0
EndSplineSet
Validated: 1
EndChar

StartChar: plus
Encoding: 43 43 57
Width: 564
Flags: W
HStem: 0 21G<249 315> 220 66<30 249 315 534>
VStem: 249 66<0 220 286 506>
LayerCount: 3
Fore
SplineSet
249 286 m 1
 249 506 l 1
 315 506 l 1
 315 286 l 1
 534 286 l 1
 534 220 l 1
 315 220 l 1
 315 0 l 1
 249 0 l 1
 249 220 l 1
 30 220 l 1
 30 286 l 1
 249 286 l 1
EndSplineSet
Validated: 1
EndChar

StartChar: comma
Encoding: 44 44 58
Width: 250
Flags: W
HStem: -2 104<67.5297 155.184>
VStem: 156 39<-55.7663 38>
LayerCount: 3
Fore
SplineSet
142 -2 m 0
 138 -2 132 -6 115 -6 c 0
 79 -6 56 13 56 45 c 0
 56 79 80 102 115 102 c 0
 160 102 195 63 195 13 c 0
 195 -47 150 -108 83 -141 c 1
 74 -122 l 1
 128 -85 156 -48 156 -16 c 0
 156 -8 150 -2 142 -2 c 0
EndSplineSet
Validated: 1
EndChar

StartChar: hyphen
Encoding: 45 45 59
Width: 333
Flags: W
HStem: 194 63<39 285>
VStem: 39 246<194 257>
LayerCount: 3
Fore
SplineSet
39 257 m 1
 285 257 l 1
 285 194 l 1
 39 194 l 1
 39 257 l 1
EndSplineSet
Validated: 1
EndChar

StartChar: period
Encoding: 46 46 60
Width: 250
Flags: W
HStem: -11 111<82.6807 167.913>
VStem: 70 111<1.59692 87.6945>
LayerCount: 3
Fore
SplineSet
125 100 m 0
 155 100 181 74 181 43 c 0
 181 14 155 -11 124 -11 c 0
 95 -11 70 14 70 43 c 0
 70 74 95 100 125 100 c 0
EndSplineSet
Validated: 1
EndChar

StartChar: slash
Encoding: 47 47 61
Width: 296
Flags: W
HStem: -14 21G<0 74.6087> 656 20G<222.362 296>
VStem: 0 296
DStem2: 0 -14 68 -14 0.31499 0.949095<21.4193 727.008>
LayerCount: 3
Fore
SplineSet
296 676 m 5
 68 -14 l 5
 0 -14 l 5
 229 676 l 5
 296 676 l 5
EndSplineSet
Validated: 1
EndChar

StartChar: uni2010
Encoding: 8208 8208 70
Width: 333
Flags: W
HStem: 194 63<39 285>
VStem: 39 246<194 257>
LayerCount: 3
Fore
SplineSet
39 257 m 1
 285 257 l 1
 285 194 l 1
 39 194 l 1
 39 257 l 1
EndSplineSet
Validated: 1
EndChar

StartChar: uni2011
Encoding: 8209 8209 71
Width: 333
Flags: W
HStem: 194 63<39 285>
VStem: 39 246<194 257>
LayerCount: 3
Fore
SplineSet
39 257 m 1
 285 257 l 1
 285 194 l 1
 39 194 l 1
 39 257 l 1
EndSplineSet
Validated: 1
EndChar

StartChar: endash
Encoding: 8211 8211 73
Width: 500
Flags: W
HStem: 194 63<0 500>
LayerCount: 3
Fore
SplineSet
0 257 m 1
 500 257 l 1
 500 194 l 1
 0 194 l 1
 0 257 l 1
EndSplineSet
Validated: 1
EndChar

StartChar: emdash
Encoding: 8212 8212 74
Width: 1000
Flags: W
HStem: 194 63<0 1000>
LayerCount: 3
Fore
SplineSet
0 257 m 1
 1000 257 l 1
 1000 194 l 1
 0 194 l 1
 0 257 l 1
EndSplineSet
Validated: 1
EndChar

StartChar: zero
Encoding: 48 48 76
Width: 500
Flags: W
HStem: -14 26<206.315 293.685> 650 26<207.662 294.79>
VStem: 24 96<178.035 489.425> 380 96<176.235 487.191>
LayerCount: 3
Fore
SplineSet
250 -14 m 0
 112 -14 24 134 24 336 c 0
 24 522 108 676 254 676 c 0
 385 676 476 535 476 330 c 0
 476 130 388 -14 250 -14 c 0
251 650 m 0
 165 650 120 539 120 327 c 0
 120 119 164 12 250 12 c 0
 336 12 380 119 380 328 c 0
 380 537 335 650 251 650 c 0
EndSplineSet
Validated: 1
EndChar

StartChar: one
Encoding: 49 49 77
Width: 500
Flags: W
HStem: 0 15<118 175.492 327.46 394> 656 20G<251.44 299>
VStem: 213 86<30.3918 592.105>
LayerCount: 3
Fore
SplineSet
183 593 m 0
 168 593 150 587 111 571 c 1
 111 585 l 1
 291 676 l 1
 299 674 l 1
 299 74 l 2
 299 26 315 16 394 15 c 1
 394 0 l 1
 118 0 l 1
 118 15 l 1
 189 17 213 28 213 93 c 2
 213 546 l 2
 213 578 204 593 183 593 c 0
EndSplineSet
Validated: 1
EndChar

StartChar: two
Encoding: 50 50 78
Width: 500
Flags: W
HStem: 0 76<128 420> 602 74<145.449 276.259>
VStem: 31 21<475.333 493.776> 338 86<399.953 539.691>
DStem2: 30 12 128 76 0.685605 0.727974<113.78 392.075>
LayerCount: 3
Fore
SplineSet
31 477 m 1
 42 524 78 676 239 676 c 0
 343 676 424 599 424 499 c 0
 424 421 385 345 296 252 c 2
 128 76 l 1
 367 76 l 2
 412 76 425 85 462 142 c 1
 475 137 l 1
 420 0 l 1
 30 0 l 1
 30 12 l 1
 208 201 l 2
 292 290 338 383 338 461 c 0
 338 545 281 602 197 602 c 0
 128 602 92 570 52 472 c 1
 31 477 l 1
EndSplineSet
Validated: 1
EndChar

StartChar: three
Encoding: 51 51 79
Width: 500
Flags: W
HStem: -14 36<121 266.542> 330 13<153 169.332> 616 60<150.683 278.881>
VStem: 319 79<466.86 574.859> 360 72<122.197 253.069>
LayerCount: 3
Fore
SplineSet
81 78 m 0xe8
 130 78 165 22 229 22 c 0
 303 22 360 87 360 171 c 0xe8
 360 308 238 330 153 330 c 1
 153 343 l 1
 228 369 319 409 319 509 c 0
 319 572 274 616 209 616 c 0
 146 616 101 583 60 510 c 1
 45 514 l 1
 72 589 120 676 242 676 c 0
 334 676 398 620 398 539 c 0xf0
 398 485 373 448 304 401 c 1
 371 372 432 328 432 219 c 0
 432 75 311 -14 156 -14 c 0
 86 -14 43 8 43 43 c 0
 43 64 58 78 81 78 c 0xe8
EndSplineSet
Validated: 1
EndChar

StartChar: four
Encoding: 52 52 80
Width: 500
Flags: W
HStem: 0 21G<293 370> 167 64<52 292 370 472> 656 20G<311.888 370>
VStem: 292 78<0 167 231 574>
DStem2: 12 231 52 231 0.576539 0.81707<23.0616 441.686>
LayerCount: 3
Fore
SplineSet
472 231 m 1
 472 167 l 1
 370 167 l 1
 370 0 l 1
 293 0 l 1
 293 167 l 1
 12 167 l 1
 12 231 l 1
 326 676 l 1
 370 676 l 1
 370 231 l 1
 472 231 l 1
292 231 m 1
 292 574 l 1
 52 231 l 1
 292 231 l 1
EndSplineSet
Validated: 1
EndChar

StartChar: five
Encoding: 53 53 81
Width: 500
Flags: W
HStem: -14 37<116.5 263.673> 583 79<181 404.906>
VStem: 357 70<129.577 283.38>
DStem2: 65 425 139 498 0.417842 0.90852<97.2423 192.016>
LayerCount: 3
Fore
SplineSet
357 194 m 0
 357 380 138 412 76 412 c 0
 68 412 64 415 64 420 c 0
 64 422 64 423 65 425 c 2
 174 662 l 1
 383 662 l 2
 404 662 414 667 429 688 c 1
 438 681 l 1
 400 592 l 2
 397 585 393 583 377 583 c 2
 181 583 l 1
 139 498 l 1
 325 465 427 398 427 242 c 0
 427 37 260 -14 154 -14 c 0
 79 -14 32 10 32 48 c 0
 32 73 46 85 75 85 c 0
 131 85 165 23 218 23 c 0
 296 23 357 98 357 194 c 0
EndSplineSet
Validated: 1
EndChar

StartChar: six
Encoding: 54 54 82
Width: 500
Flags: W
HStem: -14 28<216.005 318.198> 382 46<193.693 311.431> 668 16<413.559 446.875>
VStem: 34 93<143.868 349.301> 378 90<108.382 303.96>
LayerCount: 3
Fore
SplineSet
258 -14 m 0
 124 -14 34 103 34 279 c 0
 34 395.961 90.7127 652.834 446 684 c 1
 448 668 l 1
 291 642 179 534 152 383 c 1
 215 421 236 428 280 428 c 0
 395 428 468 347 468 219 c 0
 468 81 382 -14 258 -14 c 0
242 382 m 0
 144 382 127 333 127 263 c 0
 127 108 181 14 269 14 c 0
 339 14 378 75 378 185 c 0
 378 310 328 382 242 382 c 0
EndSplineSet
Validated: 1
EndChar

StartChar: seven
Encoding: 55 55 83
Width: 500
Flags: W
HStem: -8 21G<172 243.483> 588 74<82.7287 370>
VStem: 172 65<-8 57>
LayerCount: 3
Fore
SplineSet
449 662 m 1
 449 646 l 1
 237 -8 l 1
 172 -8 l 1
 370 588 l 1
 153 588 l 2
 98 588 80 575 37 507 c 1
 20 515 l 1
 79 662 l 1
 449 662 l 1
EndSplineSet
Validated: 1
EndChar

StartChar: eight
Encoding: 56 56 84
Width: 500
Flags: W
HStem: -14 28<201.928 315.579> 648 28<187.998 301.542>
VStem: 56 76<72.674 231.964 486.907 581.558> 355 69<458.651 605.856> 369 76<69.9236 196.01>
LayerCount: 3
Fore
SplineSet
290 371 m 1xf0
 411 281 445 232 445 155 c 0xe8
 445 52 368 -14 248 -14 c 0
 135 -14 56 54 56 151 c 0
 56 219 78 250 186 332 c 1
 81 424 62 453 62 518 c 0
 62 609 143 676 252 676 c 0
 352 676 424 616 424 534 c 0
 424 466 389 424 290 371 c 1xf0
212 312 m 1
 154 265 132 223 132 159 c 0
 132 72 183 14 259 14 c 0
 324 14 369 59 369 124 c 0
 369 208.294 309.317 240.635 212 312 c 1
261 389 m 1
 289 410 355 447 355 535 c 0xf0
 355 604 312 648 244 648 c 0
 181 648 136 607 136 549 c 0
 136 493 172 447 261 389 c 1
EndSplineSet
Validated: 1
EndChar

StartChar: nine
Encoding: 57 57 85
Width: 500
Flags: W
HStem: -22 20<57.95 91.2809> 237 43<184.464 304.28> 648 28<183.476 279.981>
VStem: 30 92<356.674 548.319> 362 97<311.018 520.293>
LayerCount: 3
Fore
SplineSet
59 -22 m 1
 56 -2 l 1
 208 24 319 131 360 294 c 1
 307 253 265 237 210 237 c 0
 102 237 30 318 30 440 c 0
 30 575 119 676 238 676 c 0
 367 676 459 559 459 394 c 0
 459 283.491 412.861 19.0732 59 -22 c 1
246 280 m 0
 274 280 362 295 362 355 c 2
 362 394 l 2
 362 562 317 648 230 648 c 0
 144 648 122 548 122 474 c 0
 122 355 170 280 246 280 c 0
EndSplineSet
Validated: 1
EndChar

StartChar: less
Encoding: 60 60 88
Width: 564
Flags: W
HStem: -10 21G<491.826 536>
VStem: 28 88<176 330>
DStem2: 28 286 116 253 0.91098 0.412451<66.5553 527.945> 116 253 28 220 0.91098 -0.412451<0 461.39>
LayerCount: 3
Fore
SplineSet
536 -10 m 1
 28 220 l 1
 28 286 l 1
 536 516 l 1
 536 444 l 1
 116 253 l 1
 536 62 l 1
 536 -10 l 1
EndSplineSet
Validated: 1
EndChar

StartChar: equal
Encoding: 61 61 89
Width: 564
Flags: W
HStem: 120 66<30 534> 320 66<30 534>
LayerCount: 3
Fore
SplineSet
534 386 m 1
 534 320 l 1
 30 320 l 1
 30 386 l 1
 534 386 l 1
534 186 m 1
 534 120 l 1
 30 120 l 1
 30 186 l 1
 534 186 l 1
EndSplineSet
Validated: 1
EndChar

StartChar: question
Encoding: 63 63 91
Width: 444
Flags: W
HStem: -8 107<195.079 279.228> 646 30<157.739 265.696>
VStem: 68 51<511 605.141> 184 107<1.95392 87.1533> 227 17<164 202.659> 322 92<435.738 597.346>
LayerCount: 3
Fore
SplineSet
230 676 m 0xec
 327 676 414 618 414 521 c 0
 414 445 365 386 309 318 c 0
 272 271 255 231 244 164 c 1
 227 164 l 1
 229.027 253.207 252.245 295.132 285 370 c 0
 309 425 322 480 322 526 c 0
 322 593 274 646 214 646 c 0
 165 646 119 616 119 584 c 0
 119 563 157 541 157 510 c 0
 157 486 140 469 116 469 c 0
 85 469 68 491 68 531 c 0
 68 614 138 676 230 676 c 0xec
237 99 m 0
 266 99 291 74 291 44 c 0
 291 14 268 -8 236 -8 c 0
 206 -8 184 14 184 43 c 0xf4
 184 75 207 99 237 99 c 0
EndSplineSet
Validated: 1
EndChar

StartChar: at
Encoding: 64 64 92
Width: 865
Flags: W
HStem: -14 39<355.587 575.12> 143 33<577.496 656.178> 144 43<354.5 447.114> 464 44<445.386 534.12> 645 31<365.117 542.811>
VStem: 86 84<208.627 446.871> 291 71<204.038 362.04> 739 40<279.675 468.672>
LayerCount: 3
Fore
SplineSet
452 645 m 0xdf
 280 645 170 497 170 323 c 0
 170 149 292 25 462 25 c 0
 529 25 580 38 658 73 c 1
 670 43 l 1
 573 -1 523 -14 453 -14 c 0
 246 -14 86 134 86 326 c 0
 86 521 248 676 451 676 c 0
 636 676 779 548 779 383 c 0
 779 254 694 143 595 143 c 0xdf
 547 143 510 172 504 216 c 1
 470 171 423 144 379 144 c 0xbf
 330 144 291 193 291 256 c 0
 291 366 369 508 487 508 c 0
 522 508 537 497 559 456 c 1
 569 494 l 1
 638 494 l 1
 573 240 l 2
 572 234 571 229 571 222 c 0
 571 191 584 176 610 176 c 0
 676 176 739 273 739 373 c 0
 739 522 609 645 452 645 c 0xdf
542 406 m 0
 542 452 517 464 498 464 c 0
 452 464 362 391 362 272 c 0
 362 220 385 187 422 187 c 0xbf
 491 187 542 325 542 406 c 0
EndSplineSet
Validated: 1
EndChar

StartChar: A
Encoding: 65 65 93
Width: 721
Flags: W
HStem: 0 19<15 52.5415 162.049 213 451 507.837 666.414 706> 216 41<216 447> 654 20G<338.527 375.768>
DStem2: 139 183 153 99 0.390068 0.920786<-110.396 53.79 98.1734 396.247> 367 674 331 532 0.401495 -0.915861<115.598 414.034 506.233 629.969>
LayerCount: 3
Fore
SplineSet
706 19 m 1
 706 0 l 1
 451 0 l 1
 451 19 l 1
 504 20 521 28 521 53 c 0
 521 67 514 93 502 120 c 2
 461 216 l 1
 199 216 l 1
 153 99 l 2
 148 86 145 72 145 60 c 0
 145 32 165 19 213 19 c 1
 213 0 l 1
 15 0 l 1
 15 19 l 1
 63 21 77 36 139 183 c 2
 347 674 l 1
 367 674 l 1
 616 106 l 2
 648.866 31.0283 661 22 706 19 c 1
216 257 m 1
 447 257 l 1
 331 532 l 1
 216 257 l 1
EndSplineSet
Validated: 1
EndChar

StartChar: B
Encoding: 66 66 94
Width: 631
Flags: W
HStem: 0 37<217.251 398.861> 0 19<15 80.0084> 326 40<213 390.03> 625 37<214.015 376.733> 643 19<15 76.5513>
VStem: 111 102<42.6316 326 366 623.875> 455 102<415.383 565.388> 476 115<99.5121 258.795>
LayerCount: 3
Fore
SplineSet
591 180 m 0x35
 591 108 543 0 349 0 c 2xb5
 15 0 l 1
 15 19 l 1
 98 22 111 35 111 109 c 2
 111 553 l 2
 111 627 99 638 15 643 c 1
 15 662 l 1x6d
 295 662 l 2
 468 662 557 604 557 492 c 0x36
 557 377 455 357 420 348 c 1
 460 338 591 310 591 180 c 0x35
276 37 m 0
 385 37 476 61 476 179 c 0
 476 320.845 346.798 326 213 326 c 1
 213 78 l 2
 213 46 227 37 276 37 c 0
213 366 m 1
 308 366 l 2
 402 366 455 410 455 488 c 0x36
 455 577 394 625 279 625 c 2
 235 625 l 2
 220 625 213 616 213 595 c 2
 213 366 l 1
EndSplineSet
Validated: 1
EndChar

StartChar: C
Encoding: 67 67 95
Width: 670
Flags: W
HStem: -14 44<296.776 492.499> 450 21G<590 627> 636 40<294.935 481.812>
VStem: 35 116<193.989 453.295> 597 21<656.986 676> 604 23<450 480.914>
LayerCount: 3
Fore
SplineSet
35 325 m 0xf4
 35 536 183 676 370 676 c 0
 479 676 519 643 555 643 c 0
 575 643 591 655 597 676 c 1
 618 676 l 1xf8
 627 450 l 1
 604 450 l 1
 576 545 518 636 389 636 c 0
 244 636 151 519 151 338 c 0
 151 94 287 30 399 30 c 0
 482 30 548 60 622 131 c 1
 640 113 l 1
 579 32 480 -14 367 -14 c 0
 171 -14 35 120 35 325 c 0xf4
EndSplineSet
Validated: 1
EndChar

StartChar: D
Encoding: 68 68 96
Width: 719
Flags: W
HStem: 0 37<208.591 391.974> 0 19<15 70.9777> 625 37<208.033 380.667> 643 19<15 70.4163>
VStem: 103 102<41.3888 621.94> 575 109<210.722 451.324>
LayerCount: 3
Fore
SplineSet
684 334 m 0x2c
 684 196 607 0 299 0 c 2xac
 15 0 l 1
 15 19 l 1
 91 24 103 37 103 109 c 2
 103 553 l 2
 103 627 94 636 15 643 c 1
 15 662 l 1x5c
 285 662 l 2
 602 662 684 479 684 334 c 0x2c
575 327 m 0
 575 461 511 625 257 625 c 0
 216 625 205 617 205 586 c 2
 205 78 l 2
 205 46 217 37 257 37 c 0
 445 37 575 110 575 327 c 0
EndSplineSet
Validated: 1
EndChar

StartChar: E
Encoding: 69 69 97
Width: 610
Flags: W
HStem: 0 37<207.53 471.625> 0 19<15 67.5256> 327 41<204 440.315> 624 38<205.018 484> 643 19<15 67.9688>
VStem: 102 102<42.2158 327 368 623.195> 468 23<231 281.016 413.792 463> 524 25<519 565.063>
LayerCount: 3
Fore
SplineSet
204 80 m 2x37
 204 42 211 37 309 37 c 2
 336 37 l 2xb7
 479 37 522 61 572 169 c 1
 600 169 l 1
 555 0 l 1
 15 0 l 1
 15 19 l 1
 88 24 102 39 102 109 c 2
 102 553 l 2
 102 623 89 637 15 643 c 1
 15 662 l 1
 546 662 l 1x6f
 549 519 l 1
 524 519 l 1
 507 609 485 624 372 624 c 2
 237 624 l 2
 210 624 204 618 204 590 c 2
 204 368 l 1
 358 368 l 2
 451 368 457 397 468 463 c 1
 491 463 l 1
 491 231 l 1
 468 231 l 1
 455 314 440 327 358 327 c 2
 204 327 l 1
 204 80 l 2x37
EndSplineSet
Validated: 1
EndChar

StartChar: F
Encoding: 70 70 98
Width: 564
Flags: W
HStem: 0 19<15 68.855 237.821 295> 327 41<204 431.338> 624 38<204.896 484> 643 19<15 67.9688>
VStem: 102 102<36.1617 327 368 623.195> 459 23<231 280.172 414.406 463> 524 25<519 565.063>
LayerCount: 3
Fore
SplineSet
482 231 m 1xee
 459 231 l 1
 447 312 430 327 349 327 c 2
 204 327 l 1
 204 119 l 2
 204 37.5 218 23 295 19 c 1
 295 0 l 1
 15 0 l 1
 15 19 l 1
 91 24 102 37 102 120 c 2
 102 553 l 2
 102 623 89 637 15 643 c 1
 15 662 l 1
 546 662 l 1xde
 549 519 l 1
 524 519 l 1
 507 609 485 624 372 624 c 2
 236 624 l 2
 209 624 204 618 204 590 c 2
 204 368 l 1
 349 368 l 2
 429 368 447 383 459 463 c 1
 482 463 l 1
 482 231 l 1xee
EndSplineSet
Validated: 1
EndChar

StartChar: G
Encoding: 71 71 99
Width: 722
Flags: W
HStem: -14 40<307.947 508.374> 336 18<457 513.467 668.563 712> 636 40<298.195 487.162>
VStem: 35 114<193.446 451.076> 545 97<54.3595 322.547> 603 22<657.871 676> 610 23<465 488.168>
LayerCount: 3
Fore
SplineSet
395 636 m 0xf2
 198 636 149 449 149 326 c 0
 149 140 249 26 412 26 c 0
 484 26 545 53 545 85 c 2
 545 247 l 2
 545 324 530 331 457 336 c 1
 457 354 l 1
 712 354 l 1
 712 336 l 1
 654 331 642 318 642 259 c 2
 642 56 l 1xf8
 602 21 477 -14 391 -14 c 0
 255 -14 35 54 35 325 c 0
 35 529 178 676 378 676 c 0
 478 676 523 643 558 643 c 0
 579 643 597 657 603 676 c 1
 625 676 l 1xf4
 633 465 l 1
 610 465 l 1
 576 547 525 636 395 636 c 0xf2
EndSplineSet
Validated: 1
EndChar

StartChar: H
Encoding: 72 72 100
Width: 714
Flags: W
HStem: 0 19<15 71.8664 239.356 293 420 476.866 644.356 698> 315 44<205 508> 643 19<15 69.53 238.47 293 420 474.53 643.47 698>
VStem: 103 102<35.1653 315 359 627.725> 508 102<35.1653 315 359 627.725>
LayerCount: 3
Fore
SplineSet
205 359 m 1
 508 359 l 1
 508 553 l 2
 508 625 497 636 420 643 c 1
 420 662 l 1
 698 662 l 1
 698 643 l 1
 621 636 610 625 610 553 c 2
 610 109 l 2
 610 38 623 25 698 19 c 1
 698 0 l 1
 420 0 l 1
 420 19 l 1
 498 24 508 36 508 120 c 2
 508 315 l 1
 205 315 l 1
 205 109 l 2
 205 38 218 25 293 19 c 1
 293 0 l 1
 15 0 l 1
 15 19 l 1
 93 24 103 36 103 120 c 2
 103 553 l 2
 103 625 92 636 15 643 c 1
 15 662 l 1
 293 662 l 1
 293 643 l 1
 216 636 205 625 205 553 c 2
 205 359 l 1
EndSplineSet
Validated: 1
EndChar

StartChar: I
Encoding: 73 73 101
Width: 327
Flags: W
HStem: 0 19<15 80.7454 248.803 312> 643 19<15 77.248 247.915 312>
VStem: 112 102<35.4136 627.204>
LayerCount: 3
Fore
SplineSet
112 109 m 2
 112 553 l 2
 112 627 100 638 15 643 c 1
 15 662 l 1
 312 662 l 1
 312 643 l 1
 228 639 214 626 214 553 c 2
 214 109 l 2
 214 36 230 22 312 19 c 1
 312 0 l 1
 15 0 l 1
 15 19 l 1
 99 22 112 34 112 109 c 2
EndSplineSet
Validated: 1
EndChar

StartChar: J
Encoding: 74 74 102
Width: 385
Flags: W
HStem: -14 38<80 166.292> 643 19<83 140.905 312.77 370>
VStem: 176 102<73.6536 627.481>
LayerCount: 3
Fore
SplineSet
59 108 m 0
 120 108 102 24 138 24 c 0
 164 24 176 45 176 90 c 2
 176 553 l 2
 176 626 165 637 83 643 c 1
 83 662 l 1
 370 662 l 1
 370 643 l 1
 289 637 278 626 278 553 c 2
 278 183 l 2
 278 58 217 -14 109 -14 c 0
 51 -14 10 16 10 58 c 0
 10 85 32 108 59 108 c 0
EndSplineSet
Validated: 1
EndChar

StartChar: K
Encoding: 75 75 103
Width: 709
Flags: W
HStem: 0 19<15 70.8801 239.629 297 399 459.139 655.467 704> 643 19<15 70.437 241.77 299 394 452.25 595.689 656>
VStem: 105 102<35.3481 296 348 626.835>
DStem2: 207 348 314 377 0.710838 0.703356<96.457 366.208> 314 377 233 317 0.681797 -0.731542<0 349.87>
LayerCount: 3
Fore
SplineSet
394 643 m 1
 394 662 l 1
 656 662 l 1
 656 643 l 1
 588 638 571 631 504 565 c 2
 314 377 l 1
 547 127 l 2
 638 30 652 20 704 19 c 1
 704 0 l 1
 399 0 l 1
 399 19 l 1
 425.808 21.2344 469 21 469 42 c 0
 469 66 415 137 339 212 c 2
 233 317 l 1
 207 296 l 1
 207 109 l 2
 207 36 219 24 297 19 c 1
 297 0 l 1
 15 0 l 1
 15 19 l 1
 94 24 105 37 105 120 c 2
 105 553 l 2
 105 624 93 637 15 643 c 1
 15 662 l 1
 299 662 l 1
 299 643 l 1
 218 637 207 626 207 553 c 2
 207 348 l 1
 384 509 l 2
 439 560 462 590 462 612 c 0
 462 632 450 640 420 642 c 0
 416 642 406 642 394 643 c 1
EndSplineSet
Validated: 1
EndChar

StartChar: L
Encoding: 76 76 104
Width: 611
Flags: W
HStem: 0 39<207.633 472.094> 0 19<15 67.5256> 643 19<15 67.9688 240.424 297>
VStem: 102 102<44.9387 626.194>
LayerCount: 3
Fore
SplineSet
357 39 m 2xb0
 532 39 556 128 576 174 c 1
 601 174 l 1
 553 0 l 1
 15 0 l 1
 15 19 l 1x70
 88 24 102 39 102 109 c 2
 102 553 l 2
 102 623 89 637 15 643 c 1
 15 662 l 1
 297 662 l 1
 297 643 l 1
 218 638 204 624 204 553 c 2
 204 80 l 2
 204 45 217 39 290 39 c 2
 357 39 l 2xb0
EndSplineSet
Validated: 1
EndChar

StartChar: M
Encoding: 77 77 105
Width: 881
Flags: W
HStem: 0 19<15 67.5662 198.313 250 586 642.112 813.474 866> 643 19<17 77.4103 813.031 866>
VStem: 112 44<43.3196 550> 677 102<35.3481 571.481>
DStem2: 215 662 156 550 0.415173 -0.909742<77.3959 555.325> 446 157 421 0 0.407912 0.913021<0 474.044>
LayerCount: 3
Fore
SplineSet
677 573 m 1
 421 0 l 1
 407 0 l 1
 156 550 l 1
 156 147 l 2
 156 46 173 23 250 19 c 1
 250 0 l 1
 15 0 l 1
 15 19 l 1
 98 25 112 44 112 147 c 2
 112 553 l 2
 112 626 99 638 17 643 c 1
 17 662 l 1
 215 662 l 1
 446 157 l 1
 667 662 l 1
 866 662 l 1
 866 643 l 1
 792 637 779 624 779 553 c 2
 779 109 l 2
 779 38 793 24 866 19 c 1
 866 0 l 1
 586 0 l 1
 586 19 l 1
 665 24 677 37 677 120 c 2
 677 573 l 1
EndSplineSet
Validated: 1
EndChar

StartChar: N
Encoding: 78 78 106
Width: 725
Flags: W
HStem: -11 21G<581.927 615> 0 19<15 67.5662 198.313 250> 643 19<15 63.3229 475 524.813 660.936 710>
VStem: 112 44<43.3196 539> 571 44<178 617.342>
DStem2: 186 662 112 588 0.630056 -0.77655<0 10.8406 76.614 618.422>
LayerCount: 3
Fore
SplineSet
710 643 m 1x78
 649 637 615 632 615 515 c 2
 615 -11 l 1
 598 -11 l 1xb8
 156 539 l 1
 156 147 l 2
 156 46 173 23 250 19 c 1
 250 0 l 1
 15 0 l 1
 15 19 l 1
 98 25 112 44 112 147 c 2
 112 588 l 1
 72 635 58 643 15 643 c 1
 15 662 l 1
 186 662 l 1
 571 178 l 1
 571 515 l 2
 571 619 552 637 475 643 c 1
 475 662 l 1
 710 662 l 1
 710 643 l 1x78
EndSplineSet
Validated: 1
EndChar

StartChar: O
Encoding: 79 79 107
Width: 724
Flags: W
HStem: -14 36<280.995 443.651> 640 36<284.688 440.102>
VStem: 35 114<204.381 462.197> 575 114<197.101 459.705>
LayerCount: 3
Fore
SplineSet
356 -14 m 0
 181 -14 35 121 35 331 c 0
 35 532 171 676 362 676 c 0
 552 676 689 536 689 327 c 0
 689 126 553 -14 356 -14 c 0
575 328 m 0
 575 577 450 640 362 640 c 0
 190 640 149 453 149 329 c 0
 149 208 191 22 360 22 c 0
 532 22 575 208 575 328 c 0
EndSplineSet
Validated: 1
EndChar

StartChar: P
Encoding: 80 80 108
Width: 576
Flags: W
HStem: 0 19<15 66.2779 234.228 295> 288 40<201 358.189> 625 37<202.321 348.788> 643 19<15 65.3973>
VStem: 99 102<34.7922 291 329.292 624.252> 432 109<392.908 557.55>
LayerCount: 3
Fore
SplineSet
541 481 m 0xec
 541 404 500 288 270 288 c 0
 244 288 227 289 201 291 c 1
 201 109 l 2
 201 36 216 22 295 19 c 1
 295 0 l 1
 15 0 l 1
 15 19 l 1
 91 26 99 36 99 120 c 2
 99 553 l 2
 99 625 89 635 15 643 c 1
 15 662 l 1xdc
 279 662 l 2
 387 662 541 626 541 481 c 0xec
201 591 m 2
 201 331 l 1
 224 329 238 328 258 328 c 0
 373 328 432 378 432 475 c 0
 432 578 370 625 235 625 c 0xec
 208 625 201 618 201 591 c 2
EndSplineSet
Validated: 1
EndChar

StartChar: Q
Encoding: 81 81 109
Width: 723
Flags: W
HStem: -178 19<636.886 702> 640 36<282.867 440.154>
VStem: 35 114<198.338 460.137> 575 114<199.468 460.837>
LayerCount: 3
Fore
SplineSet
689 331 m 0
 689 61 481 3 427 -7 c 1
 508 -112 588 -156 702 -159 c 1
 702 -177 l 1
 686.25 -178 678 -178 661 -178 c 0
 398 -178 322 -65 266 -1 c 1
 151 38 35 131 35 329 c 0
 35 532 171 676 362 676 c 0
 553 676 689 532 689 331 c 0
575 333 m 0
 575 520 491 640 365 640 c 0
 192 640 149 456 149 335 c 0
 149 87 271 22 362 22 c 0
 532 22 575 207 575 333 c 0
EndSplineSet
Validated: 1
EndChar

StartChar: R
Encoding: 82 82 110
Width: 667
Flags: W
HStem: 0 19<15 67.948 235.073 292 615.2 657> 308 35<202 258> 625 37<204.666 361.399> 643 19<15 66.0497>
VStem: 100 102<34.6779 306 343 621.625> 436 109<408.233 567.423>
DStem2: 364 319 258 308 0.611448 -0.791285<0 333.131>
LayerCount: 3
Fore
SplineSet
291 662 m 2xec
 389 662 545 636 545 486 c 0
 545 348 405 327 364 319 c 1
 570 66 l 2
 599 32 619 22 657 19 c 1
 657 0 l 1
 496 0 l 1
 258 308 l 1
 202 306 l 1
 202 109 l 2
 202 37 215 24 292 19 c 1
 292 0 l 1
 15 0 l 1
 15 19 l 1
 90 25 100 37 100 120 c 2
 100 553 l 2
 100 624 90 635 15 643 c 1
 15 662 l 1xdc
 291 662 l 2xec
202 343 m 1
 350 346 436 371 436 488 c 0
 436 582 378 625 253 625 c 0xec
 213 625 202 617 202 589 c 2
 202 343 l 1
EndSplineSet
Validated: 1
EndChar

StartChar: S
Encoding: 83 83 111
Width: 529
Flags: W
HStem: 20 2<110 255> 635 41<181.969 327.205>
VStem: 59 86<484.127 588.923> 60 22<-13 12.7146> 378 101<84.0294 202.661>
LayerCount: 3
Fore
SplineSet
378 135 m 0xd8
 378 306 59 300 59 505 c 0
 59 611 143 676 232 676 c 0
 306 676 351 642 382 642 c 0
 399 642 410 653 414 676 c 1
 435 676 l 1
 457 463 l 1
 432 463 l 1
 398 587 322 635 249 635 c 0
 187 635 145 597 145 542 c 0xe8
 145 488 187 444 292 386 c 0
 424 315 479 250 479 168 c 0
 479 65 390 -14 275 -14 c 0
 188 -14 147 20 110 20 c 0
 95 20 83 6 82 -13 c 1
 60 -13 l 1
 30 199 l 1
 53 199 l 1
 103 77 166 22 255 22 c 0
 328 22 378 68 378 135 c 0xd8
EndSplineSet
Validated: 1
EndChar

StartChar: T
Encoding: 84 84 112
Width: 606
Flags: W
HStem: 0 19<158 218.602 387.35 450> 620 42<89.8973 252 354 517.247>
VStem: 15 24<492 536.773> 252 102<34.7261 620> 567 24<492 537.107>
CounterMasks: 1 38
LayerCount: 3
Fore
SplineSet
252 620 m 1
 198 620 l 2
 86 620 63 601 39 492 c 1
 15 492 l 1
 21 662 l 1
 585 662 l 1
 591 492 l 1
 567 492 l 1
 544 602 522 620 408 620 c 2
 354 620 l 1
 354 109 l 2
 354 36 368 23 450 19 c 1
 450 0 l 1
 158 0 l 1
 158 19 l 1
 241 24 252 35 252 120 c 2
 252 620 l 1
EndSplineSet
Validated: 1
EndChar

StartChar: U
Encoding: 85 85 113
Width: 721
Flags: W
HStem: -14 44<282.28 479.899> 643 19<15 70.8801 241.445 298 474 523.895 659.133 706>
VStem: 105 102<111.184 626.742> 568 44<117.258 618.268>
LayerCount: 3
Fore
SplineSet
207 233 m 2
 207 111 241 30 379 30 c 0
 454 30 518 61 545 109 c 0
 561 139 568 177 568 245 c 2
 568 515 l 2
 568 615 552 637 474 643 c 1
 474 662 l 1
 706 662 l 1
 706 643 l 1
 624 633 612 617 612 515 c 2
 612 254 l 2
 612 111 570 -14 356 -14 c 0
 186 -14 105 68 105 241 c 2
 105 553 l 2
 105 626 94 637 15 643 c 1
 15 662 l 1
 298 662 l 1
 298 643 l 1
 218 636 207 625 207 553 c 2
 207 233 l 2
EndSplineSet
Validated: 1
EndChar

StartChar: V
Encoding: 86 86 114
Width: 701
Flags: W
HStem: -11 21G<353.038 384.914> 643 19<10 52.9824 215.001 276 486 538.532 650.599 691>
DStem2: 242 499 116 538 0.408913 -0.912574<-117.411 370.196> 393 161 377 -11 0.367959 0.929842<0 469.505>
LayerCount: 3
Fore
SplineSet
691 662 m 1
 691 643 l 1
 643 640 631 630 599 550 c 2
 377 -11 l 1
 362 -11 l 1
 116 538 l 2
 76 628 59 641 10 643 c 1
 10 662 l 1
 276 662 l 1
 276 643 l 1
 262 642 251 641 247 641 c 0
 215 639 201 629 201 610 c 0
 201 595 209 572 242 499 c 2
 393 161 l 1
 540 528 l 2
 552 558 559 585 559 601 c 0
 559 629 541 640 486 643 c 1
 486 662 l 1
 691 662 l 1
EndSplineSet
Validated: 1
EndChar

StartChar: W
Encoding: 87 87 115
Width: 947
Flags: W
HStem: -11 21G<298.812 328.281 627.435 692.5> 643 19<10 47.9786 202.468 255 318 369.547 525.098 585 739 784.553 901.136 937>
DStem2: 201 565 113 526 0.338223 -0.941066<-46.5191 402.545> 345 189 321 -11 0.3421 0.939664<0 254.018> 535 527 419 553 0.357647 -0.933857<-84.5461 22.6113 85.9347 365.655> 667 186 650 -11 0.345962 0.938249<0 436.287>
LayerCount: 3
Fore
SplineSet
937 662 m 1
 937 643 l 1
 884 633 873 624 854 572 c 0
 745 278 735 250 650 -11 c 1
 635 -11 l 1
 475 412 l 1
 321 -11 l 1
 306 -11 l 1
 113 526 l 2
 79 621 61 638 10 643 c 1
 10 662 l 1
 255 662 l 1
 255 643 l 1
 204 640 190 633 190 611 c 0
 190 600 194 583 201 565 c 2
 345 189 l 1
 452 471 l 1
 419 553 l 2
 387 634 375 642 318 643 c 1
 318 662 l 1
 585 662 l 1
 585 643 l 1
 531 642 508 632 508 608 c 0
 508 591 520 566 535 527 c 2
 667 186 l 1
 792 525 l 2
 802 553 808 579 808 600 c 0
 808 627 790 638 739 643 c 1
 739 662 l 1
 937 662 l 1
EndSplineSet
Validated: 1
EndChar

StartChar: X
Encoding: 88 88 116
Width: 714
Flags: W
HStem: 0 19<10 53.6918 185.539 243 407 463.013 659.668 704> 643 19<22 73.4465 258.197 324 458 515.187 641.75 696>
DStem2: 155 133 219 140 0.631377 0.775476<-53.1281 235.741 349.057 605.629> 333 463 203 486 0.574946 -0.818192<-170.733 72.421 146.058 424.136>
LayerCount: 3
Fore
SplineSet
696 662 m 1
 696 643 l 1
 632 639 611 628 547 549 c 2
 401 367 l 1
 593 93 l 2
 634 34 651 25 704 19 c 1
 704 0 l 1
 407 0 l 1
 407 19 l 1
 457 24 484 30 484 50 c 0
 484 65 466 99 433 148 c 2
 338 288 l 1
 219 140 l 2
 182 94 167 69 167 54 c 0
 167 31 185 23 243 19 c 1
 243 0 l 1
 10 0 l 1
 10 19 l 1
 61 23 68 26 155 133 c 2
 312 326 l 25
 203 486 l 2
 107 627 87 640 22 643 c 1
 22 662 l 1
 324 662 l 1
 324 643 l 1
 296 642 l 2
 263 641 248 633 248 613 c 0
 248 591 272 548 333 463 c 2
 375 404 l 1
 488 542 l 2
 517 578 528 596 528 611 c 0
 528 634 512 641 458 643 c 1
 458 662 l 1
 696 662 l 1
EndSplineSet
Validated: 1
EndChar

StartChar: Y
Encoding: 89 89 117
Width: 701
Flags: W
HStem: 0 19<202 270.014 436.299 508> 643 19<10 51.1585 235.711 290 472 528.854 650.247 691>
VStem: 303 102<34.7389 294>
DStem2: 236 569 172 486 0.5547 -0.83205<-45.605 265.979> 384 347 405 303 0.547848 0.836578<0 305.637>
LayerCount: 3
Fore
SplineSet
691 662 m 1
 691 643 l 1
 640 639 612 619 553 529 c 2
 405 303 l 1
 405 109 l 2
 405 33 419 21 508 19 c 1
 508 0 l 1
 202 0 l 1
 202 19 l 1
 293 23 303 33 303 120 c 2
 303 294 l 1
 172 486 l 2
 75 629 58 641 10 643 c 1
 10 662 l 1
 290 662 l 1
 290 643 l 1
 249 640 219 634.667 219 613 c 0
 219 602 225 585 236 569 c 2
 384 347 l 1
 527 573 l 2
 536 588 541 600 541 610 c 0
 541 634 524 642 472 643 c 1
 472 662 l 1
 691 662 l 1
EndSplineSet
Validated: 1
EndChar

StartChar: Z
Encoding: 90 90 118
Width: 613
Flags: W
HStem: 0 38<146 498.685> 624 38<123.111 447>
VStem: 32 26<491 543.391> 575 23<141.833 176>
DStem2: 10 15 146 38 0.583004 0.81247<97.9753 749.567>
LayerCount: 3
Fore
SplineSet
403 38 m 2
 538 38 555 110 575 176 c 1
 598 176 l 1
 574 0 l 1
 10 0 l 1
 10 15 l 1
 447 624 l 1
 226 624 l 2
 84 624 70 559 58 491 c 1
 32 491 l 1
 52 662 l 1
 578 662 l 1
 578 647 l 1
 146 38 l 1
 403 38 l 2
EndSplineSet
Validated: 1
EndChar

StartChar: asciicircum
Encoding: 94 94 119
Width: 469
Flags: W
HStem: 586 76<167 303>
DStem2: 24 297 92 297 0.444266 0.895895<30.2101 352.654> 265 662 235 586 0.444266 -0.895895<54.7601 377.204>
LayerCount: 3
Fore
SplineSet
92 297 m 1
 24 297 l 1
 205 662 l 1
 265 662 l 1
 446 297 l 1
 378 297 l 1
 235 586 l 1
 92 297 l 1
EndSplineSet
Validated: 1
EndChar

StartChar: underscore
Encoding: 95 95 120
Width: 500
VWidth: 999
Flags: W
HStem: 65 24<-38 450>
LayerCount: 3
Fore
SplineSet
12 24 m 1
 500 24 l 1
 488 0 l 1
 0 0 l 1
 12 24 l 1
EndSplineSet
EndChar

StartChar: grave
Encoding: 96 96 121
Width: 250
Flags: W
HStem: 507 171
VStem: 19 223
LayerCount: 3
Fore
SplineSet
242 507 m 1
 202 507 l 1
 48 604 l 2
 30 616 19 631 19 647 c 0
 19 666 32 678 53 678 c 0
 68 678 77 673 95 655 c 2
 242 507 l 1
EndSplineSet
Validated: 1
EndChar

StartChar: a
Encoding: 97 97 122
Width: 435
Flags: W
HStem: -10 58<99.5 205.493 319.5 400.598> 436 24<152.767 242.713>
VStem: 25 88<66.7336 165.371> 44 83<310.859 403.823> 275 81<73.7695 268 285.046 406.606>
LayerCount: 3
Fore
SplineSet
25 97 m 0xe8
 25 205 151 242 275 292 c 1
 275 353 l 2
 275 407 248 436 199 436 c 0
 159 436 127 414 127 387 c 0
 127 373 132 356 132 347 c 0
 132 325 111 305 87 305 c 0
 64 305 44 325 44 348 c 0xd8
 44 411 118 460 212 460 c 0
 328 460 356 400 356 300 c 2
 356 105 l 2
 356 61 363 47 386 47 c 0
 401 47 413 52 430 66 c 1
 430 40 l 1
 395 2 374 -10 340 -10 c 0
 299 -10 281 11 276 63 c 1
 215 11 174 -10 130 -10 c 0
 69 -10 25 34 25 97 c 0xe8
275 123 m 2
 275 268 l 1
 154 224 113 188 113 129 c 0xe8
 113 68.8018 150.8 48 176 48 c 0
 197 48 225 57 249 71 c 0
 270 83 275 92 275 123 c 2
EndSplineSet
Validated: 1
EndChar

StartChar: b
Encoding: 98 98 123
Width: 500
Flags: W
HStem: -10 32<188.04 317.464> 397 63<219.105 322.612> 623 16<10 26.6741> 663 20G<131.016 160>
VStem: 76 84<41.004 367.28 375 620.992> 387 88<136.397 315.81>
LayerCount: 3
Fore
SplineSet
160 681 m 1
 160 375 l 1
 180 424 238 460 299 460 c 0
 399 460 475 366 475 243 c 0
 475 100 373 -10 241 -10 c 0
 161 -10 76 23 76 54 c 2
 76 573 l 2
 76 615 67 624 27 624 c 0
 20 624 16 624 10 623 c 1
 10 639 l 1
 58.6621 651.105 107.032 665.49 155 683 c 1
 160 681 l 1
160 322 m 2
 160 70 l 2
 160 45 205 22 257 22 c 0
 339 22 387 86 387 197 c 0
 387 319 337 397 259 397 c 0
 207 397 160 361 160 322 c 2
EndSplineSet
Validated: 1
EndChar

StartChar: c
Encoding: 99 99 124
Width: 444
Flags: W
HStem: -10 72<184.362 297.679> 431 29<181.036 279.846>
VStem: 25 77<153.814 322.927> 303 95<324.666 383>
LayerCount: 3
Fore
SplineSet
25 213 m 0
 25 367 133 460 244 460 c 0
 328 460 398 413 398 357 c 0
 398 334 376 315 350 315 c 0
 329 315 311 333 303 361 c 2
 297 383 l 2
 287 420 274 431 238 431 c 0
 157 431 102 360 102 257 c 0
 102 142 166 62 257 62 c 0
 314 62 350 86 398 156 c 1
 412 147 l 1
 391 106 333 -10 215 -10 c 0
 104 -10 25 83 25 213 c 0
EndSplineSet
Validated: 1
EndChar

StartChar: d
Encoding: 100 100 125
Width: 499
Flags: W
HStem: -10 52<184.033 291.394> 432 28<185.197 284.996> 623 16<270 291.626> 663 20G<393 422>
VStem: 25 86<127.042 316.819> 338 84<66.838 390.874 417 621.16>
LayerCount: 3
Fore
SplineSet
342 -10 m 1
 338 -7 l 1
 338 57 l 1
 304 10 266 -10 210 -10 c 0
 100 -10 25 77 25 205 c 0
 25 347 118 460 233 460 c 0
 273 460 300 449 338 417 c 1
 338 573 l 2
 338 614 329 624 292 624 c 0
 284 624 278 624 270 623 c 1
 270 639 l 1
 334 656 369 666 417 683 c 1
 422 681 l 1
 422 114 l 2
 422 68 430 57 466 57 c 0
 469 57 471 57 489 58 c 1
 489 42 l 1
 342 -10 l 1
249 42 m 0
 306 42 338 85 338 102 c 2
 338 332 l 2
 338 385 289 432 236 432 c 0
 160 432 111 358 111 245 c 0
 111 122 166 42 249 42 c 0
EndSplineSet
Validated: 1
EndChar

StartChar: e
Encoding: 101 101 126
Width: 444
Flags: W
HStem: -10 69<180.291 303.739> 277 32<99 303> 424 36<149.903 263.03>
VStem: 25 72<158.961 277 309 329.86>
LayerCount: 3
Fore
SplineSet
97 277 m 1
 103 99 188 59 253 59 c 0
 317 59 360 88 408 164 c 1
 424 157 l 1
 382 49 307 -10 212 -10 c 0
 97 -10 25 76 25 214 c 0
 25 363 113 460 234 460 c 0
 337 460 390 398 405 277 c 1
 97 277 l 1
99 309 m 1
 303 309 l 1
 290 396 266 424 205 424 c 0
 144 424 110 387 99 309 c 1
EndSplineSet
Validated: 1
EndChar

StartChar: f
Encoding: 102 102 127
Width: 373
Flags: W
HStem: 0 15<10 59.3046 212.095 270> 418 32<11 93 177 299> 655 28<198.225 299>
VStem: 93 84<28.3135 418 450 584.057>
LayerCount: 3
Fore
SplineSet
331 580 m 0
 283 580 290 655 233 655 c 0
 195 655 176 624 176 566 c 2
 176 450 l 1
 299 450 l 1
 299 418 l 1
 177 418 l 1
 177 104 l 2
 177 29 188 18 270 15 c 1
 270 0 l 1
 10 0 l 1
 10 15 l 1
 82 19 93 31 93 104 c 2
 93 418 l 1
 11 418 l 1
 11 450 l 1
 93 450 l 1
 95 589 137 683 269 683 c 0
 329 683 373 657 373 621 c 0
 373 598 354 580 331 580 c 0
EndSplineSet
Validated: 1
EndChar

StartChar: g
Encoding: 103 103 128
Width: 467
Flags: W
HStem: -218 57<123.716 307.166> -15 79<135.581 390.416> 149 25<199.645 281.514> 388 39<374.409 457> 432 28<171.949 256.204>
VStem: 15 70<-128.683 -67.1825> 56 83<230.739 378.073> 60 60<43.5 97.9692> 316 77<224.278 368.005> 420 28<-101.821 -34.2394>
LayerCount: 3
Fore
SplineSet
60 54 m 0xf9c0
 60 80 70 89 149 163 c 1
 83 196 56 234 56 297 c 0xfac0
 56 388 130 460 223 460 c 0
 297.575 460 319.163 427 380 427 c 2
 457 427 l 1
 457 388 l 1
 374 388 l 1
 388 356 393 333 393 304 c 0
 393 208 317 149 237 149 c 0
 225.6 149 191.371 152.737 180 154 c 1
 153 146 120 111 120 91 c 0xf9c0
 120 75 145 66 198 64 c 2
 327 58 l 2
 401 55 448 13 448 -49 c 0
 448 -150.4 306.193 -218 188 -218 c 0
 93 -218 15 -174 15 -121 c 0xfcc0
 15 -84 42 -51 113 1 c 1
 72 21 60 33 60 54 c 0xf9c0
134 -2 m 1
 92 -52 85 -65 85 -88 c 0xfcc0
 85 -132 143 -161 231 -161 c 0
 344 -161 420 -122 420 -64 c 0
 420 -28 387 -15 296 -15 c 0
 247 -15 167 -9 134 -2 c 1
316 265 m 0
 316 298 301 432 213 432 c 0
 167 432 139 397 139 338 c 0xfac0
 139 210.824 200.2 174 241 174 c 0
 287 174 316 209 316 265 c 0
EndSplineSet
Validated: 1
EndChar

StartChar: h
Encoding: 104 104 129
Width: 498
Flags: W
HStem: 0 15<10 44.4688 189.229 226 276 312.771 459.013 488> 406 54<223.642 320.65> 623 16<11 27.8116> 663 20G<125 158>
VStem: 74 84<26.9707 364.21 376 622.626> 344 84<27.2344 380.953>
LayerCount: 3
Fore
SplineSet
158 343 m 1
 158 102 l 2
 158 33 168 21 226 15 c 1
 226 0 l 1
 10 0 l 1
 10 15 l 1
 68 23 74 32 74 102 c 2
 74 573 l 2
 74 616 66.667 625 28 625 c 0
 24.0625 625 14.9092 623.818 11 623 c 1
 11 639 l 1
 68 654 97 663 153 683 c 1
 158 680 l 1
 158 376 l 1
 204 436 246 460 305 460 c 0
 386 460 428 406 428 301 c 2
 428 102 l 2
 428 33 434 25 488 15 c 1
 488 0 l 1
 276 0 l 1
 276 15 l 1
 334 21 344 34 344 102 c 2
 344 300 l 2
 344 370 319 406 269 406 c 0
 230 406 200 389 158 343 c 1
EndSplineSet
Validated: 1
EndChar

StartChar: i
Encoding: 105 105 130
Width: 278
Flags: W
HStem: 0 15<16 64.8977 208.246 253> 390 15<20 44.2187> 440 20G<149.167 179> 581 102<87.3961 170.485>
VStem: 78 102<590.456 673.544> 95 84<26.9614 391.6>
LayerCount: 3
Fore
SplineSet
62 393 m 0xf4
 53 393 35.3333 392.333 20 390 c 1
 20 405 l 1
 71.6667 419.597 123.333 438.595 175 460 c 1
 179 457 l 1
 179 102 l 2
 179 30 187 20 253 15 c 1
 253 0 l 1
 16 0 l 1
 16 15 l 1
 85 19 95 30 95 102 c 2
 95 334 l 2
 95 378 86 393 62 393 c 0xf4
128 683 m 0
 157 683 180 660 180 632 c 0
 180 603 157 581 128 581 c 0
 100 581 78 604 78 632 c 0xf8
 78 660 101 683 128 683 c 0
EndSplineSet
Validated: 1
EndChar

StartChar: j
Encoding: 106 106 131
Width: 348
Flags: W
HStem: -218 34<67 162.803> 390 16<102 125.762> 440 20G<228.5 263> 581 102<171.396 254.485>
VStem: 162 102<590.456 673.544> 179 84<-122.635 391.526>
LayerCount: 3
Fore
SplineSet
147 393 m 0xf4
 123 393 102 390 102 390 c 1
 102 406 l 1
 161 424 199 437 258 460 c 1
 263 457 l 1
 263 0 l 2
 263 -142 204 -218 94 -218 c 0
 40 -218 0 -195 0 -163 c 0
 0 -141 18 -124 41 -124 c 0
 82 -124 93 -184 131 -184 c 0
 173 -184 179 -139 179 -45 c 2
 179 334 l 2
 179 377 170 393 147 393 c 0xf4
212 683 m 0
 241 683 264 660 264 632 c 0
 264 603 241 581 212 581 c 0
 184 581 162 604 162 632 c 0xf8
 162 660 185 683 212 683 c 0
EndSplineSet
Validated: 1
EndChar

StartChar: k
Encoding: 107 107 132
Width: 513
Flags: W
HStem: 0 15<10 48.0356 207.166 244 290 327.547 471.622 508> 436 14<279 322.951 433.532 483> 623 16<10 40.0744> 663 20G<137.667 169>
VStem: 85 84<27.832 251 261 621.836>
DStem2: 169 261 238 282 0.746808 0.66504<65.4956 222.978> 238 282 169 251 0.619251 -0.785194<0 254.465>
LayerCount: 3
Fore
SplineSet
10 623 m 1
 10 639 l 1
 72 654 110.333 664.667 165 683 c 1
 169 681 l 1
 169 261 l 1
 306 383 l 2
 320 395 329 409 329 417 c 0
 329 431 318 435 279 436 c 1
 279 450 l 1
 483 450 l 1
 483 435 l 1
 434.464 435 400.732 433.51 267 309 c 2
 238 282 l 1
 391 88 l 2
 433 37 464 18 508 15 c 1
 508 0 l 1
 290 0 l 1
 290 15 l 1
 317 15 330 17 330 30 c 0
 330 40 317 52 309 64 c 2
 169 251 l 1
 169 80 l 2
 169 31.5 175 26.5 244 15 c 1
 244 0 l 1
 10 0 l 1
 10 15 l 1
 82 27 85 30 85 82 c 2
 85 564 l 2
 85 612 75 625 42 625 c 0
 32 625 21.6367 624.273 10 623 c 1
EndSplineSet
Validated: 1
EndChar

StartChar: l
Encoding: 108 108 133
Width: 258
Flags: W
HStem: 0 15<12 56.0693 201.079 248> 623 16<10 40.2449> 663 20G<143 173>
VStem: 89 84<28.0774 622.078>
LayerCount: 3
Fore
SplineSet
10 623 m 1
 10 639 l 1
 79 656 117 666 169 683 c 1
 173 681 l 1
 173 84 l 2
 173 29 185 19 248 15 c 1
 248 0 l 1
 12 0 l 1
 12 15 l 1
 75 20 89 33 89 87 c 2
 89 564 l 2
 89 611 79 625 47 625 c 0
 33.7754 625 22.667 624.5 10 623 c 1
EndSplineSet
Validated: 1
EndChar

StartChar: m
Encoding: 109 109 134
Width: 779
Flags: W
HStem: 0 15<10 53.9987 187.193 232 280 321.029 460.503 504 550 588.007 743 769> 398 17<13 41.9731> 408 52<240.541 327.777 498.129 597.802>
VStem: 80 84<24.384 372.979 383 399.885> 348 84<26.085 373.205> 616 84<25.1622 390.068>
CounterMasks: 1 1c
LayerCount: 3
Fore
SplineSet
13 398 m 1xdc
 13 415 l 1xdc
 68 430 102 441 153 460 c 1
 160 458 l 1
 160 383 l 1
 243 446 271 460 315 460 c 0
 369 460 403 433 421 376 c 1
 475 434 526 460 584 460 c 0
 661 460 700 400 700 282 c 2
 700 76 l 2
 700 37 713 19 743 17 c 2
 769 15 l 1
 769 0 l 1
 550 0 l 1
 550 15 l 1
 608 22 616 30 616 87 c 2
 616 298 l 2
 616 381 598 408 541 408 c 0
 495 408 462 390 432 347 c 1
 432 95 l 2
 432 33 447 16 504 15 c 1
 504 0 l 1
 280 0 l 1
 280 15 l 1
 337 19 348 30 348 86 c 2
 348 303 l 2
 348 373 326 408 282 408 c 0xbc
 252.718 408 195.384 394.65 164 349 c 1
 164 67 l 2
 164 28 179 17 232 15 c 1
 232 0 l 1
 10 0 l 1
 10 15 l 1
 66 16 80 31 80 85 c 2
 80 338 l 2
 80 386 71 402 45 402 c 0
 34 402 26 401 13 398 c 1xdc
EndSplineSet
Validated: 1
EndChar

StartChar: n
Encoding: 110 110 135
Width: 489
Flags: W
HStem: 0 15<12 47.6045 184.683 224 271 304.941 444.488 479> 398 17<10 36.4851> 405 55<226.961 313.525>
VStem: 74 84<24.7187 366.757 379 399.648> 334 84<26.7246 383.2>
LayerCount: 3
Fore
SplineSet
10 398 m 1xd8
 10 415 l 1xd8
 65 431 99 442 148 460 c 1
 155 458 l 1
 155 379 l 1
 223 443 254 460 300 460 c 0
 374 460 418 404 418 310 c 2
 418 81 l 2
 418 32 430 20 479 15 c 1
 479 0 l 1
 271 0 l 1
 271 15 l 1
 321 19 334 36 334 99 c 2
 334 308 l 2
 334 374 310 405 261 405 c 0xb8
 228 405 206 393 158 348 c 1
 158 67 l 2
 158 31 173 19 224 15 c 1
 224 0 l 1
 12 0 l 1
 12 15 l 1
 63 19 74 33 74 90 c 2
 74 338 l 2
 74 387 65 402 37 402 c 0
 26 402 16 401 10 398 c 1xd8
EndSplineSet
Validated: 1
EndChar

StartChar: o
Encoding: 111 111 136
Width: 491
Flags: W
HStem: -10 28<208.557 307.555> 432 28<182.311 282.592>
VStem: 25 90<135.072 331.786> 376 90<127.031 328.965>
LayerCount: 3
Fore
SplineSet
246 460 m 0
 374 460 466 365 466 234 c 0
 466 96 370 -10 244 -10 c 0
 118 -10 25 91 25 226 c 0
 25 364 116 460 246 460 c 0
115 275 m 0
 115 136 170 18 256 18 c 0
 331 18 376 86 376 199 c 0
 376 336 317 432 233 432 c 0
 162 432 115 370 115 275 c 0
EndSplineSet
Validated: 1
EndChar

StartChar: p
Encoding: 112 112 137
Width: 500
Flags: W
HStem: -217 17<10 52.3792 192.888 252> -10 32<209.607 319.088> 393 16<14 38.4652> 400 60<227.787 326.589>
VStem: 80 84<-188.428 33 53.9336 369.399 381 392.004> 389 86<133.177 323.133>
LayerCount: 3
Fore
SplineSet
14 393 m 1xec
 14 409 l 1xec
 69 426 104 439 158 460 c 1
 164 458 l 1
 164 381 l 1
 208 435 252 460 308 460 c 0xdc
 405 460 475 371 475 247 c 0
 475 102 383 -10 265 -10 c 0
 223 -10 199 0 164 33 c 1
 164 -124 l 2
 164 -187 177 -198 252 -199 c 1
 252 -217 l 1
 10 -217 l 1
 10 -200 l 1
 69 -194 80 -183 80 -131 c 2
 80 337 l 2
 80 384 73 394 39 394 c 0
 30 394 23 394 14 393 c 1xec
164 334 m 2
 164 88 l 2
 164 58 221 22 268 22 c 0
 340 22 389 97 389 208 c 0
 389 324 340 400 266 400 c 0xdc
 220 400 164 364 164 334 c 2
EndSplineSet
Validated: 1
EndChar

StartChar: q
Encoding: 113 113 138
Width: 499
Flags: W
HStem: -217 14<253 285.09 462.762 489> -10 61<175.164 273.924> 433 28<193.375 304.978>
VStem: 25 86<128.702 316.729> 342 84<-184.059 64 82.3787 406.542>
LayerCount: 3
Fore
SplineSet
361 425 m 1
 415 457 l 1
 426 457 l 1
 426 -141 l 2
 426 -183 434 -191 489 -203 c 1
 489 -217 l 1
 253 -217 l 1
 253 -200 l 1
 324 -195 342 -180 342 -124 c 2
 342 64 l 1
 298 16 243 -10 185 -10 c 0
 91 -10 25 79 25 205 c 0
 25 349 121 461 246 461 c 0
 285 461 315 452 361 425 c 1
111 241 m 0
 111 167 137 51 242 51 c 0
 273 51 306 63 328 82 c 0
 338 90 342 103 342 127 c 2
 342 333 l 2
 342 400 311 433 249 433 c 0
 164 433 111 359 111 241 c 0
EndSplineSet
Validated: 1
EndChar

StartChar: r
Encoding: 114 114 139
Width: 345
Flags: W
HStem: 0 15<10 42.3636 200.154 250> 397 63<225.76 302>
VStem: 81 84<29.2608 363.261 366 392.233>
LayerCount: 3
Fore
SplineSet
301 362 m 0
 274 362 251 397 235 397 c 0
 208 397 165 347 165 315 c 2
 165 90 l 2
 165 33 182 18 250 15 c 1
 250 0 l 1
 10 0 l 1
 10 15 l 1
 74 27 81 34 81 84 c 2
 81 334 l 2
 81 378 72 394 47 394 c 0
 35 394 26 393 12 390 c 1
 12 406 l 1
 71 425 107 438 160 460 c 1
 165 458 l 1
 165 366 l 1
 214 437 243 460 285 460 c 0
 319 460 340 440 340 407 c 0
 340 379 325 362 301 362 c 0
EndSplineSet
Validated: 1
EndChar

StartChar: s
Encoding: 115 115 140
Width: 367
Flags: W
HStem: -10 22<129.07 225.983> 430 20G<281 295.588> 437 22<130.907 219.959>
VStem: 35 62<317.807 404.721> 36 16<118.812 152> 262 70<51.4369 135.87> 284 15<314 337.598>
DStem2: 140 301 152 192 0.860292 -0.509802<-59.4226 202.545>
LayerCount: 3
Fore
SplineSet
268 440 m 0xb4
 274 440 278 446 284 450 c 1
 295 450 l 1xd2
 299 314 l 1
 284 314 l 1
 261 403 231 437 174 437 c 0
 128 437 97 409 97 369 c 0xb2
 97 342 112 317 140 301 c 2
 248 237 l 2
 308 201 332 168 332 118 c 0
 332 48 268 -10 191 -10 c 0
 146 -10 97 8 72 8 c 0
 60 8 56 6 49 -4 c 1
 36 -4 l 1
 36 152 l 1
 52 152 l 1xac
 61 112 77 12 179 12 c 0
 230 12 262 40 262 84 c 0
 262 115 245 139 210 159 c 2
 152 192 l 2
 67 240 35 280 35 336 c 0
 35 408 92 459 171 459 c 0
 229 459 246 440 268 440 c 0xb4
EndSplineSet
Validated: 1
EndChar

StartChar: t
Encoding: 116 116 141
Width: 283
Flags: W
HStem: -10 52<133.5 233.354> 418 32<158 259>
VStem: 74 84<53.0804 418>
LayerCount: 3
Fore
SplineSet
259 450 m 1
 259 418 l 1
 158 418 l 1
 158 132 l 2
 158 69 173 42 210 42 c 0
 232 42 249 52 270 77 c 1
 283 66 l 1
 250 14 212 -10 163 -10 c 0
 104 -10 74 33 74 117 c 2
 74 418 l 1
 21 418 l 1
 18 420 17 422 17 425 c 0
 17 445 42 423 131 551 c 0
 138 561 144 570 151 579 c 1
 157 579 158 576 158 566 c 2
 158 450 l 1
 259 450 l 1
EndSplineSet
Validated: 1
EndChar

StartChar: u
Encoding: 117 117 142
Width: 490
Flags: W
HStem: -10 58<178.854 267.029> 36 14<457.082 480> 436 14<10 45.6494 260 295.843>
VStem: 72 84<70.25 426.561> 334 84<54.8743 76 81.0178 424.313>
LayerCount: 3
Fore
SplineSet
480 50 m 1x78
 480 36 l 1x78
 429 22 393 11 343 -9 c 1
 339 -7 l 1
 339 76 l 1
 304.283 41.2832 265.178 -10 193 -10 c 0
 120 -10 72 41 72 120 c 2
 72 372 l 2
 72 418 58 433 10 436 c 1
 10 450 l 1
 156 450 l 1
 156 124 l 2
 156 82 188 48 227 48 c 0xb8
 247.38 48 334 58.7129 334 135 c 2
 334 370 l 2
 334 420 322 430 260 433 c 1
 260 450 l 1
 418 450 l 1
 418 107 l 2
 418 61 429 50 475 50 c 2
 480 50 l 1x78
EndSplineSet
Validated: 1
EndChar

StartChar: v
Encoding: 118 118 143
Width: 468
Flags: W
HStem: -14 21G<239.5 245> 435 15<5 35.4054 166.996 201 324 354.717 437.277 463>
DStem2: 164 370 96 320 0.385756 -0.922601<-37.2146 275.533> 266 114 270 36 0.370393 0.928875<0 306.9>
LayerCount: 3
Fore
SplineSet
463 450 m 1
 463 435 l 1
 433 432 425 426 398 357 c 2
 270 36 l 2
 255 -1 248 -14 242 -14 c 0
 237 -14 230 -10 216 33 c 2
 96 320 l 2
 52.4844 424.074 43 433 5 435 c 1
 5 450 l 1
 201 450 l 1
 201 435 l 1
 166 432 155 425 155 407 c 0
 155 398 158 384 164 370 c 2
 266 114 l 1
 365 373 l 2
 369 383 371 393 371 403 c 0
 371 422 356 432 324 435 c 1
 324 450 l 1
 463 450 l 1
EndSplineSet
Validated: 1
EndChar

StartChar: w
Encoding: 119 119 144
Width: 683
Flags: W
HStem: -14 21G<216 221.5 468 474.5> 435 15<5 26.4997 153.785 185 246 274.386 413.479 449 555 581.211 663.052 678>
DStem2: 244 111 193 30 0.367167 -0.930155<-308.791 0> 244 111 244 25 0.422885 0.906183<0 186.915> 408 340 335 310 0.351123 -0.936329<-60.6506 2.45786 51.9663 239.232> 492 116 499 35 0.370465 0.928847<0 306.487>
LayerCount: 3
Fore
SplineSet
335 310 m 1
 299 419 289 430 246 435 c 1
 246 450 l 1
 449 450 l 1
 449 435 l 1
 402 428 391 421 391 399 c 0
 391 386 391 386 408 340 c 2
 492 116 l 1
 582 338 l 2
 593 365 599 389 599 404 c 0
 599 421 589 428 555 435 c 1
 555 450 l 1
 678 450 l 1
 678 435 l 1
 658 428 654 423 637 381 c 2
 499 35 l 2
 483 -5 478 -14 471 -14 c 0
 465 -14 461 -8 447 29 c 2
 356 265 l 1
 244 25 l 2
 232 -1 224 -14 219 -14 c 0
 213 -14 205 0 193 30 c 2
 58 372 l 2
 37.6064 423.663 28 433 5 435 c 1
 5 450 l 1
 185 450 l 1
 185 435 l 1
 151 431 139 423 139 402 c 0
 139 392 141 382 145 372 c 2
 244 111 l 1
 335 310 l 1
EndSplineSet
Validated: 1
EndChar

StartChar: x
Encoding: 120 120 145
Width: 482
Flags: W
HStem: 0 15<10 42.0081 119.416 155 271 305.389 440.192 472> 435 15<17 55.6465 189.38 224 268 300.378 391.318 426>
DStem2: 83 66 135 74 0.55227 0.833665<-9.59552 181.558 285.671 412.667> 227 324 197 231 0.536188 -0.844098<-99.2551 24.3886 100.23 285.37>
LayerCount: 3
Fore
SplineSet
241 304 m 1
 279 362 308 391 308 413 c 0
 308 427 298 433 268 435 c 1
 268 450 l 1
 426 450 l 1
 426 435 l 1
 394 434 364 418 345 391 c 2
 262 271 l 1
 390 75 l 2
 419.431 29.9346 441 15 472 15 c 1
 472 0 l 1
 271 0 l 1
 271 15 l 1
 304 17 311 21 311 39 c 0
 311 45 309 51 305 57 c 2
 214 197 l 1
 135 74 l 2
 122 54 115 39 115 33 c 0
 115 20 127 15 155 15 c 1
 155 0 l 1
 10 0 l 1
 10 15 l 1
 43 18 54 24 83 66 c 2
 197 231 l 1
 103 375 l 2
 64.9482 433.292 49.75 434.25 17 435 c 1
 17 450 l 1
 224 450 l 1
 224 435 l 1
 194 434 181 427 181 413 c 0
 181 400 199 366 227 324 c 2
 241 304 l 1
EndSplineSet
Validated: 1
EndChar

StartChar: y
Encoding: 121 121 146
Width: 471
Flags: W
HStem: -218 84<51.1022 158.006> 435 15<5 32.2314 165.875 211 331 368.453 443.43 466>
DStem2: 278 117 188 120 0.421487 -0.906835<-316.105 0> 278 117 264 -18 0.353133 0.935573<0 309.612>
LayerCount: 3
Fore
SplineSet
142 -134 m 0
 183 -134 232 -11 232 19 c 0
 232 34 213.628 68.7441 188 120 c 2
 56 404 l 2
 48 421 31 432 5 436 c 1
 5 450 l 1
 211 450 l 1
 211 435 l 1
 168 433 153 426 153 408 c 0
 153 397 157 384 163 370 c 2
 278 117 l 1
 375 393 l 2
 378 400 379 406 379 410 c 0
 379 426 363 435 331 435 c 1
 331 450 l 1
 466 450 l 1
 466 435 l 1
 442 432 430 422 418 390 c 2
 264 -18 l 2
 210 -162 162 -218 95 -218 c 0
 53 -218 21 -193 21 -160 c 0
 21 -136 41 -116 64 -116 c 0
 102 -116 125 -134 142 -134 c 0
EndSplineSet
Validated: 1
EndChar

StartChar: z
Encoding: 122 122 147
Width: 417
Flags: W
HStem: 0 30<117 338.127> 420 30<79.2712 276>
VStem: 36 18<332 376.547> 383 18<100.719 136.556>
DStem2: 10 15 117 30 0.553275 0.832998<71.6954 484.536>
LayerCount: 3
Fore
SplineSet
255 30 m 2
 361 30 368 63 383 139 c 1
 401 135 l 1
 387 0 l 1
 10 0 l 1
 10 15 l 1
 276 420 l 1
 138 420 l 2
 78 420 63 405 54 332 c 1
 36 332 l 1
 39 450 l 1
 386 450 l 1
 386 435 l 1
 117 30 l 1
 255 30 l 2
EndSplineSet
Validated: 1
EndChar

StartChar: braceleft
Encoding: 123 123 148
Width: 480
Flags: W
HStem: -181 11<335.277 350> 669 11<335.405 350>
VStem: 185 74<-131.641 212.517 286.333 630.647>
LayerCount: 3
Fore
SplineSet
350 -181 m 1
 243 -179 185 -160 185 -41 c 2
 185 136 l 2
 185 205 167 229 100 250 c 1
 167 270 185 293 185 363 c 2
 185 541 l 2
 185 660 244 678 350 680 c 1
 350 669 l 1
 281 651 259 621 259 546 c 2
 259 378 l 2
 259 295 240 269 165 249 c 1
 240 230 259 204 259 121 c 2
 259 -47 l 2
 259 -122 281 -152 350 -170 c 1
 350 -181 l 1
EndSplineSet
Validated: 1
EndChar

StartChar: bar
Encoding: 124 124 149
Width: 241
VWidth: 999
Flags: W
HStem: 0 21G<78 98.8571> 300 95<133.121 186>
VStem: 78 19<0 19> 135 19<563 582>
DStem2: 78 0 97 0 0.0974718 0.995238<1.85196 274.332 376.487 584.785>
AnchorPoint: "Kupnaya" 96 -108 basechar 0
LayerCount: 3
Fore
SplineSet
25 -16 m 5
 33.9248 1.76367 53.6846 2.58691 75.9922 0.515625 c 5
 90.0068 142.057 123.852 453.768 137.601 595.574 c 1
 113.552 598.107 91.2451 598.562 81 581 c 1
 96 659 l 1
 117 700.8 198 648.8 231 686 c 1
 218 611 l 1
 207.988 592.899 187.828 591.002 165.729 592.623 c 1
 151.154 451.591 117.175 139.963 104.047 -2.51562 c 5
 125.775 -4.49219 146.754 -3.93164 160 11 c 5
 147 -64 l 5
 122.372 -108.526 34.6895 -51.6768 10 -94 c 5
 25 -16 l 5
EndSplineSet
EndChar

StartChar: asciitilde
Encoding: 126 126 151
Width: 500
Flags: W
HStem: 186 66<278.573 403.867> 254 66<96.1329 221.427>
LayerCount: 3
Fore
SplineSet
142 320 m 0
 237 320 278 252 353 252 c 0
 384 252 401 264 427 303 c 1
 481 271 l 1
 435 207 404 186 358 186 c 0
 263 186 222 254 147 254 c 0
 116 254 99 242 73 203 c 1
 19 235 l 1
 65 299 96 320 142 320 c 0
EndSplineSet
Validated: 1
EndChar

StartChar: currency
Encoding: 164 164 152
Width: 500
Flags: W
HStem: 115 64<174.256 326.454> 481 64<174.743 326.891>
VStem: 35 68<251.85 408.946> 397 68<251.509 408.522>
DStem2: 28 602 -22 554 0.707107 -0.707107<0 140.868 557.717 698.621> 76 204 124 156 0.708534 0.705677<-137.038 4.29456 421.453 562.856>
LayerCount: 3
Fore
SplineSet
-22 108 m 1
 76 204 l 1
 47 246 35 283 35 330 c 0
 35 378 47 416 76 456 c 1
 -22 554 l 1
 28 602 l 1
 124 506 l 1
 169 535 202 545 251 545 c 0
 299 545 337 533 376 506 c 1
 474 602 l 1
 522 554 l 1
 426 456 l 1
 455 413 465 380 465 331 c 0
 465 283 455 249 426 204 c 1
 522 108 l 1
 474 58 l 1
 376 156 l 1
 337 128 298 115 251 115 c 0
 205 115 166 128 124 156 c 1
 28 58 l 1
 -22 108 l 1
253 481 m 0
 169 481 103 414 103 330 c 0
 103 247 169 179 251 179 c 0
 332 179 397 246 397 331 c 0
 397 413 332 481 253 481 c 0
EndSplineSet
Validated: 1
EndChar

StartChar: section
Encoding: 167 167 153
Width: 500
Flags: W
HStem: -148 21<195.959 290.694> 124 22<292.444 341.002> 383 22<152.492 208.906> 655 21<204.371 296.847>
VStem: 70 53<259.702 356.412> 104 68<-102.476 -32.5 519.101 614.309> 313 64<561.5 633.875> 330 56<-92.7632 5.54492> 374 52<171.553 268.496>
LayerCount: 3
Fore
SplineSet
279 568 m 0xfa
 279 600 313 613 313 623 c 0xfa
 313 641 285 655 251 655 c 0
 200 655 166 626 166 584 c 0
 166 559 180 530 200 513 c 2
 337 400 l 2
 395 352 426 298 426 245 c 0xf080
 426 175 378 124 310 124 c 0
 303.545 124 298.727 124.455 292 125 c 1
 367 60 386 30 386 -21 c 0
 386 -97 329 -148 242 -148 c 0
 164 -148 104 -104 104 -48 c 0
 104 -17 127 6 158 6 c 0
 185 6 206 -12 206 -36 c 0
 206 -67 172 -80 172 -92 c 0
 172 -110 206 -127 243 -127 c 0
 296 -127 330 -97 330 -50 c 0xf5
 330 68 70 111 70 286 c 0
 70 354 119 405 185 405 c 0
 191 405 200 405 210 404 c 1
 130 470 110 500 110 554 c 0
 110 626 166 676 249 676 c 0
 322 676 377 634 377 578 c 0
 377 545 358 525 326 525 c 0
 299 525 279 543 279 568 c 0xfa
374 212 m 0xf880
 374 288 234 383 191 383 c 0
 152 383 123 355 123 316 c 0
 123 248 242 146 305 146 c 0
 342 146 374 177 374 212 c 0xf880
EndSplineSet
Validated: 1
EndChar

StartChar: brokenbar
Encoding: 166 166 154
Width: 200
Flags: W
HStem: -14 21G<67 133> 656 20G<67 133>
VStem: 67 66<-14 262 400 676>
LayerCount: 3
Fore
SplineSet
67 -14 m 1
 67 262 l 1
 133 262 l 1
 133 -14 l 1
 67 -14 l 1
67 400 m 1
 67 676 l 1
 133 676 l 1
 133 400 l 1
 67 400 l 1
EndSplineSet
Validated: 1
EndChar

StartChar: logicalnot
Encoding: 172 172 155
Width: 564
Flags: W
HStem: 320 66<30 468>
VStem: 468 66<108 320>
LayerCount: 3
Fore
SplineSet
468 108 m 1
 468 320 l 1
 30 320 l 1
 30 386 l 1
 534 386 l 1
 534 108 l 1
 468 108 l 1
EndSplineSet
Validated: 1
EndChar

StartChar: macron
Encoding: 175 175 157
Width: 333
Flags: W
HStem: 547 54<11 322>
VStem: 11 311<547 601>
LayerCount: 3
Fore
SplineSet
11 601 m 1
 322 601 l 1
 322 547 l 1
 11 547 l 1
 11 601 l 1
EndSplineSet
Validated: 1
EndChar

StartChar: paragraph
Encoding: 182 182 158
Width: 483
Flags: W
HStem: -154 22<114 172.688 422.2 480> 273 22<160.359 202> 640 22<149.644 202 268 326 416.7 480>
VStem: 8 76<362.527 581.119> 202 66<-117.054 273 295 640> 326 66<-115.835 627.725>
LayerCount: 3
Fore
SplineSet
202 273 m 1
 86 277 8 324 8 477 c 0
 8 607 70 662 217 662 c 2
 480 662 l 1
 480 643 l 1
 403 636 392 625 392 553 c 2
 392 -42 l 2
 392 -113 404 -126 480 -132 c 1
 480 -154 l 1
 326 -154 l 1
 326 640 l 1
 268 640 l 1
 268 -154 l 1
 114 -154 l 1
 114 -132 l 1
 192 -127 202 -115 202 -31 c 2
 202 273 l 1
202 640 m 1
 128 634 84 611 84 481 c 0
 84 355 116 304 202 295 c 1
 202 640 l 1
EndSplineSet
Validated: 1
EndChar

StartChar: degree
Encoding: 176 176 159
Width: 400
Flags: W
HStem: 390 34<146.115 254.139> 642 34<146.705 253.073>
VStem: 57 39<470.708 595.51> 304 39<471.436 594.244>
LayerCount: 3
Fore
SplineSet
200 676 m 0
 280 676 343 613 343 532 c 0
 343 452 279 390 198 390 c 0
 120 390 57 454 57 533 c 0
 57 613 120 676 200 676 c 0
200 642 m 0
 143 642 96 592 96 533 c 0
 96 474 143 424 199 424 c 0
 257 424 304 473 304 533 c 0
 304 592 256 642 200 642 c 0
EndSplineSet
Validated: 1
EndChar

StartChar: uniEE00
Encoding: 60928 60928 160
Width: 0
VWidth: 999
GlyphClass: 4
Flags: W
HStem: 341 13<-186.857 -160 -126.074 -63>
VStem: -166 36<201.001 339.926> -64 25<311.146 325.35>
AnchorPoint: "DoubleShaidur" -113 200.4 mark 0
AnchorPoint: "DoubleShaidur" 393 443 basemark 0
AnchorPoint: "Shaidur" -1.5 349 mark 0
LayerCount: 3
Fore
SplineSet
-183 71 m 0
 -188 79 -194 90 -203 102 c 1
 -237 73 -267 40 -284 23 c 0
 -288 19 -291 21 -294 24 c 0
 -297 27 -297 30 -293 35 c 0
 -279 49 -247 84 -212 114 c 1
 -223 127 -235 139 -241 145 c 0
 -252 155 -242 156 -238 156 c 0
 -230 157 -222 158 -217 154 c 0
 -210 149 -201 140 -192 129 c 1
 -159 154 -122 177 -106 185 c 0
 -99 188 -94 192 -91 186 c 0
 -89 182 -89 179 -95 175 c 0
 -115 164 -150 143 -183 118 c 1
 -171 102 -159 81 -157 76 c 0
 -153 69 -163 69 -169 69 c 1
 -174 68 -179 64 -183 71 c 0
-125 341 m 1
 -129 318 -131 300 -133 276 c 1
 -134 248 -131 233 -130 207 c 0
 -129 201 -143 201 -149 201 c 0
 -154 201 -165 201 -166 207 c 0
 -168 228 -170 253 -168 279 c 0
 -167 301 -164 327 -160 341 c 1
 -179 341 l 2
 -185 341 -186 344 -187 348 c 0
 -187 352 -184 353 -177 354 c 1
 -110 354 l 1
 -38 354 l 2
 -30 354 -29 350 -29 346 c 0
 -30 340 -36 334 -38 326 c 0
 -40 312 -35 306 -39 303 c 0
 -43 299 -61 311 -64 321 c 0
 -65 327 -65 335 -63 341 c 1
 -93 341 l 1
 -125 341 l 1
EndSplineSet
EndChar

StartChar: uniEE01
Encoding: 60929 60929 161
Width: 0
VWidth: 999
GlyphClass: 4
Flags: W
HStem: 270.167 13.333<-153.725 -80.3682>
VStem: -187 36<201.001 270.167 283.5 342.243> -77 36<201.001 270.167 283.5 342.183>
AnchorPoint: "DoubleShaidur" -118 198.5 mark 0
AnchorPoint: "DoubleShaidur" 393 443 basemark 0
AnchorPoint: "Shaidur" -1.5 349 mark 0
LayerCount: 3
Fore
SplineSet
-199 72 m 4
 -204 80 -210 91 -219 103 c 5
 -253 74 -283 41 -300 24 c 4
 -304 20 -307 22 -310 25 c 4
 -313 28 -313 31 -309 36 c 4
 -295 50 -263 85 -228 115 c 5
 -239 128 -251 140 -257 146 c 4
 -268 156 -258 157 -254 157 c 4
 -246 158 -238 159 -233 155 c 4
 -226 150 -217 141 -208 130 c 5
 -175 155 -138 178 -122 186 c 4
 -115 189 -110 193 -107 187 c 4
 -105 183 -105 180 -111 176 c 4
 -131 165 -166 144 -199 119 c 5
 -187 103 -175 82 -173 77 c 4
 -169 70 -179 70 -185 70 c 5
 -190 69 -195 65 -199 72 c 4
-35.001 342.999 m 0
 -38.5 325.667 -42.9834 303.403 -44 278 c 0
 -45 250 -43 233 -41 207 c 0
 -41 201 -51 201 -58 201 c 0
 -66 201 -77 201 -77 207 c 0
 -78.8496 226.425 -81.5557 246.272 -80.3682 270.167 c 1
 -154.146 270.167 l 1
 -154.765 244.968 -152.882 231.47 -151 207 c 0
 -151 201 -161 201 -168 201 c 0
 -176 201 -187 201 -187 207 c 0
 -189 228 -192 253 -190 279 c 0
 -187.806 303.141 -184.717 326.149 -179.999 345 c 0
 -178.231 352.062 -168 351 -162 351 c 0
 -157 351 -143 350 -145.001 342.999 c 0
 -148.245 326.929 -152.336 306.62 -153.725 283.5 c 1
 -79.5791 283.5 l 1
 -77.4141 305.993 -74.4238 327.323 -70 345 c 0
 -68.2324 352.062 -58 351 -52 351 c 0
 -47 351 -33 350 -35.001 342.999 c 0
EndSplineSet
EndChar

StartChar: uniEE02
Encoding: 60930 60930 162
Width: 0
VWidth: 999
GlyphClass: 4
Flags: W
HStem: 203 13<-249.991 -226 -189.56 -112 -76 -64>
VStem: -226 37<216 346.835> -143 34<95.1735 133.074> -112 36<216 346.835>
AnchorPoint: "DoubleShaidur" -152 198.5 mark 0
AnchorPoint: "DoubleShaidur" 393 545 basemark 0
AnchorPoint: "Shaidur" -20 352 mark 0
LayerCount: 3
Fore
SplineSet
-183 348 m 0xe0
 -189 323 -191 308 -192 282 c 0
 -193 256 -191 239 -189 216 c 1
 -112 216 l 1
 -114 236 -116 259 -114 283 c 0
 -113 307 -109 332 -104 350 c 0
 -102 357 -94 356 -87 356 c 0
 -79 356 -68 355 -70 348 c 0
 -75 323 -77 308 -78 282 c 0
 -80 256 -77 239 -76 216 c 1xd0
 -41 216 l 2
 -34 216 -30 211 -33 208 c 0
 -44 198 -71 178 -87 152 c 0
 -99 134 -108 108 -109 100 c 0
 -109 93 -123 94 -129 95 c 0
 -134 96 -147 92 -143 102 c 0
 -141 108 -125 138 -110 158 c 1
 -94 177 -71 196 -64 203 c 1
 -243 203 l 2
 -249 203 -250 206 -250 210 c 0
 -250 214 -247 216 -241 216 c 2
 -226 216 l 1
 -227 236 -230 259 -228 283 c 0
 -226 307 -223 332 -218 350 c 0
 -216 357 -208 357 -200 357 c 1
 -193 356 -182 355 -183 348 c 0xe0
EndSplineSet
EndChar

StartChar: uniEE03
Encoding: 60931 60931 163
Width: 0
VWidth: 999
GlyphClass: 4
Flags: W
HStem: 341 13<-185.993 -160 -126.073 -63>
VStem: -166 36<201 339.926> -64 26<311.363 340.893>
AnchorPoint: "DoubleShaidur" -112.5 200.5 mark 0
AnchorPoint: "DoubleShaidur" 393 602 basemark 0
AnchorPoint: "Shaidur" -7 353.5 mark 0
LayerCount: 3
Fore
SplineSet
-125 341 m 5
 -129 318 -131 300 -132 276 c 4
 -134 248 -131 233 -130 207 c 4
 -129 201 -142 201 -148 201 c 4
 -154 201 -165 201 -166 207 c 4
 -167 228 -170 253 -168 279 c 4
 -166 301 -164 327 -160 341 c 5
 -179 341 l 6
 -185 341 -186 344 -186 348 c 4
 -186 352 -184 353 -177 354 c 5
 -110 354 l 5
 -38 354 l 6
 -30 354 -29 350 -29 346 c 4
 -30 340 -36 334 -37 326 c 4
 -40 312 -35 306 -38 303 c 5
 -43 300 -61 311 -64 321 c 4
 -65 327 -65 335 -63 341 c 5
 -93 341 l 5
 -125 341 l 5
EndSplineSet
EndChar

StartChar: uniEE04
Encoding: 60932 60932 164
Width: 0
VWidth: 999
GlyphClass: 4
Flags: W
HStem: 270.167 13.333<-143.725 -70.3682>
VStem: -177 36<201.001 270.167 283.5 342.243> -67 36<201.001 270.167 283.5 342.183>
AnchorPoint: "DoubleShaidur" -109 196.7 mark 0
AnchorPoint: "DoubleShaidur" 393 593 basemark 0
AnchorPoint: "Shaidur" -7 344.5 mark 0
LayerCount: 3
Fore
SplineSet
-25.001 342.999 m 4
 -28.5 325.667 -32.9834 303.403 -34 278 c 4
 -35 250 -33 233 -31 207 c 4
 -31 201 -41 201 -48 201 c 4
 -56 201 -67 201 -67 207 c 4
 -68.8496 226.425 -71.5557 246.272 -70.3682 270.167 c 5
 -144.146 270.167 l 5
 -144.765 244.968 -142.882 231.47 -141 207 c 4
 -141 201 -151 201 -158 201 c 4
 -166 201 -177 201 -177 207 c 4
 -179 228 -182 253 -180 279 c 4
 -177.806 303.141 -174.717 326.149 -169.999 345 c 4
 -168.231 352.062 -158 351 -152 351 c 4
 -147 351 -133 350 -135.001 342.999 c 4
 -138.245 326.929 -142.336 306.62 -143.725 283.5 c 5
 -69.5791 283.5 l 5
 -67.4141 305.993 -64.4238 327.323 -60 345 c 4
 -58.2324 352.062 -48 351 -42 351 c 4
 -37 351 -23 350 -25.001 342.999 c 4
EndSplineSet
EndChar

StartChar: uniEE05
Encoding: 60933 60933 165
Width: 0
VWidth: 999
GlyphClass: 4
Flags: W
HStem: 256 57<-102.122 -50.1074>
VStem: -103 54<256.79 312.155>
AnchorPoint: "DoubleShaidur" -77.5 254.2 mark 0
AnchorPoint: "DoubleShaidur" 393 593 basemark 0
AnchorPoint: "Shaidur" -27 288.5 mark 0
LayerCount: 3
Fore
SplineSet
-77 256 m 4
 -93.1924 256 -103 269.859 -103 285 c 4
 -103 301.164 -90.5889 313 -74 313 c 4
 -60 313 -49 301 -49 286 c 4
 -49 269.857 -61.0586 256 -77 256 c 4
EndSplineSet
EndChar

StartChar: uniEE06
Encoding: 60934 60934 166
Width: 0
VWidth: 999
GlyphClass: 4
Flags: W
HStem: 197 152
VStem: -91 38<220.693 317> -67 36<197.007 272.404>
AnchorPoint: "DoubleShaidur" -181 198 mark 0
AnchorPoint: "DoubleShaidur" 393 567 basemark 0
AnchorPoint: "Shaidur" -7 318.5 mark 0
LayerCount: 3
Fore
SplineSet
-53 341 m 4xc0
 -54 329 -52 300 -48 275 c 4
 -44 247 -39 229 -31 204 c 4
 -30 198 -42 197 -50 197 c 4
 -58 197 -66 198 -67 204 c 4xa0
 -73 224 -77 235 -81 256 c 5
 -87 281 -90 297 -91 317 c 5
 -102 307 -118 284 -134 261 c 4
 -149 240 -167 210 -171 205 c 5
 -173 200 -186 198 -187 204 c 4
 -193 224 -197 235 -201 256 c 5
 -207 281 -211 302 -212 321 c 5
 -224 309 -240 285 -254 266 c 4
 -259 260 -287 210 -291 205 c 5
 -293 199 -305 198 -306 205 c 4
 -309 218 -266 281 -258 292 c 4
 -240 316 -219 337 -206 345 c 4
 -202 348 -194 349 -189 349 c 4
 -183 349 -172 348 -173 341 c 4
 -174 329 -174 314 -170 288 c 4
 -169 277 -165 262 -162 254 c 5
 -151 273 -142 287 -138 292 c 4
 -120 316 -99 337 -86 345 c 4
 -82 348 -74 349 -69 349 c 4
 -63 349 -52 348 -53 341 c 4xc0
EndSplineSet
EndChar

StartChar: uniEE07
Encoding: 60935 60935 167
Width: 0
VWidth: 999
GlyphClass: 4
Flags: W
HStem: 341 13<-208.901 -84 -50.3288 -21.0469>
VStem: -200 36<201.001 339.928> -90 36<201.001 339.928>
AnchorPoint: "DoubleShaidur" -125.5 199.9 mark 0
AnchorPoint: "DoubleShaidur" 393 576 basemark 0
AnchorPoint: "Shaidur" -7.5 345.5 mark 0
LayerCount: 3
Fore
SplineSet
-49 341 m 5
 -54 318 -56 303 -57 278 c 4
 -58 250 -56 233 -54 207 c 4
 -54 201 -64 201 -71 201 c 4
 -79 201 -90 201 -90 207 c 4
 -92 228 -95 253 -93 279 c 4
 -91 301 -89 324 -84 341 c 5
 -159 341 l 5
 -164 318 -166 303 -167 278 c 4
 -168 250 -166 233 -164 207 c 4
 -164 201 -174 201 -181 201 c 4
 -189 201 -200 201 -200 207 c 4
 -202 228 -205 253 -203 279 c 4
 -201 301 -199 324 -194 341 c 5
 -213 341 l 6
 -219 341 -221 344 -220 348 c 4
 -220 352 -218 354 -211 354 c 4
 -167 355 -73 354 -30 354 c 4
 -22 354 -21 351 -21 346 c 5
 -22 342 -23 341 -30 341 c 6
 -49 341 l 5
EndSplineSet
EndChar

StartChar: uniEE08
Encoding: 60936 60936 168
Width: 0
VWidth: 999
GlyphClass: 4
Flags: W
HStem: 203 13<-227.991 -199 -162.56 -89 -52.56 -29.076> 344 13<-202.947 -82 -48.3288 -15.0469>
VStem: -199 37<216 342.928> -91 36<217.073 342.928>
AnchorPoint: "DoubleShaidur" -124 201 mark 0
AnchorPoint: "DoubleShaidur" 393 537 basemark 0
AnchorPoint: "Shaidur" 0 349.5 mark 0
LayerCount: 3
Fore
SplineSet
-162 216 m 5
 -89 216 l 5
 -90 235 -93 259 -91 282 c 4
 -89 304 -87 327 -82 344 c 5
 -157 344 l 5
 -162 321 -164 306 -165 281 c 4
 -166 256 -164 239 -162 216 c 5
-29 208 m 4
 -29 204 -30 203 -38 203 c 6
 -221 203 l 6
 -227 203 -228 206 -228 210 c 4
 -228 214 -225 215 -219 215 c 4
 -213 216 -206 216 -199 216 c 5
 -200 236 -203 259 -201 282 c 4
 -199 304 -197 327 -192 344 c 5
 -207 344 l 6
 -213 344 -215 347 -214 351 c 4
 -214 355 -212 357 -205 357 c 4
 -162 358 -67 357 -24 357 c 4
 -16 357 -15 354 -15 349 c 5
 -16 345 -17 344 -24 344 c 6
 -47 344 l 5
 -52 321 -54 306 -55 281 c 4
 -56 255 -54 239 -52 216 c 5
 -37 215 l 6
 -30 215 -29 212 -29 208 c 4
EndSplineSet
EndChar

StartChar: uniEE09
Encoding: 60937 60937 169
Width: 0
VWidth: 999
GlyphClass: 4
Flags: W
HStem: 374 44<-159.76 -121.24>
VStem: -160 39<374.242 417.758> -93 38<220.693 317> -69 36<197.007 272.404>
AnchorPoint: "DoubleShaidur" -182 195 mark 0
AnchorPoint: "DoubleShaidur" 393 575 basemark 0
AnchorPoint: "Shaidur" -3 342.5 mark 0
LayerCount: 3
Fore
SplineSet
-160 405 m 4xc0
 -155 416 -142 423 -131 418 c 4
 -121 413 -116 398 -121 387 c 4
 -126 376 -139 369 -150 374 c 4
 -160 379 -165 394 -160 405 c 4xc0
-55 341 m 4xe0
 -56 329 -54 300 -50 275 c 4
 -46 247 -41 229 -33 204 c 4
 -32 198 -44 197 -52 197 c 4
 -60 197 -68 198 -69 204 c 4xd0
 -75 224 -79 235 -83 256 c 5
 -89 281 -92 297 -93 317 c 5
 -104 307 -120 284 -136 261 c 4
 -151 240 -169 210 -173 205 c 5
 -175 200 -188 198 -189 204 c 4
 -195 224 -199 235 -203 256 c 5
 -209 281 -213 302 -214 321 c 5
 -226 309 -242 285 -256 266 c 4
 -261 260 -289 210 -293 205 c 5
 -295 199 -307 198 -308 205 c 4
 -311 218 -268 281 -260 292 c 4
 -242 316 -221 337 -208 345 c 4
 -204 348 -196 349 -191 349 c 4
 -185 349 -174 348 -175 341 c 4
 -176 329 -176 314 -172 288 c 4
 -171 277 -167 262 -164 254 c 5
 -153 273 -144 287 -140 292 c 4
 -122 316 -101 337 -88 345 c 4
 -84 348 -76 349 -71 349 c 4
 -65 349 -54 348 -55 341 c 4xe0
EndSplineSet
EndChar

StartChar: uniEE0A
Encoding: 60938 60938 170
Width: 0
VWidth: 999
GlyphClass: 4
Flags: W
HStem: 341 13<-228.98 -203 -169.073 -40.0987> 389 44<-145.76 -107.24>
VStem: -209 36<201.005 339.928> -146 39<389.242 432.758> -99 36<201.005 339.928>
AnchorPoint: "DoubleShaidur" -138 197 mark 0
AnchorPoint: "DoubleShaidur" 393 578 basemark 0
AnchorPoint: "Shaidur" -7 347.5 mark 0
LayerCount: 3
Fore
SplineSet
-58 341 m 5
 -62 318 -64 303 -65 278 c 4
 -67 250 -64 233 -63 207 c 4
 -62 201 -72 201 -79 201 c 4
 -87 201 -98 201 -99 207 c 4
 -100 228 -103 253 -101 279 c 4
 -100 301 -97 324 -93 341 c 5
 -168 341 l 5
 -172 318 -174 303 -175 278 c 4
 -177 250 -174 233 -173 207 c 4
 -172 201 -182 201 -189 201 c 4
 -197 201 -208 201 -209 207 c 4
 -210 228 -213 253 -211 279 c 4
 -210 301 -207 324 -203 341 c 5
 -221 341 l 6
 -227 341 -229 344 -229 348 c 4
 -229 352 -226 354 -220 354 c 4
 -176 355 -82 354 -38 354 c 4
 -31 354 -29 351 -30 346 c 4
 -30 342 -31 341 -39 341 c 6
 -58 341 l 5
-146 420 m 4
 -141 431 -128 438 -118 433 c 4
 -107 428 -102 413 -107 402 c 4
 -112 391 -125 384 -136 389 c 4
 -147 394 -151 409 -146 420 c 4
EndSplineSet
EndChar

StartChar: uniEE0B
Encoding: 60939 60939 171
Width: 4224
GlyphClass: 4
Flags: W
HStem: 203 13<-256.98 -227 -191.559 -117 -81 -57.0939> 344 13<-242.98 -221 -187.073 -54.0987> 392 44<-163.76 -125.24>
VStem: -227 36<216 342.928> -164 39<392.242 435.758> -119 36<217.073 342.928>
AnchorPoint: "DoubleShaidur" -155 200 mark 0
AnchorPoint: "DoubleShaidur" 393 570 basemark 0
AnchorPoint: "Shaidur" -7 352.5 mark 0
LayerCount: 3
Fore
SplineSet
-191 216 m 5
 -117 216 l 5
 -119 235 -121 259 -119 282 c 4
 -118 304 -115 327 -111 344 c 5
 -186 344 l 5
 -190 321 -192 306 -193 281 c 4
 -195 256 -193 239 -191 216 c 5
-57 208 m 4
 -58 204 -59 203 -66 203 c 6
 -249 203 l 6
 -255 203 -257 206 -257 210 c 4
 -257 214 -254 215 -247 215 c 5
 -241 216 -235 216 -227 216 c 5
 -229 236 -231 259 -229 282 c 4
 -228 304 -225 327 -221 344 c 5
 -235 344 l 6
 -241 344 -243 347 -243 351 c 4
 -243 355 -240 357 -234 357 c 4
 -190 358 -96 357 -52 357 c 4
 -45 357 -43 354 -44 349 c 4
 -44 345 -45 344 -53 344 c 6
 -76 344 l 5
 -80 321 -82 306 -83 281 c 4
 -85 255 -83 239 -81 216 c 5
 -66 215 l 6
 -58 215 -57 212 -57 208 c 4
-164 423 m 4
 -159 434 -146 441 -136 436 c 4
 -125 431 -120 416 -125 405 c 4
 -130 394 -143 387 -154 392 c 4
 -165 397 -169 412 -164 423 c 4
EndSplineSet
EndChar

StartChar: uniEE11
Encoding: 60945 60945 172
Width: 0
VWidth: 999
GlyphClass: 4
Flags: W
HStem: 20 329
VStem: -77 38<220.693 317> -53 36<197.007 272.404>
AnchorPoint: "DoubleShaidur" -164 187 mark 0
AnchorPoint: "DoubleShaidur" 393 410 basemark 0
AnchorPoint: "Shaidur" -3 340.5 mark 0
LayerCount: 3
Fore
SplineSet
-313 68 m 0x80
 -318 76 -324 87 -333 99 c 1
 -367 70 -397 37 -414 20 c 0
 -418 16 -421 18 -424 21 c 0
 -427 24 -427 27 -423 32 c 0
 -409 46 -377 81 -342 111 c 1
 -353 124 -365 136 -371 142 c 0
 -382 152 -372 153 -368 153 c 0
 -360 154 -352 155 -347 151 c 0
 -340 146 -331 137 -322 126 c 1
 -289 151 -252 174 -236 182 c 0
 -229 185 -224 189 -221 183 c 0
 -219 179 -219 176 -225 172 c 0
 -245 161 -280 140 -313 115 c 1
 -301 99 -289 78 -287 73 c 0
 -283 66 -293 66 -299 66 c 1
 -304 65 -309 61 -313 68 c 0x80
-39 341 m 0xc0
 -40 329 -38 300 -34 275 c 0
 -30 247 -25 229 -17 204 c 0
 -16 198 -28 197 -36 197 c 0
 -44 197 -52 198 -53 204 c 0xa0
 -59 224 -63 235 -67 256 c 1
 -73 281 -76 297 -77 317 c 1
 -88 307 -104 284 -120 261 c 0
 -135 240 -153 210 -157 205 c 1
 -159 200 -172 198 -173 204 c 0
 -179 224 -183 235 -187 256 c 1
 -193 281 -197 302 -198 321 c 1
 -210 309 -226 285 -240 266 c 0
 -245 260 -273 210 -277 205 c 1
 -279 199 -291 198 -292 205 c 0
 -295 218 -252 281 -244 292 c 0
 -226 316 -205 337 -192 345 c 0
 -188 348 -180 349 -175 349 c 0
 -169 349 -158 348 -159 341 c 0
 -160 329 -160 314 -156 288 c 0
 -155 277 -151 262 -148 254 c 1
 -137 273 -128 287 -124 292 c 0
 -106 316 -85 337 -72 345 c 0
 -68 348 -60 349 -55 349 c 0
 -49 349 -38 348 -39 341 c 0xc0
EndSplineSet
EndChar

StartChar: uniEE13
Encoding: 60947 60947 173
Width: 0
VWidth: 999
GlyphClass: 4
Flags: W
HStem: 341 13<-190.901 -66 -32.3288 -3.04691>
VStem: -182 36<201.001 339.928> -72 36<201.001 339.928>
AnchorPoint: "DoubleShaidur" -115 197 mark 0
AnchorPoint: "DoubleShaidur" 393 432 basemark 0
AnchorPoint: "Shaidur" 12 347.5 mark 0
LayerCount: 3
Fore
SplineSet
-203 68 m 4
 -208 76 -214 87 -223 99 c 5
 -257 70 -287 37 -304 20 c 4
 -308 16 -311 18 -314 21 c 4
 -317 24 -317 27 -313 32 c 4
 -299 46 -267 81 -232 111 c 5
 -243 124 -255 136 -261 142 c 4
 -272 152 -262 153 -258 153 c 4
 -250 154 -242 155 -237 151 c 4
 -230 146 -221 137 -212 126 c 5
 -179 151 -142 174 -126 182 c 4
 -119 185 -114 189 -111 183 c 4
 -109 179 -109 176 -115 172 c 4
 -135 161 -170 140 -203 115 c 5
 -191 99 -179 78 -177 73 c 4
 -173 66 -183 66 -189 66 c 5
 -194 65 -199 61 -203 68 c 4
-31 341 m 1
 -36 318 -38 303 -39 278 c 0
 -40 250 -38 233 -36 207 c 0
 -36 201 -46 201 -53 201 c 0
 -61 201 -72 201 -72 207 c 0
 -74 228 -77 253 -75 279 c 0
 -73 301 -71 324 -66 341 c 1
 -141 341 l 1
 -146 318 -148 303 -149 278 c 0
 -150 250 -148 233 -146 207 c 0
 -146 201 -156 201 -163 201 c 0
 -171 201 -182 201 -182 207 c 0
 -184 228 -187 253 -185 279 c 0
 -183 301 -181 324 -176 341 c 1
 -195 341 l 2
 -201 341 -203 344 -202 348 c 0
 -202 352 -200 354 -193 354 c 0
 -149 355 -55 354 -12 354 c 0
 -4 354 -3 351 -3 346 c 1
 -4 342 -5 341 -12 341 c 2
 -31 341 l 1
EndSplineSet
EndChar

StartChar: uniEE15
Encoding: 60949 60949 174
Width: 0
VWidth: 999
GlyphClass: 4
Flags: W
HStem: 203 13<-217.991 -189 -152.56 -79 -42.56 -19.076> 344 13<-192.947 -72 -38.3288 -5.04691>
VStem: -189 37<216 342.928> -81 36<217.073 342.928>
AnchorPoint: "DoubleShaidur" -112 200 mark 0
AnchorPoint: "DoubleShaidur" 393 430 basemark 0
AnchorPoint: "Shaidur" 20 351.5 mark 0
LayerCount: 3
Fore
SplineSet
-243 62 m 0
 -248 70 -254 81 -263 93 c 1
 -297 64 -327 31 -344 14 c 0
 -348 10 -351 12 -354 15 c 0
 -357 18 -357 21 -353 26 c 0
 -339 40 -307 75 -272 105 c 1
 -283 118 -295 130 -301 136 c 0
 -312 146 -302 147 -298 147 c 0
 -290 148 -282 149 -277 145 c 0
 -270 140 -261 131 -252 120 c 1
 -219 145 -182 168 -166 176 c 0
 -159 179 -154 183 -151 177 c 0
 -149 173 -149 170 -155 166 c 0
 -175 155 -210 134 -243 109 c 1
 -231 93 -219 72 -217 67 c 0
 -213 60 -223 60 -229 60 c 1
 -234 59 -239 55 -243 62 c 0
-152 216 m 1
 -79 216 l 1
 -80 235 -83 259 -81 282 c 0
 -79 304 -77 327 -72 344 c 1
 -147 344 l 1
 -152 321 -154 306 -155 281 c 0
 -156 256 -154 239 -152 216 c 1
-19 208 m 0
 -19 204 -20 203 -28 203 c 2
 -211 203 l 2
 -217 203 -218 206 -218 210 c 0
 -218 214 -215 215 -209 215 c 0
 -203 216 -196 216 -189 216 c 1
 -190 236 -193 259 -191 282 c 0
 -189 304 -187 327 -182 344 c 1
 -197 344 l 2
 -203 344 -205 347 -204 351 c 0
 -204 355 -202 357 -195 357 c 0
 -152 358 -57 357 -14 357 c 0
 -6 357 -5 354 -5 349 c 1
 -6 345 -7 344 -14 344 c 2
 -37 344 l 1
 -42 321 -44 306 -45 281 c 0
 -46 255 -44 239 -42 216 c 1
 -27 215 l 2
 -20 215 -19 212 -19 208 c 0
EndSplineSet
EndChar

StartChar: uniEE50
Encoding: 61008 61008 175
Width: 1
GlyphClass: 4
Flags: W
HStem: 398 185
VStem: -433 120
AnchorPoint: "Ochko" -372 498 mark 0
LayerCount: 3
Fore
SplineSet
-418 496 m 5
 -396 540 -313 583 -313 583 c 5
 -326 488 l 5
 -326 488 -408 447 -433 398 c 5
 -418 496 l 5
EndSplineSet
EndChar

StartChar: uniEE51
Encoding: 61009 61009 176
Width: 1
GlyphClass: 4
Flags: W
HStem: 352 275
VStem: -513 273
AnchorPoint: "Ochko" -372 498 mark 0
LayerCount: 3
Fore
SplineSet
-345 540 m 5
 -323 584 -240 627 -240 627 c 5
 -253 532 l 5
 -253 532 -335 491 -360 442 c 5
 -345 540 l 5
-498 450 m 5
 -476 494 -393 537 -393 537 c 5
 -406 442 l 5
 -406 442 -488 401 -513 352 c 5
 -498 450 l 5
EndSplineSet
EndChar

StartChar: uniEE52
Encoding: 61010 61010 177
Width: 1
GlyphClass: 4
Flags: W
HStem: 655 20G<-202.138 -180.737>
AnchorPoint: "Ochko" -379 504 mark 0
LayerCount: 3
Fore
SplineSet
-435 496 m 5
 -413 540 -330 583 -330 583 c 5
 -343 488 l 5
 -343 488 -425 447 -450 398 c 5
 -435 496 l 5
-283 588 m 5
 -261 632 -178 675 -178 675 c 5
 -191 580 l 5
 -191 580 -273 539 -298 490 c 5
 -283 588 l 5
-588 406 m 5
 -566 450 -483 493 -483 493 c 5
 -496 398 l 5
 -496 398 -578 357 -603 308 c 5
 -588 406 l 5
EndSplineSet
EndChar

StartChar: uniEE54
Encoding: 61012 61012 178
Width: 0
VWidth: 999
GlyphClass: 4
Flags: W
HStem: 175 306
VStem: 39 52
AnchorPoint: "Otsechka" 31 173 mark 0
LayerCount: 3
Fore
SplineSet
91 481 m 5
 62 182 l 5
 39 175 l 5
 68 471 l 5
 91 481 l 5
EndSplineSet
EndChar

StartChar: uniEE53
Encoding: 61011 61011 179
Width: -12000
GlyphClass: 4
Flags: W
HStem: 398 185
VStem: 22 120
AnchorPoint: "Zaderzhka" 82 494 mark 0
LayerCount: 3
Fore
SplineSet
37 496 m 5
 59 540 142 583 142 583 c 5
 129 488 l 5
 129 488 47 447 22 398 c 5
 37 496 l 5
EndSplineSet
EndChar

StartChar: uniEE55
Encoding: 61013 61013 180
Width: 0
VWidth: 999
GlyphClass: 4
Flags: W
HStem: 0 98.8478<-398.592 -332.846>
VStem: -434 138<46.7061 146.5> -434 28.423<110.13 174.484> -416 12<158.766 204.657>
AnchorPoint: "Podchashie" -354 218 mark 0
LayerCount: 3
Fore
SplineSet
-437 186 m 6x80
 -435 196 -424 199 -425 181 c 4
 -428 138 -408.068 98 -355 98 c 4
 -308.99 98 -275 161 -266 213 c 4
 -264 225 -251 228 -253 217 c 6
 -267 131 l 6
 -278 65 -326 -6 -381 0 c 4
 -432 5 -464 55 -452 114 c 6
 -437 186 l 6x80
EndSplineSet
EndChar

StartChar: uniEE57
Encoding: 61015 61015 181
Width: 0
VWidth: 999
GlyphClass: 4
Flags: HW
VStem: -437 12<617.373 653.68>
AnchorPoint: "Ochko" -376.343 456.382 mark 0
LayerCount: 3
Fore
SplineSet
-328.47 658.723 m 0xd0
 -328.47 647.723 -331.47 639.723 -340.47 634.723 c 0
 -349.47 629.723 -360.47 625.723 -369.47 621.723 c 0
 -371.444 620.312 -373.182 619.618 -374.656 619.618 c 0
 -378.409 619.618 -380.47 624.108 -380.47 632.723 c 0
 -380.47 644.399 -391.705 674.452 -391.705 709.91 c 0
 -391.705 725.401 -373.923 730.668 -356.47 738.723 c 0
 -354.888 739.672 -353.379 740.115 -351.94 740.115 c 0
 -335.663 740.115 -328.47 683.292 -328.47 658.723 c 0xd0
-437 646 m 2
 -435 656 -424 659 -425 641 c 0
 -428 598 -408.068 558 -355 558 c 0
 -308.99 558 -275 621 -266 673 c 0
 -264 685 -251 688 -253 677 c 2
 -267 591 l 2
 -278 525 -326 454 -381 460 c 0
 -432 465 -464 515 -452 574 c 2
 -437 646 l 2
EndSplineSet
EndChar

StartChar: uniEE58
Encoding: 61016 61016 182
Width: 0
VWidth: 999
Flags: W
VStem: -449 11<401.932 431.219> -437 122<479 573.853> -337 11<448.374 487.976>
AnchorPoint: "Oblachko" -378 436 mark 0
LayerCount: 3
Fore
SplineSet
-326 455 m 6xa0
 -328 446 -338 443 -337 459 c 4xa0
 -335 498 -338 521 -376 522 c 4
 -410 523 -425 467 -438 410 c 4
 -440 399 -451 396 -449 406 c 6
 -437 493 l 6
 -428 553 -411 616 -361 611 c 4
 -315 607 -306 575 -315 521 c 6xc0
 -326 455 l 6xa0
EndSplineSet
EndChar

StartChar: uniEE59
Encoding: 61017 61017 183
Width: 6096
GlyphClass: 4
Flags: W
HStem: 456 100<61.6688 91.6108 110 134.275> 655 20G<43.7742 46.5 181.5 184.087>
VStem: 32 15<594.066 625.4>
AnchorPoint: "Zaderzhka" 96 494 mark 0
LayerCount: 3
Fore
SplineSet
110 555 m 5
 153 557 176 642 187 675 c 5
 172 572 l 6
 163 511 136 456 92 456 c 4
 41 456 23 523 32 582 c 6
 47 675 l 5
 46 634 46 563 91 556 c 5
 108 723 l 5
 128 735 l 5
 110 555 l 5
EndSplineSet
EndChar

StartChar: uniEEE0
Encoding: 61152 61152 184
Width: 829
VWidth: 0
GlyphClass: 1
Flags: W
HStem: 17 88<16 55 780 819> 17 39<55 106 158 249 301 392 443 534 586 677 729 780> 156 88<16 55 780 819> 229 67<705.003 731> 230 29<126.018 182 211 326.98 511 705> 295 88<16 55 780 819> 391 29<211 363.153> 434 88<16 55 780 819> 573 89<16 55 780 819> 594 28<126.004 182 211 365.135 557.458 666.901> 712 89<16 55 780 819> 762 39<55 106 158 249 301 392 443 534 586 677 729 780>
VStem: 16 90<17 56 762 801> 16 39<56 105 156 244 295 383 434 522 573 662 712 762> 158 91<17 56 762 801> 182 29<259 391 420 594> 301 91<17 56 762 801> 415 29<465.349 549.573> 443 91<17 56 762 801> 487 24<255 266.363> 499 25<519.019 557.542> 586 91<17 56 762 801> 705 26<255 295.996 479.015 552.646> 729 90<17 56 762 801> 780 39<56 105 156 244 295 383 434 522 573 662 712 762>
LayerCount: 3
Fore
SplineSet
511 519 m 0x130094
 505.396 519 499 525.4 499 531 c 0x13008c
 499 550 511 571 533 593 c 0
 555 615 582 626 614 626 c 0
 672.695 626 728 573.645 728 515 c 0
 728 496 723 479 712 463 c 0
 677.686 413.088 548.879 290.287 511 257 c 1
 511 255 l 1
 705 255 l 1
 705 278 l 2
 705 290 709 296 718 296 c 0
 726 296 731 290 731 278 c 2
 731 229 l 1
 487 229 l 1
 487 267 l 1x130096
 633 410 l 1
 662 440 680 461 689 474 c 0
 698 487 703 501 703 516 c 0
 703 560.49 659.383 599 614 599 c 0
 569.829 599 533.402 567.729 524 532 c 0x13008c
 522 523 517 519 511 519 c 0x130094
312 622 m 2x0b41c4
 382.138 622 444 575.044 444 507 c 0
 444 475 429 448 402 425 c 0
 375 402 341 391 302 391 c 2
 211 391 l 1
 211 259 l 1
 307 259 l 2
 320 259 327 254 327 245 c 0
 327 235 320 230 307 230 c 2
 145 230 l 2
 132 230 126 235 126 245 c 0
 126 254 132 259 145 259 c 2
 182 259 l 1
 182 594 l 1
 145 594 l 2
 132 594 126 598 126 608 c 0
 126 617 132 622 145 622 c 2
 312 622 l 2x0b41c4
415 507 m 0
 415 556.14 365.109 594 315 594 c 2
 211 594 l 1
 211 420 l 1
 304 420 l 2
 358.687 420 415 454.665 415 507 c 0
819 712 m 1x03208480
 780 712 l 1x03208480
 780 762 l 1x03108480
 729 762 l 1
 729 801 l 1x031085
 819 801 l 1x032085
 819 712 l 1x03208480
677 762 m 1x031084
 586 762 l 1
 586 801 l 1
 677 801 l 1
 677 762 l 1x031084
819 573 m 1x03808480
 780 573 l 1
 780 662 l 1
 819 662 l 1
 819 573 l 1x03808480
534 762 m 1x0310a4
 443 762 l 1
 443 801 l 1
 534 801 l 1
 534 762 l 1x0310a4
819 434 m 1x03008480
 780 434 l 1
 780 522 l 1
 819 522 l 1
 819 434 l 1x03008480
392 762 m 1x031084
 301 762 l 1
 301 801 l 1
 392 801 l 1
 392 762 l 1x031084
819 295 m 1x07008480
 780 295 l 1
 780 383 l 1
 819 383 l 1
 819 295 l 1x07008480
249 762 m 1x031284
 158 762 l 1
 158 801 l 1
 249 801 l 1
 249 762 l 1x031284
819 156 m 1x23008480
 780 156 l 1
 780 244 l 1
 819 244 l 1
 819 156 l 1x23008480
106 762 m 1x031884
 55 762 l 1x031484
 55 712 l 1
 16 712 l 1x032484
 16 801 l 1x032884
 106 801 l 1
 106 762 l 1x031884
819 17 m 1x830085
 729 17 l 1
 729 56 l 1x430085
 780 56 l 1x43008480
 780 105 l 1
 819 105 l 1x83008480
 819 17 l 1x830085
55 573 m 1x038484
 16 573 l 1
 16 662 l 1
 55 662 l 1
 55 573 l 1x038484
677 17 m 1x430084
 586 17 l 1
 586 56 l 1
 677 56 l 1
 677 17 l 1x430084
55 434 m 1x030484
 16 434 l 1
 16 522 l 1
 55 522 l 1
 55 434 l 1x030484
534 17 m 1x4300a4
 443 17 l 1
 443 56 l 1
 534 56 l 1
 534 17 l 1x4300a4
55 295 m 1x070484
 16 295 l 1
 16 383 l 1
 55 383 l 1
 55 295 l 1x070484
392 17 m 1x430084
 301 17 l 1
 301 56 l 1
 392 56 l 1
 392 17 l 1x430084
55 156 m 1x230484
 16 156 l 1
 16 244 l 1
 55 244 l 1
 55 156 l 1x230484
249 17 m 1x430284
 158 17 l 1
 158 56 l 1
 249 56 l 1
 249 17 l 1x430284
106 17 m 1x430884
 16 17 l 1x830884
 16 105 l 1
 55 105 l 1x830484
 55 56 l 1x430484
 106 56 l 1
 106 17 l 1x430884
EndSplineSet
Validated: 1
EndChar

StartChar: uniEEE1
Encoding: 61153 61153 185
Width: 837
VWidth: 0
GlyphClass: 1
Flags: W
HStem: 17 88<16 55 780 819> 17 38<55 106 159 249 301 391 443 535 586 677 729 780> 156 89<16 55 780 819> 223 27<552.193 664.306> 230 29<126.018 182 211 326.98> 295 88<16 55 780 819> 391 29<211 363.172> 434 88<16 55 780 819> 437 27<589.018 669.703> 573 89<16 55 780 819> 594 29<126.215 182 211 367.336> 610 27<559.482 668.685> 712 89<16 55 780 819> 762 39<55 106 158 249 301 391 443 535 586 677 729 780>
VStem: 15 40<55 105 156 245 295 383 434 522 573 662 712 762> 16 90<17 55 762 801> 158 91<17 55 762 801> 182 29<259 391 420 594> 301 90<17 55 762 801> 415 28<465.683 549.628> 443 92<17 55 762 801> 586 91<17 55 762 801> 702 26<495.516 576.775> 716 25<300.914 385.071> 729 90<17 55 762 801> 780 39<55 105 156 245 295 383 434 522 573 662 712 762>
LayerCount: 3
Fore
SplineSet
523 566 m 0x169026
 515.081 566 511 571.61 511 579 c 0
 511 584 514 590 522 599 c 0
 541.185 618.185 578.753 637 620 637 c 0
 678.852 637 728 594.191 728 537 c 0x169026
 728 492.92 699.177 464.588 668 449 c 0
 667 449 666 448 665 447 c 1
 705.458 430.142 741 395.443 741 343 c 0
 741 275.686 680.518 223 612 223 c 0
 579.989 223 493 250.401 493 279 c 0
 493 283.717 499.105 291 504 291 c 0
 507 291 513 288 521 281 c 0
 540.732 265.653 575.249 250 613 250 c 0
 666.026 250 716 291.281 716 343 c 0x169025
 716 398.074 662.324 437 605 437 c 0
 595 437 589 442 589 451 c 0
 589 460 595 464 605 464 c 0
 656.156 464 671.914 471.756 691 498 c 1
 698 510 702 523 702 536 c 0
 702 582.329 665.076 610 618 610 c 0
 588.165 610 562.149 602.149 549 589 c 1
 543.51 580.766 533.004 566 523 566 c 0x169026
443 508 m 0x0e2074
 443 437.801 373.806 391 301 391 c 2
 211 391 l 1
 211 259 l 1
 307 259 l 2x0e2074
 320 259 327 254 327 245 c 0x260074
 327 236 320 230 307 230 c 2
 144 230 l 2x0e0074
 132 230 126 236 126 245 c 0x260074
 126 254 132 259 144 259 c 2
 182 259 l 1
 182 594 l 1
 144 594 l 2
 132 594 126 602 126 611 c 0
 126 620 132 623 144 623 c 2
 312 623 l 2
 381.005 623 443 575.935 443 508 c 0x0e2074
415 508 m 0
 415 557.644 365.072 594 314 594 c 2
 211 594 l 1
 211 420 l 1
 304 420 l 2
 360.085 420 415 454.611 415 508 c 0
819 712 m 1x06082440
 779 712 l 1x06082440
 780 762 l 1x06042440
 729 762 l 1
 729 801 l 1x06042480
 819 801 l 1x06082480
 819 712 l 1x06082440
677 762 m 1x060424
 586 762 l 1
 586 801 l 1
 677 801 l 1
 677 762 l 1x060424
819 573 m 1x06402440
 779 573 l 1
 780 662 l 1
 819 662 l 1
 819 573 l 1x06402440
535 762 m 1x06042c
 443 762 l 1
 443 801 l 1
 535 801 l 1
 535 762 l 1x06042c
819 434 m 1x07002440
 779 434 l 1
 780 522 l 1
 819 522 l 1
 819 434 l 1x07002440
391 762 m 1x060424
 301 762 l 1
 301 801 l 1
 391 801 l 1
 391 762 l 1x060424
819 295 m 1x06002440
 779 295 l 1
 780 383 l 1
 819 383 l 1
 819 295 l 1x06002440
249 762 m 1x0604a4
 158 762 l 1
 158 801 l 1
 249 801 l 1
 249 762 l 1x0604a4
819 156 m 1x26002440
 779 156 l 1
 780 245 l 1
 819 245 l 1
 819 156 l 1x26002440
106 762 m 1x060524
 55 762 l 1x060624
 55 712 l 1
 15 712 l 1x060a24
 16 801 l 1x060924
 106 801 l 1
 106 762 l 1x060524
819 17 m 1x86002480
 729 17 l 1
 729 55 l 1x46002480
 780 55 l 1x46002440
 780 105 l 1
 819 105 l 1x86002440
 819 17 l 1x86002480
55 573 m 1x064224
 15 573 l 1x064224
 16 662 l 1x064124
 55 662 l 1
 55 573 l 1x064224
677 17 m 1x460024
 586 17 l 1
 586 55 l 1
 677 55 l 1
 677 17 l 1x460024
55 434 m 1x070224
 15 434 l 1x070224
 16 522 l 1x070124
 55 522 l 1
 55 434 l 1x070224
535 17 m 1x46002c
 443 17 l 1
 443 55 l 1
 535 55 l 1
 535 17 l 1x46002c
55 295 m 1x060224
 15 295 l 1x060224
 16 383 l 1x060124
 55 383 l 1
 55 295 l 1x060224
391 17 m 1x460024
 301 17 l 1
 301 55 l 1
 391 55 l 1
 391 17 l 1x460024
55 156 m 1x260224
 15 156 l 1x260224
 16 245 l 1x260124
 55 245 l 1
 55 156 l 1x260224
249 17 m 1x4600a4
 159 17 l 1
 158 55 l 1
 249 55 l 1
 249 17 l 1x4600a4
106 17 m 1x460124
 15 17 l 1x460224
 16 105 l 1x860124
 55 105 l 1x860224
 55 55 l 1x460224
 106 55 l 1
 106 17 l 1x460124
EndSplineSet
Validated: 1
EndChar

StartChar: uniE068
Encoding: 57448 57448 186
Width: 657
VWidth: 0
Flags: W
HStem: 0 97<550.385 630.56> 0 37<109.245 176.295 363.338 424.883> 222 42<319.766 393.996> 235 30<50.568 116.685> 340 36<350.35 440.031> 479 35<387.25 485.5>
VStem: 7 34<123.445 221.217> 12 48<-145.76 48> 187 27<48.0774 137> 256 29<120.913 191.61> 387 62<521.522 591.84> 466 63<399.282 467.025> 466 28<74.552 139.016> 542 97<8.44002 88.6152>
LayerCount: 3
Fore
SplineSet
7 145 m 2x5ee4
 7 211 34 265 100 265 c 0
 117 265 138 260 147 255 c 0
 186 234 214 171 214 112 c 0
 214 59 194 21 154 5 c 0
 144 1 135 0 126 0 c 0
 109 0 96 10 86 18 c 0
 76 25 66 36 57 48 c 1
 57 15 61 -14 61 -42 c 0
 61 -66 60 -87 60 -109 c 0
 60 -129 55 -141 50 -146 c 2
 0 -184 l 1
 6 -174 12 -156 12 -130 c 0
 12 -104 12 -78 12 -51 c 0x5de4
 12 -19 7 14 7 50 c 2
 7 145 l 2x5ee4
375 264 m 1x6cec
 376 265 382 263 394 260 c 0
 426 249 455 226 475 198 c 0
 487 181 494 159 494 132 c 0
 494 81 466 46 436 25 c 1
 421 16 407 8 395 4 c 1
 384 2 378 -0 376 -0 c 0
 375 0 l 1
 375 0 374 -0 373 -0 c 0
 370 -0 364 1 354 4 c 0
 323 12 292 40 274 66 c 0
 262 84 256 105 256 132 c 0
 256 201 304 243 354 260 c 1
 367 263 374 265 375 264 c 1x6cec
330 222 m 0
 310 222 285 197 285 178 c 0
 285 167 285 156 288 145 c 0
 295 122 313 100 328 85 c 0
 349 64 371 43 409 43 c 0
 414 43 418 43 423 43 c 0
 443 43 466 67 466 87 c 0
 467 91 465 94 465 98 c 0
 465 119 454 137 445 151 c 0
 430 172 413 187 393 203 c 1
 374 213 359 222 330 222 c 0
542 48 m 0
 542 75 564 97 591 97 c 0
 619 97 639 75 639 48 c 0
 639 22 617 0 591 0 c 0x8ce4
 564 0 542 20 542 48 c 0
354 468 m 1
 368 489 387 525 387 557 c 0
 387 564 383 568 377 568 c 0
 369 569 360 566 350 563 c 0
 325 556 297 539 276 525 c 1
 265 509 259 495 253 472 c 1
 184 437 l 1
 193 472 213 502 240 518 c 1
 264 536 287 550 316 563 c 1
 330 571 345 578 360 583 c 1
 378 591 409 600 432 600 c 0
 434 600 436 600 438 600 c 0
 446 600 449 594 449 586 c 0
 449 573 441 554 438 547 c 1
 434 532 424 515 417 504 c 1
 436 510 441 514 466 514 c 0x0cec
 505 514 529 488 529 450 c 0x0cf4
 529 421 515 400 494 391 c 1x0cec
 472 375 450 360 421 350 c 0
 407 345 390 340 373 340 c 0
 353 340 339 347 329 357 c 1
 322 362 316 369 311 376 c 1
 378 410 l 1
 390 393 405 376 434 376 c 0
 460 376 466 389 466 416 c 0x0cf4
 466 456 443 479 404 479 c 0
 393 479 384 478 378 476 c 2
 354 468 l 1
150 37 m 0x5ee4
 175 37 187 58 187 83 c 0
 187 87 187 91 187 96 c 0
 187 108 181 121 176 133 c 0
 167 157 159 175 143 193 c 1
 136 203 127 211 119 219 c 1
 107 226 95 235 80 235 c 0
 55 235 41 215 41 190 c 0
 41 185 41 181 41 176 c 0
 41 154 56 126 65 111 c 0
 76 92 93 67 111 54 c 1
 120 46 135 37 150 37 c 0x5ee4
EndSplineSet
Validated: 1
EndChar

StartChar: uniE069
Encoding: 57449 57449 187
Width: 638
Flags: W
HStem: -28.6667 28.5272<274.639 388.443> -15 21G<-1 17.3334> 40.1818 73.8182<57.264 163.346> 239 70<378.339 413.443> 323 72<200.797 279.667> 652.202 34.798<256.998 396.266>
VStem: -1 17<-11.4706 2.08892> 149 17<551.765 561.244> 497.997 130.003<209.75 324.171 329.751 466.461>
LayerCount: 3
Fore
SplineSet
-1 -9 m 1x7f80
 10.2801 49.907 53.7246 114 118 114 c 0
 143.333 114 166.667 104.333 188 85 c 0
 207.333 67 228.667 48.6667 252 30 c 1
 274.326 9.90698 298.754 -0.139535 325.285 -0.139535 c 0
 330.444 -0.139535 335.682 0.24031 341 1 c 0
 396.333 0.999992 438.333 43.6667 467 129 c 0
 487.487 189.798 497.819 254.855 497.997 324.171 c 1
 435.591 267.39 385.258 239 347 239 c 0
 319.667 239 290.833 253 260.5 281 c 0
 230.167 309 210.667 323 202 323 c 0
 177.333 323 161 311 153 287 c 1
 142 299 l 1
 158.142 342.814 207.756 395 265 395 c 0
 294.333 395 324 380.667 354 352 c 0
 384 323.333 405 309 417 309 c 0
 435.667 309 463 320.333 499 343 c 1
 496.333 420.333 486 485.333 468 538 c 1
 432.812 614.134 392.712 652.202 347.7 652.202 c 0
 345.809 652.202 343.909 652.134 342 652 c 0
 338.845 652.149 335.714 652.202 332.608 652.202 c 0
 266.119 652.202 210.583 618.149 166 550 c 1
 149 553 l 1
 177 642.333 248.333 687 363 687 c 0
 401.667 687 445 669 493 633 c 0
 569.069 575.656 628 465.255 628 336 c 0
 628 247.333 599.667 167.667 543 97 c 0
 482.333 21.6667 416.666 -19.3333 346 -26 c 0
 331.481 -27.7778 317.556 -28.6667 304.222 -28.6667 c 0xbf80
 257.556 -28.6667 218.148 -17.7778 186 4 c 0
 150.127 28.3934 122.661 40.1818 91.2397 40.1818 c 0
 69.2011 40.1818 52.1212 34.1212 40 22 c 0
 26.6667 8.66667 18.6667 -3.66667 16 -15 c 1
 -1 -9 l 1x7f80
EndSplineSet
Validated: 1
EndChar

StartChar: uniE030
Encoding: 57392 57392 188
Width: 0
Flags: W
HStem: 463 300
DStem2: -291 470 -250 557 0.319739 0.947506<100.116 304.192> -164 499 -150 497 0.29672 0.954965<-6.75648 126.628>
LayerCount: 3
Fore
SplineSet
-116 613 m 0
 -123.333 587.667 -134.667 549 -150 497 c 0
 -151.333 492.333 -154 490 -158 490 c 0
 -163.333 490 -165.333 493 -164 499 c 0
 -157.333 523 -146 561.333 -130 614 c 0
 -128.667 618.667 -126 621 -122 621 c 0
 -117.5 621 -115.25 619.5 -115.25 616.5 c 0
 -115.25 615.5 -115.5 614.333 -116 613 c 0
-174 578 m 0
 -180.667 551.333 -188.333 527.667 -197 507 c 1
 -201.021 500.968 -269.286 472.472 -287 464 c 0
 -288.333 463.333 -289.333 463 -290 463 c 0
 -291.333 463.667 -292 465 -292 467 c 0
 -292 467.667 -291.667 468.667 -291 470 c 0
 -261.688 565.929 -233.103 665.96 -200 756 c 0
 -198.667 760.667 -196 763 -192 763 c 0
 -186.667 763 -184 760.333 -184 755 c 0
 -184 753.667 -184.333 752.667 -185 752 c 0
 -198.333 715.333 -220 650.333 -250 557 c 0
 -250.667 553.667 -250.333 552 -249 552 c 0
 -247.667 551.333 -245.333 552 -242 554 c 0
 -226 560.667 -204.333 569.667 -177 581 c 0
 -174.497 582.252 -174 579.768 -174 578 c 0
EndSplineSet
Validated: 1
EndChar

StartChar: uniE031
Encoding: 57393 57393 189
Width: 0
Flags: W
HStem: 476 300
DStem2: -633 483 -592 570 0.31974 0.947505<100.115 304.192> -506 512 -492 510 0.279789 0.960062<-6.90735 128.824> -408 483 -367 570 0.31974 0.947505<100.115 304.192> -281 512 -267 510 0.296722 0.954964<-6.75675 126.629>
LayerCount: 3
Fore
SplineSet
-458 626 m 0
 -465.333 600.667 -476.667 562 -492 510 c 0
 -493.333 505.333 -496 503 -500 503 c 0
 -505.333 503 -507.333 506 -506 512 c 0
 -499.333 536 -488 574.333 -472 627 c 0
 -470.667 631.667 -468 634 -464 634 c 0
 -458 634 -456 631.333 -458 626 c 0
-516 591 m 0
 -522.667 564.333 -530.333 540.667 -539 520 c 1
 -543.021 513.968 -611.283 485.472 -629 477 c 0
 -630.333 476.333 -631.333 476 -632 476 c 0
 -633.333 476.667 -634 478 -634 480 c 0
 -634 480.667 -633.667 481.667 -633 483 c 0
 -603.688 578.929 -575.103 678.961 -542 769 c 0
 -540.667 773.667 -538 776 -534 776 c 0
 -528.667 776 -526 773.333 -526 768 c 0
 -526 766.667 -526.333 765.667 -527 765 c 0
 -540.333 728.333 -562 663.333 -592 570 c 0
 -592.667 566.667 -592.333 565 -591 565 c 0
 -589.667 564.333 -587.333 565 -584 567 c 0
 -568 573.667 -546.333 582.667 -519 594 c 0
 -516.497 595.252 -516 592.768 -516 591 c 0
-233 626 m 0
 -240.333 600.667 -251.666 562 -267 510 c 0
 -268.333 505.333 -271 503 -275 503 c 0
 -280.333 503 -282.333 506 -281 512 c 0
 -274.333 536 -263 574.333 -247 627 c 0
 -245.667 631.667 -243 634 -239 634 c 0
 -234.5 634 -232.25 632.5 -232.25 629.5 c 0
 -232.25 628.5 -232.5 627.333 -233 626 c 0
-291 591 m 0
 -297.666 564.333 -305.332 540.667 -314 520 c 1
 -318.021 513.968 -386.286 485.472 -404 477 c 0
 -405.333 476.333 -406.333 476 -407 476 c 0
 -408.333 476.667 -409 478 -409 480 c 0
 -408.333 480.667 -408 481.667 -408 483 c 0
 -378.688 578.929 -350.103 678.961 -317 769 c 0
 -315.667 773.667 -313 776 -309 776 c 0
 -303.667 776 -301 773.333 -301 768 c 0
 -301 766.667 -301.333 765.667 -302 765 c 0
 -315.333 728.333 -337 663.333 -367 570 c 0
 -367.678 566.667 -367.345 565 -366 565 c 0
 -364.672 564.333 -362.339 565 -359 567 c 0
 -343 573.667 -321.333 582.667 -294 594 c 0
 -291.508 595.255 -291 592.766 -291 591 c 0
EndSplineSet
Validated: 1
EndChar

StartChar: uniE032
Encoding: 57394 57394 190
Width: 0
Flags: W
HStem: 485 300
VStem: -560 102<489 593>
LayerCount: 3
Fore
SplineSet
-368 568 m 0
 -393.333 554 -417 542.333 -439 533 c 0
 -443 531.667 -445 532.667 -445 536 c 0
 -445 541.564 -424.677 601.484 -423 604 c 0
 -418.916 609.445 -361.314 636.839 -351 640 c 0
 -347.885 641.039 -345.566 640.759 -345.566 638.245 c 0
 -345.566 623.549 -360.742 572.355 -368 568 c 0
-453 774 m 0
 -465 741.333 -486.667 676.333 -518 579 c 0
 -518.667 575.667 -518.333 574 -517 574 c 0
 -516.333 573.333 -514 574 -510 576 c 0
 -508 576.669 -491.667 583.336 -461 596 c 0
 -458.515 597.256 -458 594.765 -458 593 c 0
 -464 566.333 -471.667 542.667 -481 522 c 0
 -482.727 516.815 -542.074 492.123 -555 486 c 0
 -556.333 485.333 -557.333 485 -558 485 c 0
 -559.333 485.667 -560 487 -560 489 c 0
 -560 489.667 -559.667 490.667 -559 492 c 0
 -529.688 587.928 -501.104 687.961 -468 778 c 0
 -466.667 782.667 -464 785 -460 785 c 0
 -454.667 785 -452 782.333 -452 777 c 0
 -452 775.667 -452.333 774.667 -453 774 c 0
EndSplineSet
Validated: 1
EndChar

StartChar: uniE033
Encoding: 57395 57395 191
Width: 0
Flags: W
HStem: 596.7 73.942<-318 -313 -290 -265.766>
DStem2: -614 488.7 -573 575.7 0.319742 0.947505<91.2158 304.192> -487 517.7 -473 515.7 0.279789 0.960062<-6.90729 128.824> -375 494.7 -355 491.7 0.347314 0.937749<-12.4713 4.13304 192.69 298.88>
LayerCount: 3
Fore
SplineSet
-439 631.7 m 0
 -446.333 606.367 -457.667 567.7 -473 515.7 c 0
 -474.333 511.033 -477 508.7 -481 508.7 c 0
 -486.333 508.7 -488.333 511.7 -487 517.7 c 0
 -480.333 541.7 -469 580.033 -453 632.7 c 0
 -451.667 637.367 -449 639.7 -445 639.7 c 0
 -439 639.7 -437 637.033 -439 631.7 c 0
-252.604 664.251 m 0
 -252.604 649.513 -270.379 598.426 -279 596.7 c 1
 -286.333 596.7 -299.333 596.033 -318 594.7 c 1
 -355 491.7 l 2
 -357.667 483.033 -362 478.7 -368 478.7 c 0
 -376 478.7 -378.333 484.033 -375 494.7 c 0
 -372.333 503.368 -360.667 536.034 -340 592.7 c 1
 -346.936 592.034 -368.479 589.206 -376.206 589.206 c 0
 -377.958 589.206 -379 589.351 -379 589.7 c 2
 -379 592.7 l 1
 -366.333 632.7 -357 654.7 -351 658.7 c 0
 -347 661.378 -334.333 664.045 -313 666.7 c 1
 -278 762.7 l 2
 -274.667 772.033 -269.667 776.7 -263 776.7 c 0
 -257 776.7 -254 774.033 -254 768.7 c 0
 -254 766.7 -254.333 764.367 -255 761.7 c 0
 -257 758.367 -268.667 727.367 -290 668.7 c 1
 -281.885 669.376 -272.809 670.642 -265.63 670.642 c 0
 -258.062 670.642 -252.604 669.235 -252.604 664.251 c 0
-572 570.7 m 0
 -571.862 570.632 -571.664 570.599 -571.409 570.599 c 0
 -563.903 570.599 -507.074 599.271 -497.709 599.271 c 0
 -497.106 599.271 -497 596.809 -497 596.7 c 0
 -503.665 570.033 -511.331 546.367 -520 525.7 c 1
 -524.021 519.668 -592.284 491.171 -610 482.7 c 0
 -611.333 482.033 -612.333 481.7 -613 481.7 c 0
 -614.333 482.367 -615 483.7 -615 485.7 c 0
 -615 486.367 -614.667 487.367 -614 488.7 c 0
 -584.688 584.628 -556.104 684.661 -523 774.7 c 0
 -521.667 779.367 -519 781.7 -515 781.7 c 0
 -509.667 781.7 -507 779.033 -507 773.7 c 0
 -507 772.367 -507.333 771.367 -508 770.7 c 0
 -521.333 734.033 -543 669.033 -573 575.7 c 0
 -573.667 572.367 -573.333 570.7 -572 570.7 c 0
EndSplineSet
Validated: 1
EndChar

StartChar: uniE034
Encoding: 57396 57396 192
Width: 0
Flags: W
HStem: 482 300
DStem2: -631 489 -590 576 0.31974 0.947505<100.115 304.192> -504 518 -490 516 0.279789 0.960062<-6.90735 128.824>
LayerCount: 3
Fore
SplineSet
-456 632 m 0
 -463.333 606.667 -474.667 568 -490 516 c 0
 -491.333 511.333 -494 509 -498 509 c 0
 -503.333 509 -505.333 512 -504 518 c 0
 -497.333 542 -486 580.333 -470 633 c 0
 -468.667 637.667 -466 640 -462 640 c 0
 -456 640 -454 637.333 -456 632 c 0
-206 742 m 0
 -204.516 742 -203.895 740.725 -203.895 738.591 c 0
 -203.895 728.442 -217.951 698.894 -220 695 c 0
 -228.667 678.333 -235.333 669 -240 667 c 0
 -281.037 652.516 -298.176 647.39 -326 630 c 0
 -328 628 -329.667 627.333 -331 628 c 0
 -331.667 628 -331.667 629.333 -331 632 c 0
 -325.468 643.987 -295.416 698.584 -287 707 c 0
 -281 713.667 -270.667 720 -256 726 c 0
 -253.333 726.667 -238 731.667 -210 741 c 0
 -208 741.667 -206.667 742 -206 742 c 0
-301 602 m 0
 -299.516 602 -298.895 600.725 -298.895 598.591 c 0
 -298.895 588.442 -312.951 558.894 -315 555 c 0
 -323.665 538.333 -330.332 529 -335 527 c 0
 -376.037 512.516 -393.176 507.39 -421 490 c 0
 -423 488 -424.667 487.333 -426 488 c 0
 -426.667 488 -426.667 489.333 -426 492 c 0
 -420.468 503.987 -390.416 558.584 -382 567 c 0
 -376 573.667 -365.667 580 -351 586 c 0
 -348.333 586.667 -333 591.667 -305 601 c 0
 -303 601.667 -301.667 602 -301 602 c 0
-514 597 m 0
 -520.667 570.333 -528.333 546.667 -537 526 c 1
 -541.022 519.967 -609.28 491.472 -627 483 c 0
 -628.333 482.333 -629.333 482 -630 482 c 0
 -631.333 482.667 -632 484 -632 486 c 0
 -632 486.667 -631.667 487.667 -631 489 c 0
 -601.688 584.929 -573.103 684.961 -540 775 c 0
 -538.667 779.667 -536 782 -532 782 c 0
 -526.667 782 -524 779.333 -524 774 c 0
 -524 772.667 -524.333 771.667 -525 771 c 0
 -538.333 734.333 -560 669.333 -590 576 c 0
 -590.667 572.667 -590.333 571 -589 571 c 0
 -587.667 570.333 -585.333 571 -582 573 c 0
 -566 579.667 -544.333 588.667 -517 600 c 0
 -514.497 601.252 -514 598.768 -514 597 c 0
EndSplineSet
Validated: 1
EndChar

StartChar: uniE035
Encoding: 57397 57397 193
Width: 0
Flags: W
HStem: 477 300
DStem2: -750 484 -709 571 0.319739 0.947506<100.115 304.192> -623 513 -609 511 0.296586 0.955006<-6.75795 126.626> -535 484 -494 571 0.319739 0.947506<91.1045 304.192> -408 513 -394 511 0.279789 0.960062<-6.90735 128.824>
LayerCount: 3
Fore
SplineSet
-360 627 m 0
 -367.333 601.667 -378.667 563 -394 511 c 0
 -395.333 506.333 -398 504 -402 504 c 0
 -407.333 504 -409.333 507 -408 513 c 0
 -401.333 537 -390 575.333 -374 628 c 0
 -372.667 632.667 -370 635 -366 635 c 0
 -360 635 -358 632.333 -360 627 c 0
-110 737 m 0
 -108.516 737 -107.894 735.724 -107.894 733.591 c 0
 -107.894 723.443 -121.95 693.894 -124 690 c 0
 -132.667 673.333 -139.333 664 -144 662 c 0
 -185.038 647.516 -202.175 642.391 -230 625 c 0
 -232 623 -233.667 622.333 -235 623 c 0
 -235.667 623 -235.667 624.333 -235 627 c 0
 -229.467 638.988 -199.417 693.583 -191 702 c 0
 -185 708.667 -174.667 715 -160 721 c 0
 -157.333 721.667 -142 726.667 -114 736 c 0
 -112 736.667 -110.667 737 -110 737 c 0
-205 597 m 0
 -203.516 597 -202.894 595.724 -202.894 593.591 c 0
 -202.894 583.443 -216.95 553.894 -219 550 c 0
 -227.667 533.333 -234.333 524 -239 522 c 0
 -280.038 507.516 -297.176 502.39 -325 485 c 0
 -327 483 -328.667 482.333 -330 483 c 0
 -330.667 483 -330.667 484.333 -330 487 c 0
 -324.467 498.988 -294.416 553.584 -286 562 c 0
 -280 568.667 -269.667 575 -255 581 c 0
 -252.333 581.667 -237 586.667 -209 596 c 0
 -207 596.667 -205.667 597 -205 597 c 0
-493 566 m 0
 -492.863 565.931 -492.666 565.898 -492.41 565.898 c 0
 -484.917 565.898 -427.976 594.567 -418.7 594.567 c 0
 -418.108 594.567 -418 592.1 -418 592 c 0
 -424.665 565.333 -432.332 541.667 -441 521 c 1
 -445.02 514.969 -513.288 486.471 -531 478 c 0
 -532.333 477.333 -533.333 477 -534 477 c 0
 -535.333 477.667 -536 479 -536 481 c 0
 -535.333 481.667 -535 482.667 -535 484 c 0
 -505.688 579.928 -477.103 679.961 -444 770 c 0
 -442.667 774.667 -440 777 -436 777 c 0
 -430.667 777 -428 774.333 -428 769 c 0
 -428 767.667 -428.333 766.667 -429 766 c 0
 -442.333 729.333 -464 664.333 -494 571 c 0
 -494.682 567.667 -494.349 566 -493 566 c 0
-575 627 m 0
 -582.329 601.667 -593.662 563 -609 511 c 0
 -610.333 506.333 -613 504 -617 504 c 0
 -622.333 504 -624.333 507 -623 513 c 0
 -616.333 537 -605 575.333 -589 628 c 0
 -587.667 632.667 -585 635 -581 635 c 0
 -576.5 635 -574.25 633.5 -574.25 630.499 c 0
 -574.25 629.499 -574.5 628.333 -575 627 c 0
-633 592 m 0
 -639.667 565.333 -647.333 541.667 -656 521 c 1
 -660.02 514.968 -728.284 486.471 -746 478 c 0
 -747.333 477.333 -748.333 477 -749 477 c 0
 -750.333 477.667 -751 479 -751 481 c 0
 -751 481.667 -750.667 482.667 -750 484 c 0
 -720.688 579.928 -692.103 679.961 -659 770 c 0
 -657.667 774.667 -655 777 -651 777 c 0
 -645.667 777 -643 774.333 -643 769 c 0
 -643 767.667 -643.333 766.667 -644 766 c 0
 -657.333 729.333 -679 664.333 -709 571 c 0
 -709.667 567.667 -709.333 566 -708 566 c 0
 -706.667 565.333 -704.333 566 -701 568 c 0
 -685 574.667 -663.333 583.667 -636 595 c 0
 -633.496 596.253 -633 593.767 -633 592 c 0
EndSplineSet
Validated: 1
EndChar

StartChar: uniEE90
Encoding: 61072 61072 194
Width: 358
VWidth: 0
GlyphClass: 2
Flags: W
HStem: 0 21G<8.6 15.5>
VStem: 178 13<63.0764 91.6523> 188 138<90.9 200.173> 299 12<-2.31445 35.8792>
AnchorPoint: "Zevok" 192 474 basechar 0
AnchorPoint: "Udarka" 192 474 basechar 0
AnchorPoint: "Kupnaya" 188 -108 basechar 0
AnchorPoint: "Kachka" 191 474 basechar 0
AnchorPoint: "Lomka" 191 474 basechar 0
AnchorPoint: "Tikhaya" 62 110.5 basechar 0
AnchorPoint: "Oblachko" 191 475 basechar 0
AnchorPoint: "Podchashie" 191 475 basechar 0
AnchorPoint: "Zaderzhka" 191 473.9 basechar 0
AnchorPoint: "Ochko" 337 398 basechar 0
AnchorPoint: "Podvertka" 193 474 basechar 0
AnchorPoint: "Borzaya" 193 474 basechar 0
AnchorPoint: "Otsechka" 382 22 basechar 0
AnchorPoint: "Shaidur" 11 191 basechar 0
LayerCount: 3
Fore
SplineSet
23 100 m 5x80
 44 166 159 208 159 208 c 5
 143 112 l 5
 143 112 26 63 5 0 c 5
 23 100 l 5x80
83 290 m 5
 104 356 219 398 219 398 c 5
 203 302 l 5
 203 302 86 253 65 190 c 5
 83 290 l 5
311 6 m 6x90
 309 -5 297 -8 299 10 c 4
 305 73 309 126 254 131 c 4
 233 133 205 129 191 73 c 4
 188 61 176 57 178 69 c 6xd0
 188 142 l 6
 196 203 227 229 265 229 c 4
 323 229 339 156 326 87 c 6xa0
 311 6 l 6x90
EndSplineSet
Position2: "Advance neume with cinnabar mark-1" dx=200 dy=0 dh=0 dv=0
EndChar

StartChar: uniEE76
Encoding: 61046 61046 195
Width: 512
VWidth: 999
GlyphClass: 2
Flags: W
HStem: 0 21G<34.9032 43.5>
AnchorPoint: "Zevok" 526 645 basechar 0
AnchorPoint: "Udarka" -71 340 basechar 0
AnchorPoint: "Kupnaya" 262 -108 basechar 0
AnchorPoint: "Kachka" 93 726 basechar 0
AnchorPoint: "Lomka" 425 30 basechar 0
AnchorPoint: "Tikhaya" 92 255 basechar 0
AnchorPoint: "Oblachko" 90 724 basechar 0
AnchorPoint: "Podchashie" 93 720 basechar 0
AnchorPoint: "Zaderzhka" 87 721.9 basechar 0
AnchorPoint: "Ochko" 94 721 basechar 0
AnchorPoint: "Podvertka" 483 226 basechar 0
AnchorPoint: "Borzaya" 279 360 basechar 0
AnchorPoint: "Otsechka" 538 226 basechar 0
AnchorPoint: "Shaidur" 15 342 basechar 0
LayerCount: 3
Fore
SplineSet
61 100 m 5
 82 166 187 208 187 208 c 5
 173 115 l 5
 173 115 54 63 33 0 c 5
 92 620 l 5
 110 620 l 5
 61 100 l 5
389 324 m 5
 411 368 494 411 494 411 c 5
 481 316 l 5
 481 316 399 275 374 226 c 5
 389 324 l 5
236 234 m 5
 258 278 341 321 341 321 c 5
 328 226 l 5
 328 226 246 185 221 136 c 5
 236 234 l 5
EndSplineSet
Position2: "Advance neume with cinnabar mark-1" dx=200 dy=0 dh=0 dv=0
EndChar

StartChar: uniEE77
Encoding: 61047 61047 196
Width: 299
VWidth: 0
GlyphClass: 2
Flags: W
HStem: 0 21G<34.9032 43.5>
VStem: 128 13<213.076 241.652> 138 138<240.9 350.173> 249 12<147.686 185.879>
AnchorPoint: "Zevok" 102 739 basechar 0
AnchorPoint: "Udarka" -61 340 basechar 0
AnchorPoint: "Kupnaya" 103 -108 basechar 0
AnchorPoint: "Kachka" 103 738 basechar 0
AnchorPoint: "Lomka" 104 742 basechar 0
AnchorPoint: "Tikhaya" 60 172.5 basechar 0
AnchorPoint: "Oblachko" 102 742 basechar 0
AnchorPoint: "Podchashie" 105 742 basechar 0
AnchorPoint: "Zaderzhka" 103 739.9 basechar 0
AnchorPoint: "Ochko" 102 741 basechar 0
AnchorPoint: "Podvertka" 257 58 basechar 0
AnchorPoint: "Borzaya" -35 340 basechar 0
AnchorPoint: "Otsechka" 313 143 basechar 0
AnchorPoint: "Shaidur" 15 342 basechar 0
LayerCount: 3
Fore
SplineSet
61 100 m 5x80
 82 166 187 208 187 208 c 5
 173 115 l 5
 173 115 54 63 33 0 c 5
 92 620 l 5
 110 620 l 5
 61 100 l 5x80
261 156 m 6x90
 259 145 247 142 249 160 c 4
 255 223 259 276 204 281 c 4
 183 283 155 279 141 223 c 4
 138 211 126 207 128 219 c 6xd0
 138 292 l 6
 146 353 177 379 215 379 c 4
 273 379 289 306 276 237 c 6xa0
 261 156 l 6x90
EndSplineSet
Position2: "Advance neume with cinnabar mark-1" dx=200 dy=0 dh=0 dv=0
EndChar

StartChar: uniEE7C
Encoding: 61052 61052 197
Width: 239
VWidth: 999
GlyphClass: 2
Flags: W
HStem: 0 21G<5 23.8095 152 168.448> 187 63<63.5891 154.353> 430 20G<42.5657 76.5455>
VStem: 165 18<52.5625 161.109>
AnchorPoint: "Zevok" 127 501 basechar 0
AnchorPoint: "Udarka" 129 503 basechar 0
AnchorPoint: "Kupnaya" 103 -108 basechar 0
AnchorPoint: "Kachka" 129 506 basechar 0
AnchorPoint: "Lomka" 128 503 basechar 0
AnchorPoint: "Tikhaya" 32 103 basechar 0
AnchorPoint: "Oblachko" 129 503 basechar 0
AnchorPoint: "Podchashie" 127 502 basechar 0
AnchorPoint: "Zaderzhka" 127 501.9 basechar 0
AnchorPoint: "Ochko" 128 503 basechar 0
AnchorPoint: "Podvertka" 128 502 basechar 0
AnchorPoint: "Borzaya" 128 503 basechar 0
AnchorPoint: "Otsechka" 230 0 basechar 0
AnchorPoint: "Shaidur" 239 430 basechar 0
LayerCount: 3
Fore
SplineSet
130 395 m 1
 113 296 l 1
 29 351 l 1
 46 450 l 1
 130 395 l 1
240 323 m 1
 223 224 l 1
 139 279 l 1
 156 378 l 1
 240 323 l 1
165 118 m 0
 165 160 151 187 109 187 c 0
 86 187 69 178 59 158 c 0
 49 140 40 108 32 63 c 2
 20 0 l 1
 5 0 l 1
 16 63 l 2
 25 116 27 156 44 198 c 0
 51 215 60 228 72 236 c 1
 83 246 98 250 120 250 c 0
 171 250 183 211 183 156 c 0
 183 129 180 96 175 58 c 2
 165 0 l 1
 152 0 l 1
 160 58 l 2
 163 76 165 93 165 109 c 0
 165 112 165 115 165 118 c 0
EndSplineSet
Position2: "Advance neume with cinnabar mark-1" dx=200 dy=0 dh=0 dv=0
EndChar

StartChar: uniEE70
Encoding: 61040 61040 198
Width: 800
VWidth: 999
GlyphClass: 2
Flags: W
HStem: 0 21G<34.9677 52.779> 460 98<671.698 743.058>
AnchorPoint: "Zevok" 864 646 basechar 0
AnchorPoint: "Udarka" 821 182 basechar 0
AnchorPoint: "Kupnaya" 423 -108 basechar 0
AnchorPoint: "Kachka" 349 556 basechar 0
AnchorPoint: "Lomka" 676 180 basechar 0
AnchorPoint: "Tikhaya" 97 260 basechar 0
AnchorPoint: "Oblachko" 723 645 basechar 0
AnchorPoint: "Podchashie" 453 214 basechar 0
AnchorPoint: "Zaderzhka" 869 483.9 basechar 0
AnchorPoint: "Ochko" 336 433 basechar 0
AnchorPoint: "Podvertka" 763 348 basechar 0
AnchorPoint: "Borzaya" 827 4 basechar 0
AnchorPoint: "Otsechka" 823 308 basechar 0
AnchorPoint: "Shaidur" 15 342 basechar 0
LayerCount: 3
Fore
SplineSet
233 279 m 6
 618 508 l 5
 618 508 705 558 729 558 c 4
 748 558 772 522 779 508 c 5
 762 410 l 5
 755 424 731 460 712 460 c 4
 687 460 597 410 597 410 c 5
 212 181 l 6
 91 109 33 0 33 0 c 5
 94 620 l 5
 112 620 l 5
 62 100 l 5
 85 169 174 244 233 279 c 6
EndSplineSet
Position2: "Advance neume with cinnabar mark-1" dx=200 dy=0 dh=0 dv=0
EndChar

StartChar: uniEE85
Encoding: 61061 61061 199
Width: 780
VWidth: 0
GlyphClass: 2
Flags: W
HStem: 0 21G<3.06122 14> 460 98<636.698 708.058>
AnchorPoint: "Zevok" 883 654 basechar 0
AnchorPoint: "Udarka" 375 686 basechar 0
AnchorPoint: "Kupnaya" 421 -108 basechar 0
AnchorPoint: "Kachka" 377 686 basechar 0
AnchorPoint: "Lomka" 722 126 basechar 0
AnchorPoint: "Tikhaya" 92 255 basechar 0
AnchorPoint: "Oblachko" 703 651 basechar 0
AnchorPoint: "Podchashie" 375 687 basechar 0
AnchorPoint: "Zaderzhka" 885 515.9 basechar 0
AnchorPoint: "Ochko" 376 687 basechar 0
AnchorPoint: "Podvertka" 753 302 basechar 0
AnchorPoint: "Borzaya" 59 466 basechar 0
AnchorPoint: "Otsechka" 809 302 basechar 0
AnchorPoint: "Shaidur" 193 468 basechar 0
LayerCount: 3
Fore
SplineSet
15 98 m 5
 37 167 139 244 198 279 c 6
 583 508 l 5
 583 508 670 558 694 558 c 4
 713 558 737 522 744 508 c 5
 727 410 l 5
 720 424 696 460 677 460 c 4
 652 460 562 410 562 410 c 5
 177 181 l 6
 113 143 28 84 0 0 c 5
 15 98 l 5
338 196 m 5
 360 240 443 283 443 283 c 5
 430 188 l 5
 430 188 348 147 323 98 c 5
 338 196 l 5
490 288 m 5
 512 332 595 375 595 375 c 5
 582 280 l 5
 582 280 500 239 475 190 c 5
 490 288 l 5
185 106 m 5
 207 150 290 193 290 193 c 5
 277 98 l 5
 277 98 195 57 170 8 c 5
 185 106 l 5
EndSplineSet
Position2: "Advance neume with cinnabar mark-1" dx=200 dy=0 dh=0 dv=0
EndChar

StartChar: uniEE80
Encoding: 61056 61056 200
Width: 274
VWidth: 999
GlyphClass: 2
Flags: W
HStem: 0 98<37.9071 166.492>
AnchorPoint: "Zevok" 105 649 basechar 0
AnchorPoint: "Udarka" 107 654 basechar 0
AnchorPoint: "Kupnaya" 113 -108 basechar 0
AnchorPoint: "Kachka" 107 648 basechar 0
AnchorPoint: "Lomka" 104 649 basechar 0
AnchorPoint: "Tikhaya" 104 649 basechar 0
AnchorPoint: "Oblachko" 103 653 basechar 0
AnchorPoint: "Podchashie" 107 650 basechar 0
AnchorPoint: "Zaderzhka" 104 650.9 basechar 0
AnchorPoint: "Ochko" 104 650 basechar 0
AnchorPoint: "Podvertka" 103 648 basechar 0
AnchorPoint: "Borzaya" 105 650 basechar 0
AnchorPoint: "Otsechka" 281 0 basechar 0
AnchorPoint: "Shaidur" 15 342 basechar 0
LayerCount: 3
Fore
SplineSet
2 190 m 1
 2 128 58 98 108 98 c 0
 159 98 216 128 222 173 c 0
 231 238 155 302 117 359 c 0
 96 390 83 446 93 482 c 2
 114 558 l 1
 106 524 120 480 134 458 c 0
 221 326 283 302 238 111 c 0
 223 47 152 0 91 0 c 0
 43 0 -18 27 -18 97 c 1
 2 190 l 1
EndSplineSet
Position2: "Advance neume with cinnabar mark-1" dx=200 dy=0 dh=0 dv=0
EndChar

StartChar: uniEEA2
Encoding: 61090 61090 201
Width: 719
VWidth: 0
GlyphClass: 2
Flags: W
HStem: 0 21G<184 220> 218 100<584.384 664.633>
VStem: 547 14<147.635 180.913> 674 29<116.875 203.867>
AnchorPoint: "Zevok" 546 538 basechar 0
AnchorPoint: "Udarka" 544 536 basechar 0
AnchorPoint: "Kupnaya" 387 -115 basechar 0
AnchorPoint: "Kachka" 544 536 basechar 0
AnchorPoint: "Lomka" 544 538 basechar 0
AnchorPoint: "Tikhaya" 544 534.5 basechar 0
AnchorPoint: "Oblachko" 542 537 basechar 0
AnchorPoint: "Podchashie" 544 537 basechar 0
AnchorPoint: "Zaderzhka" 545 537.9 basechar 0
AnchorPoint: "Ochko" 542 537 basechar 0
AnchorPoint: "Podvertka" 545 536 basechar 0
AnchorPoint: "Borzaya" 543 538 basechar 0
AnchorPoint: "Otsechka" 646 391 basechar 0
AnchorPoint: "Shaidur" 545 534 basechar 0
LayerCount: 3
Fore
SplineSet
674 140 m 0
 674 184 667 218 625 218 c 0
 598 218 584 212 574 192 c 1
 568 184 564 172 561 158 c 0
 560 152 556 148 551 146 c 1
 547 146 546 148 547 154 c 2
 558 228 l 1
 564 280 587 318 636 318 c 0
 683 318 703 272 703 224 c 0
 703 208 702 190 699 172 c 2
 683 88 l 2
 682 84 678 82 674 80 c 1
 671 80 671 86 671 94 c 0
 671 110 674 126 674 140 c 0
450 380 m 1
 460 414 499 444 528 462 c 0
 546 472 566 484 589 492 c 1
 573 392 l 1
 550 384 529 372 510 360 c 0
 481 342 443 314 432 278 c 1
 450 380 l 1
389 186 m 1
 399 220 437 250 466 266 c 1
 484 278 505 288 528 296 c 1
 511 198 l 1
 488 190 468 178 449 166 c 0
 433 156 416 142 402 128 c 1
 386 116 375 100 370 84 c 1
 389 186 l 1
76 245 m 1
 40 234 26 214 18 174 c 1
 32 273 l 1
 38 307 46 332 76 342 c 1
 84 409 114 477 146 520 c 0
 162 542 174 558 186 568 c 1
 202 585 l 1
 220 568 l 2
 252 537 280 490 302 444 c 0
 316 414 324 380 330 343 c 1
 366 354 380 375 390 415 c 1
 374 316 l 2
 368 280 360 258 330 246 c 1
 324 209 316 175 302 144 c 0
 280 96 252 49 220 18 c 2
 202 0 l 1
 184 18 l 2
 154 48 125 97 104 144 c 0
 90 175 80 208 76 245 c 1
244 78 m 1
 256 129 270 182 270 242 c 0
 270 306 264 340 240 384 c 1
 218 431 192 468 160 506 c 1
 152 477 148 449 144 422 c 0
 140 399 136 374 136 346 c 0
 136 320 136 295 142 272 c 0
 160 193 204 134 244 78 c 1
EndSplineSet
Position2: "Advance neume with cinnabar mark-1" dx=200 dy=0 dh=0 dv=0
EndChar

StartChar: uniEEA3
Encoding: 61091 61091 202
Width: 663
VWidth: 0
GlyphClass: 2
Flags: W
HStem: 0 21G<25 50 250 275> 218 100<534.384 614.633>
VStem: 25 25<0 205 291 406 493 585> 250 25<0 89 175 291 378 585> 497 14<147.635 180.913> 621 12<81.6357 124.75> 624 29<116.875 203.867>
AnchorPoint: "Zevok" 496 538 basechar 0
AnchorPoint: "Udarka" 494 536 basechar 0
AnchorPoint: "Kupnaya" 387 -115 basechar 0
AnchorPoint: "Kachka" 494 536 basechar 0
AnchorPoint: "Lomka" 494 538 basechar 0
AnchorPoint: "Tikhaya" 494 534.5 basechar 0
AnchorPoint: "Oblachko" 492 537 basechar 0
AnchorPoint: "Podchashie" 494 537 basechar 0
AnchorPoint: "Zaderzhka" 495 537.9 basechar 0
AnchorPoint: "Ochko" 492 537 basechar 0
AnchorPoint: "Podvertka" 495 536 basechar 0
AnchorPoint: "Borzaya" 493 538 basechar 0
AnchorPoint: "Otsechka" 596 391 basechar 0
AnchorPoint: "Shaidur" 495 534 basechar 0
LayerCount: 3
Fore
SplineSet
275 0 m 1xf8
 250 0 l 1
 250 89 l 1
 50 205 l 1
 50 0 l 1
 25 0 l 1
 25 585 l 1
 50 585 l 1
 50 493 l 1
 250 378 l 1
 250 585 l 1
 275 585 l 1
 275 0 l 1xf8
250 175 m 1
 250 291 l 1
 50 406 l 1
 50 291 l 1
 250 175 l 1
624 140 m 4xfa
 624 184 617 218 575 218 c 4
 548 218 534 212 524 192 c 5
 518 184 514 172 511 158 c 4
 510 152 506 148 501 146 c 5
 497 146 496 148 497 154 c 6
 508 228 l 5
 514 280 537 318 586 318 c 4
 633 318 653 272 653 224 c 4xfa
 653 208 652 190 649 172 c 6
 633 88 l 6xfc
 632 84 628 82 624 80 c 5xfa
 621 80 621 86 621 94 c 4xfc
 621 110 624 126 624 140 c 4xfa
400 380 m 5
 410 414 449 444 478 462 c 4
 496 472 516 484 539 492 c 5
 523 392 l 5
 500 384 479 372 460 360 c 4
 431 342 393 314 382 278 c 5
 400 380 l 5
339 186 m 5
 349 220 387 250 416 266 c 5
 434 278 455 288 478 296 c 5
 461 198 l 5
 438 190 418 178 399 166 c 4
 383 156 366 142 352 128 c 5
 336 116 325 100 320 84 c 5
 339 186 l 5
EndSplineSet
Position2: "Advance neume with cinnabar mark-1" dx=200 dy=0 dh=0 dv=0
EndChar

StartChar: uniEE87
Encoding: 61063 61063 203
Width: 244
VWidth: 999
GlyphClass: 2
Flags: W
HStem: 0 224
VStem: 17 202
AnchorPoint: "Zevok" 100 259 basechar 0
AnchorPoint: "Udarka" 99.5 258.5 basechar 0
AnchorPoint: "Kupnaya" 146 -25 basechar 0
AnchorPoint: "Kachka" 100 259 basechar 0
AnchorPoint: "Lomka" 100 259 basechar 0
AnchorPoint: "Tikhaya" 62 110.5 basechar 0
AnchorPoint: "Oblachko" 100 258.5 basechar 0
AnchorPoint: "Podchashie" 98.5 259 basechar 0
AnchorPoint: "Zaderzhka" 266.5 34.4 basechar 0
AnchorPoint: "Ochko" 99.5 259.5 basechar 0
AnchorPoint: "Podvertka" 100.5 259.5 basechar 0
AnchorPoint: "Borzaya" -22 34 basechar 0
AnchorPoint: "Otsechka" 266.5 34.5 basechar 0
AnchorPoint: "Shaidur" 58 258 basechar 0
LayerCount: 3
Fore
SplineSet
114 99 m 1
 97 0 l 1
 17 125 l 1
 34 224 l 1
 114 99 l 1
219 99 m 1
 202 0 l 1
 122 125 l 1
 139 224 l 1
 219 99 l 1
EndSplineSet
Position2: "Advance neume with cinnabar mark-1" dx=200 dy=0 dh=0 dv=0
EndChar

StartChar: uniEE89
Encoding: 61065 61065 204
Width: 193
VWidth: 999
GlyphClass: 2
Flags: W
HStem: 0 21G<52 72.9286> 300 95<108.547 160>
VStem: 21 152
AnchorPoint: "Zevok" 114 661 basechar 0
AnchorPoint: "Udarka" 114 661 basechar 0
AnchorPoint: "Kupnaya" 70 -108 basechar 0
AnchorPoint: "Kachka" 117 658 basechar 0
AnchorPoint: "Lomka" 114 658 basechar 0
AnchorPoint: "Tikhaya" 117 660 basechar 0
AnchorPoint: "Oblachko" 114 660 basechar 0
AnchorPoint: "Podchashie" 115 662 basechar 0
AnchorPoint: "Zaderzhka" 115 659.9 basechar 0
AnchorPoint: "Ochko" 118 659 basechar 0
AnchorPoint: "Podvertka" 117 662 basechar 0
AnchorPoint: "Borzaya" 117 662 basechar 0
AnchorPoint: "Otsechka" 190 0 basechar 0
AnchorPoint: "Shaidur" 15 492 basechar 0
LayerCount: 3
Fore
SplineSet
88 368 m 5
 109 582 l 5
 128 582 l 5
 107 373 l 5
 140 387 173 395 173 395 c 5
 160 300 l 5
 160 300 130 293 98 280 c 5
 71 0 l 5
 52 0 l 5
 79 273 l 5
 55 262 32 248 21 228 c 5
 36 326 l 5
 44 351 65 357 88 368 c 5
EndSplineSet
Position2: "Advance neume with cinnabar mark-1" dx=200 dy=0 dh=0 dv=0
EndChar

StartChar: uniEE71
Encoding: 61041 61041 205
Width: 775
GlyphClass: 2
Flags: W
HStem: 0 21G<34.9677 52.779 374 398.295> 460 98<671.698 743.058>
VStem: 374 22<0 61>
LayerCount: 3
Fore
SplineSet
408 297 m 6
 212 181 l 6
 91 109 33 0 33 0 c 5
 94 620 l 5
 112 620 l 5
 62 100 l 5
 85 169 174 244 233 279 c 6
 618 508 l 5
 618 508 705 558 729 558 c 4
 748 558 772 522 779 508 c 5
 762 410 l 5
 755 424 731 460 712 460 c 4
 687 460 597 410 597 410 c 5
 431 305 l 5
 396 0 l 5
 374 0 l 5
 374 0 408 298 408 297 c 6
EndSplineSet
Position2: "Advance neume with cinnabar mark-1" dx=200 dy=0 dh=0 dv=0
EndChar

StartChar: uniEE72
Encoding: 61042 61042 206
Width: 803
VWidth: 999
GlyphClass: 2
Flags: W
HStem: 0 21G<39.9931 57.779> 460 98<676.698 748.058> 540 99<107.837 198.888>
AnchorPoint: "Zevok" 863 645 basechar 0
AnchorPoint: "Udarka" -101 456 basechar 0
AnchorPoint: "Kupnaya" 454 -108 basechar 0
AnchorPoint: "Kachka" 349 556 basechar 0
AnchorPoint: "Lomka" 722 126 basechar 0
AnchorPoint: "Tikhaya" 97 260 basechar 0
AnchorPoint: "Oblachko" 723 645 basechar 0
AnchorPoint: "Podchashie" 453 214 basechar 0
AnchorPoint: "Zaderzhka" 869 483.9 basechar 0
AnchorPoint: "Ochko" 336 433 basechar 0
AnchorPoint: "Podvertka" 767 330 basechar 0
AnchorPoint: "Borzaya" 831 20 basechar 0
AnchorPoint: "Otsechka" 837 286 basechar 0
AnchorPoint: "Shaidur" -2.00003 458 basechar 0
LayerCount: 3
Fore
SplineSet
76 388 m 5xc0
 99 620 l 5
 99 620 129 639 160 639 c 4
 184 639 201 637 213 624 c 5
 196 525 l 5
 184 538 167 540 143 540 c 4xa0
 121 540 108 528 108 528 c 5
 67 100 l 5
 90 169 179 244 238 279 c 6
 623 508 l 5
 623 508 710 558 734 558 c 4
 753 558 777 522 784 508 c 5
 767 410 l 5
 760 424 736 460 717 460 c 4
 692 460 602 410 602 410 c 5
 217 181 l 6
 96 109 38 0 38 0 c 5
 67 291 l 5
 26 280 13 262 2 218 c 5
 19 317 l 6
 25 352 37 377 76 388 c 5xc0
EndSplineSet
Position2: "Advance neume with cinnabar mark-1" dx=200 dy=0 dh=0 dv=0
EndChar

StartChar: uniEE84
Encoding: 61060 61060 207
Width: 780
VWidth: 0
GlyphClass: 2
Flags: W
HStem: 0 21G<3.06122 14> 460 98<636.698 708.058>
AnchorPoint: "Zevok" 883 654 basechar 0
AnchorPoint: "Udarka" 375 686 basechar 0
AnchorPoint: "Kupnaya" 421 -108 basechar 0
AnchorPoint: "Kachka" 377 686 basechar 0
AnchorPoint: "Lomka" 722 126 basechar 0
AnchorPoint: "Tikhaya" 92 255 basechar 0
AnchorPoint: "Oblachko" 703 651 basechar 0
AnchorPoint: "Podchashie" 375 687 basechar 0
AnchorPoint: "Zaderzhka" 885 515.9 basechar 0
AnchorPoint: "Ochko" 376 687 basechar 0
AnchorPoint: "Podvertka" 753 302 basechar 0
AnchorPoint: "Borzaya" 59 466 basechar 0
AnchorPoint: "Otsechka" 809 302 basechar 0
AnchorPoint: "Shaidur" 193 468 basechar 0
LayerCount: 3
Fore
SplineSet
15 98 m 5
 37 167 139 244 198 279 c 6
 583 508 l 5
 583 508 670 558 694 558 c 4
 713 558 737 522 744 508 c 5
 727 410 l 5
 720 424 696 460 677 460 c 4
 652 460 562 410 562 410 c 5
 177 181 l 6
 113 143 28 84 0 0 c 5
 15 98 l 5
428 240 m 5
 450 284 533 327 533 327 c 5
 520 232 l 5
 520 232 438 191 413 142 c 5
 428 240 l 5
275 150 m 5
 297 194 380 237 380 237 c 5
 367 142 l 5
 367 142 285 101 260 52 c 5
 275 150 l 5
EndSplineSet
Position2: "Advance neume with cinnabar mark-1" dx=200 dy=0 dh=0 dv=0
EndChar

StartChar: uniEE8C
Encoding: 61068 61068 208
Width: 1086
GlyphClass: 2
Flags: W
HStem: 0 46<153 270.543 697.619 875.245> 417 46<710.61 844.521> 424 41<186.959 349.657>
VStem: 0 111<140.207 304.26> 940 110<166.25 324.7>
LayerCount: 3
Fore
SplineSet
827 463 m 0xd8
 953 463 1050 398 1050 277 c 0
 1050 196 1021 129 964 78 c 0
 907 26 840 0 763 0 c 0
 743 0 723 2 703 6 c 1
 680 9 663 17 653 32 c 1
 732 68 l 1
 749 49 778 40 820 40 c 1
 835 40 846 42 854 47 c 0
 919 86 940 131 940 231 c 0
 940 234 940 237 940 240 c 0
 940 287 924 327 891 362 c 0
 858 397 817 417 767 417 c 0
 766 417 765 417 764 417 c 0xd8
 731 417 684 404 624 378 c 1
 579 357 533 335 488 313 c 1
 447 348 413 373 384 388 c 0
 339 412 291 424 240 424 c 0
 197 424 164 400 139 351 c 1
 120 315 111 277 111 239 c 0
 111 194 124 150 148 112 c 0
 177 68 215 46 262 46 c 0
 288 46 323 65 346 74 c 1
 349 65 l 1
 309 42 282 28 269 21 c 0
 238 7 207 0 178 0 c 0
 128 0 85 23 49 69 c 0
 16 112 0 156 0 203 c 0
 0 276 29 338 86 387 c 0
 145 439 222 465 317 465 c 0xb8
 405 465 485 436 558 379 c 1
 623 408 667 426 688 434 c 0
 741 453 788 463 827 463 c 0xd8
EndSplineSet
Position2: "Advance neume with cinnabar mark-1" dx=200 dy=0 dh=0 dv=0
EndChar

StartChar: uniEE8E
Encoding: 61070 61070 209
Width: 440
VWidth: 0
GlyphClass: 2
Flags: W
HStem: 0 21G<8.6 15.5>
VStem: 183 12<451.695 483.832> 196 121<529 624.23> 295 11<498.374 537.976>
AnchorPoint: "Zevok" 282 740 basechar 0
AnchorPoint: "Udarka" 282 742 basechar 0
AnchorPoint: "Kupnaya" 233 -115 basechar 0
AnchorPoint: "Kachka" 283 736 basechar 0
AnchorPoint: "Lomka" 285 740 basechar 0
AnchorPoint: "Tikhaya" 288 736.5 basechar 0
AnchorPoint: "Oblachko" 286 739 basechar 0
AnchorPoint: "Podchashie" 284 741 basechar 0
AnchorPoint: "Zaderzhka" 285 739.9 basechar 0
AnchorPoint: "Ochko" 282 737 basechar 0
AnchorPoint: "Podvertka" 285 738 basechar 0
AnchorPoint: "Borzaya" 285 738 basechar 0
AnchorPoint: "Otsechka" 284 735 basechar 0
AnchorPoint: "Shaidur" 91 470 basechar 0
LayerCount: 3
Fore
SplineSet
23 100 m 5xc0
 44 166 159 208 159 208 c 5
 143 112 l 5
 143 112 26 63 5 0 c 5
 23 100 l 5xc0
83 290 m 5
 104 356 219 398 219 398 c 5
 203 302 l 5
 203 302 86 253 65 190 c 5
 83 290 l 5
286 253 m 5
 416 123 l 5
 399 24 l 5
 269 154 l 5
 286 253 l 5
261 443 m 5
 391 313 l 5
 374 214 l 5
 244 344 l 5
 261 443 l 5
306 505 m 6xd0
 304 496 294 493 295 509 c 4xd0
 298 548 294 571 256 572 c 4
 223 573 208 517 195 460 c 4
 192 449 181 446 183 456 c 6
 196 543 l 6
 204 603 222 666 271 661 c 4
 317 657 326 625 317 571 c 6xe0
 306 505 l 6xd0
EndSplineSet
Position2: "Advance neume with cinnabar mark-1" dx=200 dy=0 dh=0 dv=0
EndChar

StartChar: uniEE8F
Encoding: 61071 61071 210
Width: 224
VWidth: 999
GlyphClass: 2
Flags: W
HStem: 0 21G<8.6 15.5>
VStem: 5 214
AnchorPoint: "Zevok" 114 449 basechar 0
AnchorPoint: "Udarka" 116 452 basechar 0
AnchorPoint: "Kupnaya" 103 -108 basechar 0
AnchorPoint: "Kachka" 115 452 basechar 0
AnchorPoint: "Lomka" 116 450 basechar 0
AnchorPoint: "Tikhaya" 62 110.5 basechar 0
AnchorPoint: "Oblachko" 116 449 basechar 0
AnchorPoint: "Podchashie" 116 451 basechar 0
AnchorPoint: "Zaderzhka" 117 447.9 basechar 0
AnchorPoint: "Ochko" 338 384 basechar 0
AnchorPoint: "Podvertka" 116 452 basechar 0
AnchorPoint: "Borzaya" 118 450 basechar 0
AnchorPoint: "Otsechka" 222 117 basechar 0
AnchorPoint: "Shaidur" 10 187 basechar 0
LayerCount: 3
Fore
SplineSet
23 100 m 5
 44 166 159 208 159 208 c 5
 143 112 l 5
 143 112 26 63 5 0 c 5
 23 100 l 5
83 290 m 5
 104 356 219 398 219 398 c 5
 203 302 l 5
 203 302 86 253 65 190 c 5
 83 290 l 5
EndSplineSet
Position2: "Advance neume with cinnabar mark-1" dx=200 dy=0 dh=0 dv=0
EndChar

StartChar: uniEE8D
Encoding: 61069 61069 211
Width: 164
VWidth: 999
GlyphClass: 2
Flags: W
HStem: 0 21G<99.863 133.434>
VStem: 20 127
AnchorPoint: "Zevok" 112.5 601.8 basechar 0
AnchorPoint: "Udarka" 111 605 basechar 0
AnchorPoint: "Kupnaya" 83 -115 basechar 0
AnchorPoint: "Kachka" 115 606 basechar 0
AnchorPoint: "Lomka" 114 605 basechar 0
AnchorPoint: "Tikhaya" 114 605.5 basechar 0
AnchorPoint: "Oblachko" 114 606 basechar 0
AnchorPoint: "Podchashie" 112 605 basechar 0
AnchorPoint: "Zaderzhka" 114 605.9 basechar 0
AnchorPoint: "Ochko" 112 603 basechar 0
AnchorPoint: "Podvertka" 114 602 basechar 0
AnchorPoint: "Borzaya" 117 606 basechar 0
AnchorPoint: "Otsechka" 116 603 basechar 0
AnchorPoint: "Shaidur" 115 604 basechar 0
LayerCount: 3
Fore
SplineSet
37 172 m 5
 147 99 l 5
 130 0 l 5
 20 73 l 5
 37 172 l 5
37 357 m 5
 147 284 l 5
 130 185 l 5
 20 258 l 5
 37 357 l 5
37 542 m 5
 147 469 l 5
 130 370 l 5
 20 443 l 5
 37 542 l 5
EndSplineSet
Position2: "Advance neume with cinnabar mark-1" dx=200 dy=0 dh=0 dv=0
EndChar

StartChar: uniEE8A
Encoding: 61066 61066 212
Width: 240
VWidth: 999
GlyphClass: 2
Flags: W
HStem: 0 98<48.5 133.189> 523 99<94.6395 173.5>
VStem: 20 194
AnchorPoint: "Zevok" 173 685 basechar 0
AnchorPoint: "Udarka" 174 685 basechar 0
AnchorPoint: "Kupnaya" 119 -115 basechar 0
AnchorPoint: "Kachka" 169 684 basechar 0
AnchorPoint: "Lomka" 175 685 basechar 0
AnchorPoint: "Tikhaya" 174 684.5 basechar 0
AnchorPoint: "Oblachko" 176 681 basechar 0
AnchorPoint: "Podchashie" 174 679 basechar 0
AnchorPoint: "Zaderzhka" 175 684.9 basechar 0
AnchorPoint: "Ochko" 176 681 basechar 0
AnchorPoint: "Podvertka" 177 677 basechar 0
AnchorPoint: "Borzaya" 175 680 basechar 0
AnchorPoint: "Otsechka" 176 677 basechar 0
AnchorPoint: "Shaidur" 177 678 basechar 0
LayerCount: 3
Fore
SplineSet
116 368 m 5
 134 428 l 6
 150 480 164 523 121 523 c 4
 66 523 43 488 20 443 c 5
 54 542 l 5
 77 587 100 622 155 622 c 4
 192 622 203 581 187 527 c 6
 140 377 l 5
 169 395 194 407 194 407 c 5
 164 312 l 5
 164 312 139 300 111 282 c 5
 80 183 l 6
 68 147 63 98 107 98 c 4
 170 98 214 184 214 184 c 5
 188 99 l 6
 172 46 125 0 72 0 c 4
 25 0 17 50 29 90 c 6
 86 273 l 5
 65 258 45 241 31 222 c 5
 63 320 l 5
 74 337 95 353 116 368 c 5
EndSplineSet
Position2: "Advance neume with cinnabar mark-1" dx=200 dy=0 dh=0 dv=0
EndChar

StartChar: uniEE8B
Encoding: 61067 61067 213
Width: 296
VWidth: 999
GlyphClass: 2
Flags: W
HStem: 275 24<66 196>
VStem: 0 261<275.939 469>
AnchorPoint: "Zevok" 143 659 basechar 0
AnchorPoint: "Udarka" 144 664 basechar 0
AnchorPoint: "Kupnaya" 133 -115 basechar 0
AnchorPoint: "Kachka" 143 664 basechar 0
AnchorPoint: "Lomka" 144 662 basechar 0
AnchorPoint: "Tikhaya" 142 664.5 basechar 0
AnchorPoint: "Oblachko" 144 659 basechar 0
AnchorPoint: "Podchashie" 146 665 basechar 0
AnchorPoint: "Zaderzhka" 148 663.9 basechar 0
AnchorPoint: "Ochko" 142 659 basechar 0
AnchorPoint: "Podvertka" 144 653 basechar 0
AnchorPoint: "Borzaya" 145 656 basechar 0
AnchorPoint: "Otsechka" 146 657 basechar 0
AnchorPoint: "Shaidur" 145 656 basechar 0
LayerCount: 3
Fore
SplineSet
130 585 m 5
 131 586 262 469 261 292 c 4
 260 117 131 -1 130 0 c 5
 129 -1 0 119 0 292 c 4
 0 471 129 586 130 585 c 5
196 299 m 5
 188 368 129 457 88 506 c 5
 88 506 57 388 65 299 c 5
 196 299 l 5
66 275 m 5
 83 197 126 136 173 78 c 5
 173 78 204 185 197 275 c 5
 66 275 l 5
EndSplineSet
Position2: "Advance neume with cinnabar mark-1" dx=200 dy=0 dh=0 dv=0
EndChar

StartChar: uniEE73
Encoding: 61043 61043 214
Width: 784
VWidth: 999
GlyphClass: 2
Flags: W
HStem: 0 21G<34.9677 52.779> 460 98<671.698 743.058>
AnchorPoint: "Zevok" 864 648 basechar 0
AnchorPoint: "Udarka" -66 346 basechar 0
AnchorPoint: "Kupnaya" 430 -105 basechar 0
AnchorPoint: "Kachka" 479 648 basechar 0
AnchorPoint: "Lomka" 723 54 basechar 0
AnchorPoint: "Tikhaya" 62 229.5 basechar 0
AnchorPoint: "Oblachko" 722 649 basechar 0
AnchorPoint: "Podchashie" 432 225 basechar 0
AnchorPoint: "Zaderzhka" 869 483.9 basechar 0
AnchorPoint: "Ochko" 434 223 basechar 0
AnchorPoint: "Podvertka" 761 320 basechar 0
AnchorPoint: "Borzaya" 819 50 basechar 0
AnchorPoint: "Otsechka" 824 315 basechar 0
AnchorPoint: "Shaidur" 7 348 basechar 0
LayerCount: 3
Fore
SplineSet
335 338 m 5
 395 375 l 5
 419 620 l 5
 438 620 l 5
 415 385 l 5
 618 508 l 5
 618 508 705 558 729 558 c 4
 748 558 772 522 779 508 c 5
 762 410 l 5
 755 424 731 460 712 460 c 4
 687 460 597 410 597 410 c 5
 212 181 l 6
 91 109 33 0 33 0 c 5
 94 620 l 5
 112 620 l 5
 62 100 l 5
 85 169 174 244 233 279 c 6
 315 328 l 5
 344 620 l 5
 363 620 l 5
 335 338 l 5
EndSplineSet
Position2: "Advance neume with cinnabar mark-1" dx=200 dy=0 dh=0 dv=0
EndChar

StartChar: uniEE95
Encoding: 61077 61077 215
Width: 894
VWidth: 999
GlyphClass: 2
Flags: W
HStem: 0 21G<153.061 164 494 518.357> 460 98<786.698 858.058>
AnchorPoint: "Zevok" 989 639 basechar 0
AnchorPoint: "Udarka" -54 342 basechar 0
AnchorPoint: "Kupnaya" 499 -115 basechar 0
AnchorPoint: "Kachka" 431 556 basechar 0
AnchorPoint: "Lomka" 854 52 basechar 0
AnchorPoint: "Tikhaya" 270 170.5 basechar 0
AnchorPoint: "Oblachko" 832 639 basechar 0
AnchorPoint: "Podchashie" 874 340 basechar 0
AnchorPoint: "Zaderzhka" 997 483.9 basechar 0
AnchorPoint: "Ochko" 429 450 basechar 0
AnchorPoint: "Podvertka" 870 341 basechar 0
AnchorPoint: "Borzaya" -55 146 basechar 0
AnchorPoint: "Otsechka" 920 349 basechar 0
AnchorPoint: "Shaidur" 99 368 basechar 0
LayerCount: 3
Fore
SplineSet
529 301 m 5
 327 181 l 6
 263 143 178 84 150 0 c 5
 165 98 l 5
 187 167 289 244 348 279 c 6
 733 508 l 5
 733 508 820 558 844 558 c 4
 863 558 887 522 894 508 c 5
 877 410 l 5
 870 424 846 460 827 460 c 4
 802 460 712 410 712 410 c 5
 553 314 l 5
 516 0 l 5
 494 0 l 5
 529 301 l 5
33 140 m 5
 54 206 169 248 169 248 c 5
 153 152 l 5
 153 152 36 103 15 40 c 5
 33 140 l 5
-27 -50 m 5
 -6 16 109 58 109 58 c 5
 93 -38 l 5
 93 -38 -24 -87 -45 -150 c 5
 -27 -50 l 5
EndSplineSet
Position2: "Advance neume with cinnabar mark-1" dx=200 dy=0 dh=0 dv=0
EndChar

StartChar: uniEE96
Encoding: 61078 61078 216
Width: 925
VWidth: 0
GlyphClass: 2
Flags: W
HStem: 0 21G<153.061 164 512.875 532> 460 98<786.698 858.058>
AnchorPoint: "Zevok" 1006 654 basechar 0
AnchorPoint: "Udarka" -56 454 basechar 0
AnchorPoint: "Kupnaya" 499 -115 basechar 0
AnchorPoint: "Kachka" 439 556 basechar 0
AnchorPoint: "Lomka" 887 52 basechar 0
AnchorPoint: "Tikhaya" 288 194.5 basechar 0
AnchorPoint: "Oblachko" 854 655 basechar 0
AnchorPoint: "Podchashie" 468 609 basechar 0
AnchorPoint: "Zaderzhka" 1009 483.9 basechar 0
AnchorPoint: "Ochko" 442 457 basechar 0
AnchorPoint: "Podvertka" 893 350 basechar 0
AnchorPoint: "Borzaya" -61 208 basechar 0
AnchorPoint: "Otsechka" 944 357 basechar 0
AnchorPoint: "Shaidur" 153 324 basechar 0
LayerCount: 3
Fore
SplineSet
-27 -50 m 1
 -6 16 109 58 109 58 c 1
 93 -38 l 1
 93 -38 -24 -87 -45 -150 c 1
 -27 -50 l 1
33 140 m 1
 54 206 169 248 169 248 c 1
 153 152 l 1
 153 152 36 103 15 40 c 1
 33 140 l 1
165 98 m 1
 187 167 289 244 348 279 c 2
 733 508 l 1
 733 508 820 558 844 558 c 0
 863 558 887 522 894 508 c 1
 877 410 l 1
 870 424 846 460 827 460 c 0
 802 460 712 410 712 410 c 1
 327 181 l 2
 263 143 178 84 150 0 c 1
 165 98 l 1
486 141 m 1
 494 157 511 173 529 187 c 1
 537 264 l 1
 558 275 l 1
 551 203 l 1
 575 218 596 229 596 229 c 1
 583 134 l 1
 583 134 564 125 542 110 c 1
 532 11 l 1
 511 0 l 1
 520 96 l 1
 500 81 481 62 471 43 c 1
 486 141 l 1
EndSplineSet
Position2: "Advance neume with cinnabar mark-1" dx=200 dy=0 dh=0 dv=0
EndChar

StartChar: uniEE91
Encoding: 61073 61073 217
Width: 323
VWidth: 999
GlyphClass: 2
Flags: W
HStem: 0 21G<8.6 15.5 229.875 249>
VStem: 5 308
AnchorPoint: "Zevok" 228 464 basechar 0
AnchorPoint: "Udarka" 229 464 basechar 0
AnchorPoint: "Kupnaya" 193 -108 basechar 0
AnchorPoint: "Kachka" 228 465 basechar 0
AnchorPoint: "Lomka" 229 464 basechar 0
AnchorPoint: "Tikhaya" 62 110.5 basechar 0
AnchorPoint: "Oblachko" 230 464 basechar 0
AnchorPoint: "Podchashie" 228 464 basechar 0
AnchorPoint: "Zaderzhka" 228 463.9 basechar 0
AnchorPoint: "Ochko" 229 464 basechar 0
AnchorPoint: "Podvertka" 229 464 basechar 0
AnchorPoint: "Borzaya" 229 464 basechar 0
AnchorPoint: "Otsechka" 379 93 basechar 0
AnchorPoint: "Shaidur" 13 187 basechar 0
LayerCount: 3
Fore
SplineSet
203 141 m 1
 211 157 228 173 246 187 c 1
 254 264 l 1
 275 275 l 1
 268 203 l 1
 292 218 313 229 313 229 c 1
 300 134 l 1
 300 134 281 125 259 110 c 1
 249 11 l 1
 228 0 l 1
 237 96 l 1
 217 81 198 62 188 43 c 1
 203 141 l 1
23 100 m 1
 44 166 159 208 159 208 c 1
 143 112 l 1
 143 112 26 63 5 0 c 1
 23 100 l 1
83 290 m 1
 104 356 219 398 219 398 c 1
 203 302 l 1
 203 302 86 253 65 190 c 1
 83 290 l 1
EndSplineSet
Position2: "Advance neume with cinnabar mark-1" dx=200 dy=0 dh=0 dv=0
EndChar

StartChar: uniEE94
Encoding: 61076 61076 218
Width: 894
VWidth: 999
GlyphClass: 2
Flags: W
HStem: 0 21G<153.061 164> 460 98<786.698 858.058>
AnchorPoint: "Zevok" 989 639 basechar 0
AnchorPoint: "Udarka" -54 342 basechar 0
AnchorPoint: "Kupnaya" 499 -115 basechar 0
AnchorPoint: "Kachka" 431 556 basechar 0
AnchorPoint: "Lomka" 854 52 basechar 0
AnchorPoint: "Tikhaya" 270 170.5 basechar 0
AnchorPoint: "Oblachko" 832 639 basechar 0
AnchorPoint: "Podchashie" 535 166 basechar 0
AnchorPoint: "Zaderzhka" 997 483.9 basechar 0
AnchorPoint: "Ochko" 429 450 basechar 0
AnchorPoint: "Podvertka" 870 341 basechar 0
AnchorPoint: "Borzaya" -55 146 basechar 0
AnchorPoint: "Otsechka" 920 349 basechar 0
AnchorPoint: "Shaidur" 99 368 basechar 0
LayerCount: 3
Fore
SplineSet
-27 -50 m 5
 -6 16 109 58 109 58 c 5
 93 -38 l 5
 93 -38 -24 -87 -45 -150 c 5
 -27 -50 l 5
33 140 m 5
 54 206 169 248 169 248 c 5
 153 152 l 5
 153 152 36 103 15 40 c 5
 33 140 l 5
165 98 m 5
 187 167 289 244 348 279 c 6
 733 508 l 5
 733 508 820 558 844 558 c 4
 863 558 887 522 894 508 c 5
 877 410 l 5
 870 424 846 460 827 460 c 4
 802 460 712 410 712 410 c 5
 327 181 l 6
 263 143 178 84 150 0 c 5
 165 98 l 5
EndSplineSet
Position2: "Advance neume with cinnabar mark-1" dx=200 dy=0 dh=0 dv=0
EndChar

StartChar: uniEE93
Encoding: 61075 61075 219
Width: 333
VWidth: 999
GlyphClass: 2
Flags: W
HStem: 0 21G<8.6 15.5>
VStem: 5 312
AnchorPoint: "Zevok" 204 451 basechar 0
AnchorPoint: "Udarka" 205 450 basechar 0
AnchorPoint: "Kupnaya" 187 -108 basechar 0
AnchorPoint: "Kachka" 205 451 basechar 0
AnchorPoint: "Lomka" 204 451 basechar 0
AnchorPoint: "Tikhaya" 62 110.5 basechar 0
AnchorPoint: "Oblachko" 205 451 basechar 0
AnchorPoint: "Podchashie" 204 451 basechar 0
AnchorPoint: "Zaderzhka" 205 448.9 basechar 0
AnchorPoint: "Ochko" 205 450 basechar 0
AnchorPoint: "Podvertka" 205 449 basechar 0
AnchorPoint: "Borzaya" 205 449 basechar 0
AnchorPoint: "Otsechka" 365 48 basechar 0
AnchorPoint: "Shaidur" 7 195 basechar 0
LayerCount: 3
Fore
SplineSet
237 244 m 5
 317 119 l 5
 300 20 l 5
 220 145 l 5
 237 244 l 5
23 100 m 5
 44 166 159 208 159 208 c 5
 143 112 l 5
 143 112 26 63 5 0 c 5
 23 100 l 5
83 290 m 5
 104 356 219 398 219 398 c 5
 203 302 l 5
 203 302 86 253 65 190 c 5
 83 290 l 5
EndSplineSet
Position2: "Advance neume with cinnabar mark-1" dx=200 dy=0 dh=0 dv=0
EndChar

StartChar: uniEE92
Encoding: 61074 61074 220
Width: 466
VWidth: 0
GlyphClass: 2
Flags: W
HStem: 0 21G<8.6 15.5 372.875 392>
VStem: 168 13<63.0764 91.6523> 178 138<90.9 200.173> 289 12<-2.31445 35.8792>
AnchorPoint: "Zevok" 192 474 basechar 0
AnchorPoint: "Udarka" 192 474 basechar 0
AnchorPoint: "Kupnaya" 188 -108 basechar 0
AnchorPoint: "Kachka" 191 474 basechar 0
AnchorPoint: "Lomka" 191 474 basechar 0
AnchorPoint: "Tikhaya" 62 110.5 basechar 0
AnchorPoint: "Oblachko" 191 475 basechar 0
AnchorPoint: "Podchashie" 191 475 basechar 0
AnchorPoint: "Zaderzhka" 191 473.9 basechar 0
AnchorPoint: "Ochko" 337 398 basechar 0
AnchorPoint: "Podvertka" 193 474 basechar 0
AnchorPoint: "Borzaya" 193 474 basechar 0
AnchorPoint: "Otsechka" 382 22 basechar 0
AnchorPoint: "Shaidur" 11 191 basechar 0
LayerCount: 3
Fore
SplineSet
23 100 m 1x80
 44 166 159 208 159 208 c 1
 143 112 l 1
 143 112 26 63 5 0 c 1
 23 100 l 1x80
83 290 m 1
 104 356 219 398 219 398 c 1
 203 302 l 1
 203 302 86 253 65 190 c 1
 83 290 l 1
346 141 m 1
 354 157 371 173 389 187 c 1
 397 264 l 1
 418 275 l 1
 411 203 l 1
 435 218 456 229 456 229 c 1
 443 134 l 1
 443 134 424 125 402 110 c 1
 392 11 l 1
 371 0 l 1
 380 96 l 1
 360 81 341 62 331 43 c 1
 346 141 l 1
301 6 m 2x90
 299 -5 287 -8 289 10 c 0
 295 73 299 126 244 131 c 0
 223 133 195 129 181 73 c 0
 178 61 166 57 168 69 c 2xd0
 178 142 l 2
 186 203 217 229 255 229 c 0
 313 229 329 156 316 87 c 2xa0
 301 6 l 2x90
EndSplineSet
Position2: "Advance neume with cinnabar mark-1" dx=200 dy=0 dh=0 dv=0
EndChar

StartChar: uniEE98
Encoding: 61080 61080 221
Width: 1044
VWidth: 999
GlyphClass: 2
Flags: W
HStem: 0 21G<303.061 314> 120 99<54.2083 106.287 204.286 256.287> 460 98<936.698 1008.06>
VStem: 0 13<0.0764465 35.9585> 119 12<-2.45366 36.1189> 150 13<0.0764465 33.5692> 269 12<-2.45366 36.1189>
AnchorPoint: "Zevok" 1156 638 basechar 0
AnchorPoint: "Udarka" 20 454 basechar 0
AnchorPoint: "Kupnaya" 615 -115 basechar 0
AnchorPoint: "Kachka" 579 556 basechar 0
AnchorPoint: "Lomka" 1006 52 basechar 0
AnchorPoint: "Tikhaya" 472 218.5 basechar 0
AnchorPoint: "Oblachko" 982 635 basechar 0
AnchorPoint: "Podchashie" 714 219 basechar 0
AnchorPoint: "Zaderzhka" 1155 491.9 basechar 0
AnchorPoint: "Ochko" 576 433 basechar 0
AnchorPoint: "Podvertka" 1027 350 basechar 0
AnchorPoint: "Borzaya" 17 302 basechar 0
AnchorPoint: "Otsechka" 1069 364 basechar 0
AnchorPoint: "Shaidur" 153 304 basechar 0
LayerCount: 3
Fore
SplineSet
315 98 m 5
 337 167 439 244 498 279 c 6
 883 508 l 5
 883 508 970 558 994 558 c 4
 1013 558 1037 522 1044 508 c 5
 1027 410 l 5
 1020 424 996 460 977 460 c 4
 952 460 862 410 862 410 c 5
 477 181 l 6
 413 143 328 84 300 0 c 5
 315 98 l 5
131 6 m 6
 129 -5 118 -8 119 10 c 4
 122 53 113 120 78 120 c 4
 45 120 23 59 13 10 c 4
 10 -2 -2 -6 0 6 c 6
 11 88 l 6
 19 149 51 219 95 219 c 4
 146 219 159 156 146 87 c 6
 131 6 l 6
281 6 m 6
 279 -5 268 -8 269 10 c 4
 272 53 263 120 228 120 c 4
 195 120 174 59 163 10 c 4
 160 -2 148 -6 150 6 c 6
 161 88 l 6
 169 149 201 219 245 219 c 4
 296 219 309 156 296 87 c 6
 281 6 l 6
EndSplineSet
Position2: "Advance neume with cinnabar mark-1" dx=200 dy=0 dh=0 dv=0
EndChar

StartChar: uniEE99
Encoding: 61081 61081 222
Width: 1073
VWidth: 0
GlyphClass: 2
Flags: W
HStem: 0 21G<303.061 314> 120 99<54.2083 106.287 204.208 256.287> 460 98<936.698 1008.06>
VStem: 0 13<0.0764465 35.9585> 119 12<-2.45366 36.1189> 150 13<0.0764465 35.9585> 269 12<-2.45366 36.1189>
AnchorPoint: "Zevok" 1160 658 basechar 0
AnchorPoint: "Udarka" 20 454 basechar 0
AnchorPoint: "Kupnaya" 499 -115 basechar 0
AnchorPoint: "Kachka" 575 556 basechar 0
AnchorPoint: "Lomka" 1034 52 basechar 0
AnchorPoint: "Tikhaya" 472 218.5 basechar 0
AnchorPoint: "Oblachko" 1012 661 basechar 0
AnchorPoint: "Podchashie" 578 567 basechar 0
AnchorPoint: "Zaderzhka" 1161 491.9 basechar 0
AnchorPoint: "Ochko" 576 433 basechar 0
AnchorPoint: "Podvertka" 1049 350 basechar 0
AnchorPoint: "Borzaya" -67 234 basechar 0
AnchorPoint: "Otsechka" 1092 358 basechar 0
AnchorPoint: "Shaidur" 153 304 basechar 0
LayerCount: 3
Fore
SplineSet
315 98 m 5
 337 167 439 244 498 279 c 6
 883 508 l 5
 883 508 970 558 994 558 c 4
 1013 558 1037 522 1044 508 c 5
 1027 410 l 5
 1020 424 996 460 977 460 c 4
 952 460 862 410 862 410 c 5
 477 181 l 6
 413 143 328 84 300 0 c 5
 315 98 l 5
728 240 m 5
 750 284 833 327 833 327 c 5
 820 232 l 5
 820 232 738 191 713 142 c 5
 728 240 l 5
575 150 m 5
 597 194 680 237 680 237 c 5
 667 142 l 5
 667 142 585 101 560 52 c 5
 575 150 l 5
131 6 m 6
 129 -5 118 -8 119 10 c 4
 122 53 113 120 78 120 c 4
 45 120 23 59 13 10 c 4
 10 -2 -2 -6 0 6 c 6
 11 88 l 6
 19 149 51 219 95 219 c 4
 146 219 159 156 146 87 c 6
 131 6 l 6
281 6 m 6
 279 -5 268 -8 269 10 c 4
 272 53 263 120 228 120 c 4
 195 120 173 59 163 10 c 4
 160 -2 148 -6 150 6 c 6
 161 88 l 6
 169 149 201 219 245 219 c 4
 296 219 309 156 296 87 c 6
 281 6 l 6
EndSplineSet
Position2: "Advance neume with cinnabar mark-1" dx=200 dy=0 dh=0 dv=0
EndChar

StartChar: uniEE9A
Encoding: 61082 61082 223
Width: 1044
VWidth: 999
GlyphClass: 2
Flags: W
HStem: 0 21G<212.875 232 303.061 314> 120 99<54.286 106.287> 460 98<936.698 1008.06>
VStem: 0 13<0.0764465 33.5692> 119 12<-2.45366 36.1189>
AnchorPoint: "Zevok" 1138 655 basechar 0
AnchorPoint: "Udarka" 20 454 basechar 0
AnchorPoint: "Kupnaya" 499 -115 basechar 0
AnchorPoint: "Kachka" 575 556 basechar 0
AnchorPoint: "Lomka" 1006 52 basechar 0
AnchorPoint: "Tikhaya" 444 198.5 basechar 0
AnchorPoint: "Oblachko" 986 655 basechar 0
AnchorPoint: "Podchashie" 714 219 basechar 0
AnchorPoint: "Zaderzhka" 1137 483.9 basechar 0
AnchorPoint: "Ochko" 576 433 basechar 0
AnchorPoint: "Podvertka" 1025 350 basechar 0
AnchorPoint: "Borzaya" -69 214 basechar 0
AnchorPoint: "Otsechka" 1064 357 basechar 0
AnchorPoint: "Shaidur" 273 386 basechar 0
LayerCount: 3
Fore
SplineSet
315 98 m 1
 337 167 439 244 498 279 c 2
 883 508 l 1
 883 508 970 558 994 558 c 0
 1013 558 1037 522 1044 508 c 1
 1027 410 l 1
 1020 424 996 460 977 460 c 0
 952 460 862 410 862 410 c 1
 477 181 l 2
 413 143 328 84 300 0 c 1
 315 98 l 1
131 6 m 2
 129 -5 118 -8 119 10 c 0
 122 53 113 120 78 120 c 0
 45 120 24 59 13 10 c 0
 10 -2 -2 -6 0 6 c 2
 11 88 l 2
 19 149 51 219 95 219 c 0
 146 219 159 156 146 87 c 2
 131 6 l 2
186 141 m 1
 194 157 211 173 229 187 c 1
 237 264 l 1
 258 275 l 1
 251 203 l 1
 275 218 296 229 296 229 c 1
 283 134 l 1
 283 134 264 125 242 110 c 1
 232 11 l 1
 211 0 l 1
 220 96 l 1
 200 81 181 62 171 43 c 1
 186 141 l 1
EndSplineSet
Position2: "Advance neume with cinnabar mark-1" dx=200 dy=0 dh=0 dv=0
EndChar

StartChar: uniEE7E
Encoding: 61054 61054 224
Width: 443
VWidth: 999
GlyphClass: 2
Flags: HW
HStem: -3 21G<131.5 135.5 301.5 305.5 352 373.071> 120 99<63.833 116.403 233.833 286.403> 515 99<260 315.07> 656 20G<420 438.929>
VStem: 10 13<0.780029 33.3362> 129 32<28.7812 103.969> 129 12<-2.53125 43.8> 180 13<0.780029 33.3362> 299 32<28.7812 103.969> 299 12<-2.53125 43.8> 352 19<0 19>
DStem2: 352 0 371 0 0.103 0.994681<1.95699 400.013 517.514 665.483>
AnchorPoint: "Zevok" 296 739 basechar 0
AnchorPoint: "Udarka" 294 740 basechar 0
AnchorPoint: "Kupnaya" 233 -115 basechar 0
AnchorPoint: "Kachka" 291 738 basechar 0
AnchorPoint: "Lomka" 295 740 basechar 0
AnchorPoint: "Tikhaya" 294 734.5 basechar 0
AnchorPoint: "Oblachko" 292 737 basechar 0
AnchorPoint: "Podchashie" 294 737 basechar 0
AnchorPoint: "Zaderzhka" 297 737.9 basechar 0
AnchorPoint: "Ochko" 294 740 basechar 0
AnchorPoint: "Podvertka" 295 740 basechar 0
AnchorPoint: "Borzaya" 103 285 basechar 0
AnchorPoint: "Otsechka" 426 17 basechar 0
AnchorPoint: "Shaidur" 277 284 basechar 0
LayerCount: 3
Fore
SplineSet
369.319 0 m 1
 350.319 0 l 1
 384.319 351 l 1
 384.319 373 384.319 392 377.319 412 c 0
 363.319 451 336.319 483 300.319 501 c 0
 282.319 510 263.319 515 241.319 515 c 1
 258.319 614 l 1
 331.319 614 386.319 573 408.319 522 c 0
 414.319 508 418.319 492 418.319 477 c 0
 418.319 473 417.319 470 417.319 466 c 2
 369.319 0 l 1
105 219 m 0xfd20
 147 219 161 180 161 137 c 0xfd20
 161 121 159 104 156 87 c 2
 141 6 l 2
 140 1 137 -2 134 -3 c 1
 133 -3 l 2
 130 -3 129 2 129 10 c 0xfb20
 129 17 130 25 130 33 c 0
 130 37 130 41 129 46 c 1
 129 74 117 120 88 120 c 0
 68 120 54 98 47 83 c 0
 38 62 29 34 23 10 c 0
 22 4 19 1 14 0 c 0
 10 -1 9 0 10 5 c 2
 22 88 l 2
 26 120 35 154 50 176 c 1
 59 196 79 219 105 219 c 0xfd20
275 219 m 0
 317 219 331 180 331 137 c 0xf9a0
 331 121 329 104 326 87 c 2
 311 6 l 2
 310 1 307 -2 304 -3 c 1
 303 -3 l 2
 300 -3 299 2 299 10 c 0xf960
 299 17 300 25 300 33 c 0
 300 37 300 41 299 46 c 1xf9a0
 299 74 287 120 258 120 c 0
 238 120 224 98 217 83 c 0
 208 62 199 34 193 10 c 0
 192 4 189 1 184 0 c 0
 180 -1 179 0 180 5 c 2
 191 88 l 2
 195 119 205 154 220 176 c 1
 229 196 249 219 275 219 c 0
EndSplineSet
Position2: "Advance neume with cinnabar mark-1" dx=200 dy=0 dh=0 dv=0
EndChar

StartChar: uniEE79
Encoding: 61049 61049 225
Width: 377
VWidth: 999
GlyphClass: 2
Flags: W
HStem: 0 21G<147 168.06> 515 99<55 109.081>
VStem: 147 19<0 19> 181 34<399.429 433.153>
DStem2: 147 0 166 0 0.102462 0.994737<1.94678 396.41>
AnchorPoint: "Zevok" 153 687 basechar 0
AnchorPoint: "Udarka" 154 686 basechar 0
AnchorPoint: "Kupnaya" 158 -115 basechar 0
AnchorPoint: "Kachka" 155 686 basechar 0
AnchorPoint: "Lomka" 153 689 basechar 0
AnchorPoint: "Tikhaya" 152 686.5 basechar 0
AnchorPoint: "Oblachko" 154 687 basechar 0
AnchorPoint: "Podchashie" 152 689 basechar 0
AnchorPoint: "Zaderzhka" 153 684.9 basechar 0
AnchorPoint: "Ochko" 152 683 basechar 0
AnchorPoint: "Podvertka" 153 684 basechar 0
AnchorPoint: "Borzaya" 154 684 basechar 0
AnchorPoint: "Otsechka" 154 683 basechar 0
AnchorPoint: "Shaidur" 53 650 basechar 0
LayerCount: 3
Fore
SplineSet
356 161 m 5
 338 62 l 5
 228 135 l 5
 246 234 l 5
 356 161 l 5
356 346 m 5
 338 247 l 5
 228 320 l 5
 246 419 l 5
 356 346 l 5
166 0 m 1
 147 0 l 1
 181 351 l 1
 181 373 181 392 174 412 c 0
 160 451 133 483 97 501 c 0
 79 510 60 515 38 515 c 1
 55 614 l 1
 128 614 183 573 205 522 c 0
 211 508 215 492 215 477 c 0
 215 473 214 470 214 466 c 2
 166 0 l 1
EndSplineSet
Position2: "Advance neume with cinnabar mark-1" dx=200 dy=0 dh=0 dv=0
EndChar

StartChar: uniE089
Encoding: 57481 57481 226
Width: 377
VWidth: 999
Flags: W
HStem: 0 21G<147 168.06> 515 99<55 109.081>
VStem: 147 19<0 19> 181 34<399.429 433.153>
DStem2: 147 0 166 0 0.102462 0.994737<1.94678 396.41>
AnchorPoint: "Zevok" 153 687 basechar 0
AnchorPoint: "Udarka" 154 686 basechar 0
AnchorPoint: "Kupnaya" 158 -115 basechar 0
AnchorPoint: "Kachka" 155 686 basechar 0
AnchorPoint: "Lomka" 153 689 basechar 0
AnchorPoint: "Tikhaya" 152 686.5 basechar 0
AnchorPoint: "Oblachko" 154 687 basechar 0
AnchorPoint: "Podchashie" 152 689 basechar 0
AnchorPoint: "Zaderzhka" 153 684.9 basechar 0
AnchorPoint: "Ochko" 152 683 basechar 0
AnchorPoint: "Podvertka" 153 684 basechar 0
AnchorPoint: "Borzaya" 154 684 basechar 0
AnchorPoint: "Otsechka" 154 683 basechar 0
AnchorPoint: "Shaidur" 53 650 basechar 0
LayerCount: 3
Fore
SplineSet
356 161 m 1
 338 62 l 1
 228 135 l 1
 246 234 l 1
 356 161 l 1
356 346 m 1
 338 247 l 1
 228 320 l 1
 246 419 l 1
 356 346 l 1
166 0 m 1
 147 0 l 1
 181 351 l 1
 181 373 181 392 174 412 c 0
 160 451 133 483 97 501 c 0
 79 510 60 515 38 515 c 1
 55 614 l 1
 128 614 183 573 205 522 c 0
 211 508 215 492 215 477 c 0
 215 473 214 470 214 466 c 2
 166 0 l 1
EndSplineSet
Validated: 1
Position2: "Advance neume with cinnabar mark-1" dx=200 dy=0 dh=0 dv=0
EndChar

StartChar: uniEEA1
Encoding: 61089 61089 227
Width: 1327
VWidth: 999
GlyphClass: 2
Flags: W
HStem: 0 21G<553.061 564> 460 98<1186.7 1258.06>
AnchorPoint: "Zevok" 1410 903 basechar 0
AnchorPoint: "Udarka" 690 604 basechar 0
AnchorPoint: "Kupnaya" 710 -115 basechar 0
AnchorPoint: "Kachka" 691 596 basechar 0
AnchorPoint: "Lomka" 1255 109 basechar 0
AnchorPoint: "Tikhaya" 683 440.5 basechar 0
AnchorPoint: "Oblachko" 1249 899 basechar 0
AnchorPoint: "Podchashie" 950 433 basechar 0
AnchorPoint: "Zaderzhka" 1417 727.9 basechar 0
AnchorPoint: "Ochko" 690 598 basechar 0
AnchorPoint: "Podvertka" 1277 566 basechar 0
AnchorPoint: "Borzaya" 962 16 basechar 0
AnchorPoint: "Otsechka" 1353 564 basechar 0
AnchorPoint: "Shaidur" 688 600 basechar 0
LayerCount: 3
Fore
SplineSet
124 122 m 4
 142 35 227 -72 227 -72 c 5
 227 -72 268 77 248 168 c 4
 229 253 142 356 142 356 c 5
 142 356 105 211 124 122 c 4
58 95 m 5
 26 84 9 66 0 24 c 5
 14 123 l 6
 19 156 28 181 58 192 c 5
 79 342 184 436 185 435 c 5
 186 436 292 341 312 193 c 5
 345 204 363 222 372 265 c 5
 357 166 l 6
 352 132 343 108 312 96 c 5
 293 -53 186 -151 185 -150 c 5
 184 -151 78 -52 58 95 c 5
373 -50 m 1
 394 16 509 58 509 58 c 1
 493 -38 l 1
 493 -38 376 -87 355 -150 c 1
 373 -50 l 1
433 140 m 1
 454 206 569 248 569 248 c 1
 553 152 l 1
 553 152 436 103 415 40 c 1
 433 140 l 1
565 98 m 1
 587 167 689 244 748 279 c 2
 1133 508 l 1
 1133 508 1220 558 1244 558 c 0
 1263 558 1287 522 1294 508 c 1
 1277 410 l 1
 1270 424 1246 460 1227 460 c 0
 1202 460 1112 410 1112 410 c 1
 727 181 l 2
 663 143 578 84 550 0 c 1
 565 98 l 1
EndSplineSet
Position2: "Advance neume with cinnabar mark-1" dx=200 dy=0 dh=0 dv=0
EndChar

StartChar: uniEE82
Encoding: 61058 61058 228
Width: 744
VWidth: 999
GlyphClass: 2
Flags: W
HStem: 0 21G<3.06122 14> 460 98<636.698 708.058>
VStem: 345 12<190.803 229.68>
AnchorPoint: "Zevok" 864 646 basechar 0
AnchorPoint: "Udarka" 343 660 basechar 0
AnchorPoint: "Kupnaya" 404 -108 basechar 0
AnchorPoint: "Kachka" 345 662 basechar 0
AnchorPoint: "Lomka" 722 126 basechar 0
AnchorPoint: "Tikhaya" 97 260 basechar 0
AnchorPoint: "Oblachko" 699 645 basechar 0
AnchorPoint: "Podchashie" 345 662 basechar 0
AnchorPoint: "Zaderzhka" 869 483.9 basechar 0
AnchorPoint: "Ochko" 317 455 basechar 0
AnchorPoint: "Podvertka" 725 280 basechar 0
AnchorPoint: "Borzaya" 777 20 basechar 0
AnchorPoint: "Otsechka" 781 282 basechar 0
AnchorPoint: "Shaidur" 91 462 basechar 0
LayerCount: 3
Fore
SplineSet
15 98 m 5
 37 167 139 244 198 279 c 6
 583 508 l 5
 583 508 670 558 694 558 c 4
 713 558 737 522 744 508 c 5
 727 410 l 5
 720 424 696 460 677 460 c 4
 652 460 562 410 562 410 c 5
 177 181 l 6
 113 143 28 84 0 0 c 5
 15 98 l 5
345 222 m 6
 347 232 358 235 357 217 c 4
 354 174 346 128 398 124 c 4
 435 122 457 197 466 249 c 4
 468 261 481 264 479 253 c 6
 465 157 l 6
 455 91 436 20 381 26 c 4
 330 31 319 81 330 140 c 6
 345 222 l 6
EndSplineSet
Position2: "Advance neume with cinnabar mark-1" dx=200 dy=0 dh=0 dv=0
EndChar

StartChar: uniEE83
Encoding: 61059 61059 229
Width: 780
VWidth: 0
GlyphClass: 2
Flags: W
HStem: 0 21G<3.06122 14> 460 98<636.698 708.058>
AnchorPoint: "Zevok" 883 654 basechar 0
AnchorPoint: "Udarka" 375 686 basechar 0
AnchorPoint: "Kupnaya" 421 -108 basechar 0
AnchorPoint: "Kachka" 377 686 basechar 0
AnchorPoint: "Lomka" 722 126 basechar 0
AnchorPoint: "Tikhaya" 92 255 basechar 0
AnchorPoint: "Oblachko" 703 651 basechar 0
AnchorPoint: "Podchashie" 375 687 basechar 0
AnchorPoint: "Zaderzhka" 885 515.9 basechar 0
AnchorPoint: "Ochko" 376 687 basechar 0
AnchorPoint: "Podvertka" 753 302 basechar 0
AnchorPoint: "Borzaya" 59 466 basechar 0
AnchorPoint: "Otsechka" 809 302 basechar 0
AnchorPoint: "Shaidur" 193 468 basechar 0
LayerCount: 3
Fore
SplineSet
15 98 m 5
 37 167 139 244 198 279 c 6
 583 508 l 5
 583 508 670 558 694 558 c 4
 713 558 737 522 744 508 c 5
 727 410 l 5
 720 424 696 460 677 460 c 4
 652 460 562 410 562 410 c 5
 177 181 l 6
 113 143 28 84 0 0 c 5
 15 98 l 5
338 196 m 5
 360 240 443 283 443 283 c 5
 430 188 l 5
 430 188 348 147 323 98 c 5
 338 196 l 5
EndSplineSet
Position2: "Advance neume with cinnabar mark-1" dx=200 dy=0 dh=0 dv=0
EndChar

StartChar: uniEEA0
Encoding: 61088 61088 230
Width: 851
VWidth: 0
GlyphClass: 2
Flags: W
HStem: 0 21G<34.9032 43.5> 460 98<714.698 786.058>
AnchorPoint: "Zevok" 925 663 basechar 0
AnchorPoint: "Udarka" 1 454 basechar 0
AnchorPoint: "Kupnaya" 499 -115 basechar 0
AnchorPoint: "Kachka" 421 556 basechar 0
AnchorPoint: "Lomka" 810 52 basechar 0
AnchorPoint: "Tikhaya" 69 224.5 basechar 0
AnchorPoint: "Oblachko" 790 665 basechar 0
AnchorPoint: "Podchashie" 518 215 basechar 0
AnchorPoint: "Zaderzhka" 927 483.9 basechar 0
AnchorPoint: "Ochko" 420 465 basechar 0
AnchorPoint: "Podvertka" 820 357 basechar 0
AnchorPoint: "Borzaya" 7.62939e-06 360 basechar 0
AnchorPoint: "Otsechka" 864 359 basechar 0
AnchorPoint: "Shaidur" 251 356 basechar 0
LayerCount: 3
Fore
SplineSet
61 100 m 5
 82 166 189 210 189 210 c 5
 173 115 l 5
 173 115 54 63 33 0 c 5
 92 620 l 5
 110 620 l 5
 61 100 l 5
248 262 m 5
 661 508 l 5
 661 508 748 558 772 558 c 4
 791 558 815 522 822 508 c 5
 805 410 l 5
 798 424 774 460 755 460 c 4
 730 460 640 410 640 410 c 5
 227 164 l 5
 248 262 l 5
EndSplineSet
Position2: "Advance neume with cinnabar mark-1" dx=200 dy=0 dh=0 dv=0
EndChar

StartChar: uniEE75
Encoding: 61045 61045 231
Width: 205
VWidth: 999
GlyphClass: 2
Flags: W
HStem: 0 21G<34.9032 43.5>
VStem: 33 154
AnchorPoint: "Zevok" 99 724 basechar 0
AnchorPoint: "Udarka" -61 342 basechar 0
AnchorPoint: "Kupnaya" 100 -108 basechar 0
AnchorPoint: "Kachka" 100 724 basechar 0
AnchorPoint: "Lomka" 236 6 basechar 0
AnchorPoint: "Tikhaya" 57 184 basechar 0
AnchorPoint: "Oblachko" 101 725 basechar 0
AnchorPoint: "Podchashie" 99 724 basechar 0
AnchorPoint: "Zaderzhka" 99 724 basechar 0
AnchorPoint: "Ochko" 98 723 basechar 0
AnchorPoint: "Podvertka" 265 128 basechar 0
AnchorPoint: "Borzaya" 347 4 basechar 0
AnchorPoint: "Otsechka" 215 6 basechar 0
AnchorPoint: "Shaidur" 15 342 basechar 0
LayerCount: 3
Fore
SplineSet
61 100 m 5
 82 166 187 208 187 208 c 5
 173 115 l 5
 173 115 54 63 33 0 c 5
 92 620 l 5
 110 620 l 5
 61 100 l 5
EndSplineSet
Position2: "Advance neume with cinnabar mark-1" dx=200 dy=0 dh=0 dv=0
EndChar

StartChar: uniEE74
Encoding: 61044 61044 232
Width: 774
VWidth: 999
GlyphClass: 3
Flags: W
HStem: 0 21G<34.9677 52.779> 460 98<671.698 743.058>
AnchorPoint: "Zevok" 864 649 basechar 0
AnchorPoint: "Udarka" 6 451 basechar 0
AnchorPoint: "Kupnaya" 423 -115 basechar 0
AnchorPoint: "Kachka" 433 710 basechar 0
AnchorPoint: "Lomka" 744 52 basechar 0
AnchorPoint: "Tikhaya" 165 190.5 basechar 0
AnchorPoint: "Oblachko" 722 649 basechar 0
AnchorPoint: "Podchashie" 434 711 basechar 0
AnchorPoint: "Zaderzhka" 864 483.9 basechar 0
AnchorPoint: "Ochko" 434 707 basechar 0
AnchorPoint: "Podvertka" 753 356 basechar 0
AnchorPoint: "Borzaya" 6.00002 450 basechar 0
AnchorPoint: "Otsechka" 796 356 basechar 0
AnchorPoint: "Shaidur" 7 325 basechar 0
LayerCount: 3
Fore
SplineSet
466 528 m 5
 489 542 l 5
 477 424 l 5
 618 508 l 5
 618 508 705 558 729 558 c 4
 748 558 772 522 779 508 c 5
 762 410 l 5
 755 424 731 460 712 460 c 4
 687 460 597 410 597 410 c 5
 523 366 l 5
 566 323 l 5
 549 224 l 5
 466 307 l 5
 458 223 l 5
 434 209 l 5
 445 320 l 5
 212 181 l 6
 91 109 33 0 33 0 c 5
 94 620 l 5
 112 620 l 5
 62 100 l 5
 85 169 174 244 233 279 c 6
 397 376 l 5
 358 415 l 5
 375 514 l 5
 456 432 l 5
 466 528 l 5
EndSplineSet
Position2: "Advance neume with cinnabar mark-1" dx=200 dy=0 dh=0 dv=0
EndChar

StartChar: uniEE7D
Encoding: 61053 61053 233
Width: 432
VWidth: 999
GlyphClass: 2
Flags: W
HStem: 0 21G<1 23.8462 185 206.74 228.507 246> 234 79<78.9854 183.587>
AnchorPoint: "Zevok" 262 447 basechar 0
AnchorPoint: "Udarka" 267 447 basechar 0
AnchorPoint: "Kupnaya" 103 -108 basechar 0
AnchorPoint: "Kachka" 265 446 basechar 0
AnchorPoint: "Lomka" 266 444 basechar 0
AnchorPoint: "Tikhaya" 37 128 basechar 0
AnchorPoint: "Oblachko" 266 446 basechar 0
AnchorPoint: "Podchashie" 267 448 basechar 0
AnchorPoint: "Zaderzhka" 267 447.9 basechar 0
AnchorPoint: "Ochko" 266 446 basechar 0
AnchorPoint: "Podvertka" 266 445 basechar 0
AnchorPoint: "Borzaya" 266 445 basechar 0
AnchorPoint: "Otsechka" 267 446 basechar 0
AnchorPoint: "Shaidur" 349 447 basechar 0
LayerCount: 3
Fore
SplineSet
226 0 m 5
 274 383 l 5
 294 393 l 5
 246 10 l 5
 226 0 l 5
311 333 m 5
 333 377 416 420 416 420 c 5
 403 325 l 5
 403 325 321 284 296 235 c 5
 311 333 l 5
15 78 m 5
 39 218 42 313 145 313 c 4
 224 313 238 240 214 73 c 5
 204 0 l 5
 185 0 l 5
 195 73 l 6
 207 163 209 234 131 234 c 4
 73 234 55 190 35 78 c 5
 20 0 l 5
 1 0 l 5
 15 78 l 5
EndSplineSet
Position2: "Advance neume with cinnabar mark-1" dx=200 dy=0 dh=0 dv=0
EndChar

StartChar: uniEE7F
Encoding: 61055 61055 234
Width: 624
VWidth: 999
GlyphClass: 2
Flags: W
HStem: 0 98<392.907 521.492> 120 99<54.2083 106.287 214.208 266.287>
VStem: 0 13<0.0764465 35.9585> 119 12<-2.45366 36.1189> 160 13<0.0764465 35.9585> 279 12<-2.45366 36.1189>
AnchorPoint: "Zevok" 195 337 basechar 0
AnchorPoint: "Udarka" 190 336 basechar 0
AnchorPoint: "Kupnaya" 305 -115 basechar 0
AnchorPoint: "Kachka" 193 334 basechar 0
AnchorPoint: "Lomka" 193 338 basechar 0
AnchorPoint: "Tikhaya" 191 336.5 basechar 0
AnchorPoint: "Oblachko" 194 337 basechar 0
AnchorPoint: "Podchashie" 194 335 basechar 0
AnchorPoint: "Zaderzhka" 191 333.9 basechar 0
AnchorPoint: "Ochko" 190 337 basechar 0
AnchorPoint: "Podvertka" 191 334 basechar 0
AnchorPoint: "Borzaya" 193 334 basechar 0
AnchorPoint: "Otsechka" 192 334 basechar 0
AnchorPoint: "Shaidur" 36.3197 335 basechar 0
LayerCount: 3
Fore
SplineSet
357 190 m 5
 357 128 413 98 463 98 c 4
 514 98 571 128 577 173 c 4
 586 238 510 302 472 359 c 4
 451 390 438 446 448 482 c 6
 469 558 l 5
 461 524 475 480 489 458 c 4
 576 326 638 302 593 111 c 4
 578 47 507 0 446 0 c 4
 398 0 337 27 337 97 c 5
 357 190 l 5
131 6 m 6
 129 -5 118 -8 119 10 c 4
 122 53 113 120 78 120 c 4
 45 120 23 59 13 10 c 4
 10 -2 -2 -6 0 6 c 6
 11 88 l 6
 19 149 51 219 95 219 c 4
 146 219 159 156 146 87 c 6
 131 6 l 6
291 6 m 6
 289 -5 278 -8 279 10 c 4
 282 53 273 120 238 120 c 4
 205 120 183 59 173 10 c 4
 170 -2 158 -6 160 6 c 6
 171 88 l 6
 179 149 211 219 255 219 c 4
 306 219 319 156 306 87 c 6
 291 6 l 6
EndSplineSet
Position2: "Advance neume with cinnabar mark-1" dx=200 dy=0 dh=0 dv=0
EndChar

StartChar: uniEE7A
Encoding: 61050 61050 235
Width: 275
VWidth: 999
GlyphClass: 2
Flags: W
HStem: 0 21G<-35 -10.3265 198 220.857> 292 99<69.036 189.068>
AnchorPoint: "Zevok" 140 458 basechar 0
AnchorPoint: "Udarka" 141 457 basechar 0
AnchorPoint: "Kupnaya" 100 -108 basechar 0
AnchorPoint: "Kachka" 141 460 basechar 0
AnchorPoint: "Lomka" -36 400 basechar 0
AnchorPoint: "Tikhaya" 50 102 basechar 0
AnchorPoint: "Oblachko" 139 457 basechar 0
AnchorPoint: "Podchashie" 141 458 basechar 0
AnchorPoint: "Zaderzhka" 141 457.9 basechar 0
AnchorPoint: "Ochko" 142 457 basechar 0
AnchorPoint: "Podvertka" 141 456 basechar 0
AnchorPoint: "Borzaya" 347 4 basechar 0
AnchorPoint: "Otsechka" 265 0 basechar 0
AnchorPoint: "Shaidur" -35 191 basechar 0
LayerCount: 3
Fore
SplineSet
-18 98 m 6
 12 272 16 391 144 391 c 4
 243 391 261 300 231 91 c 6
 218 0 l 5
 198 0 l 5
 210 91 l 6
 225 204 224 292 127 292 c 4
 54 292 30 238 4 98 c 6
 -14 0 l 5
 -35 0 l 5
 -18 98 l 6
EndSplineSet
Position2: "Advance neume with cinnabar mark-1" dx=200 dy=0 dh=0 dv=0
EndChar

StartChar: uniEE86
Encoding: 61062 61062 236
Width: 784
VWidth: 999
GlyphClass: 2
Flags: W
HStem: 0 21G<34.9677 52.779> 460 98<671.698 743.058>
AnchorPoint: "Zevok" 883 654 basechar 0
AnchorPoint: "Udarka" 401 604 basechar 0
AnchorPoint: "Kupnaya" 421 -108 basechar 0
AnchorPoint: "Kachka" 399 606 basechar 0
AnchorPoint: "Lomka" 722 126 basechar 0
AnchorPoint: "Tikhaya" 92 255 basechar 0
AnchorPoint: "Oblachko" 727 635 basechar 0
AnchorPoint: "Podchashie" 399 606 basechar 0
AnchorPoint: "Zaderzhka" 887 491.9 basechar 0
AnchorPoint: "Ochko" 358 452 basechar 0
AnchorPoint: "Podvertka" 759 328 basechar 0
AnchorPoint: "Borzaya" -49 452 basechar 0
AnchorPoint: "Otsechka" 813 330 basechar 0
AnchorPoint: "Shaidur" 243 482 basechar 0
LayerCount: 3
Fore
SplineSet
233 279 m 6
 618 508 l 5
 618 508 705 558 729 558 c 4
 748 558 772 522 779 508 c 5
 762 410 l 5
 755 424 731 460 712 460 c 4
 687 460 597 410 597 410 c 5
 212 181 l 6
 91 109 33 0 33 0 c 5
 94 620 l 5
 112 620 l 5
 62 100 l 5
 85 169 174 244 233 279 c 6
478 256 m 1
 488 279 518 302 539 316 c 0
 553 325 568 335 583 343 c 1
 570 248 l 1
 540 232 515 214 490 193 c 0
 478 183 469 170 463 158 c 1
 478 256 l 1
325 166 m 1
 335 189 365 212 386 226 c 0
 400 235 415 245 430 253 c 1
 417 158 l 1
 387 142 362 124 337 103 c 0
 325 93 316 80 310 68 c 1
 325 166 l 1
EndSplineSet
Position2: "Advance neume with cinnabar mark-1" dx=200 dy=0 dh=0 dv=0
EndChar

StartChar: uniEEA5
Encoding: 61093 61093 237
Width: 934
VWidth: 999
GlyphClass: 2
Flags: W
HStem: 0 21G<-41.4 -34.5 174.968 192.779> 460 98<811.698 883.058>
AnchorPoint: "Zevok" 1017 648 basechar 0
AnchorPoint: "Udarka" 546 494 basechar 0
AnchorPoint: "Kupnaya" 521 -115 basechar 0
AnchorPoint: "Kachka" 547 496 basechar 0
AnchorPoint: "Lomka" 871 52 basechar 0
AnchorPoint: "Tikhaya" 204 202.5 basechar 0
AnchorPoint: "Oblachko" 860 643 basechar 0
AnchorPoint: "Podchashie" 602 227 basechar 0
AnchorPoint: "Zaderzhka" 1017 489.9 basechar 0
AnchorPoint: "Ochko" 546 495 basechar 0
AnchorPoint: "Podvertka" 893 320 basechar 0
AnchorPoint: "Borzaya" 603 8 basechar 0
AnchorPoint: "Otsechka" 950 317 basechar 0
AnchorPoint: "Shaidur" 549 494 basechar 0
LayerCount: 3
Fore
SplineSet
-27 100 m 5
 -6 166 109 208 109 208 c 5
 93 112 l 5
 93 112 -24 63 -45 0 c 5
 -27 100 l 5
33 290 m 5
 54 356 169 398 169 398 c 5
 153 302 l 5
 153 302 36 253 15 190 c 5
 33 290 l 5
234 620 m 5
 444 461 l 5
 427 362 l 5
 242 496 l 5
 202 100 l 5
 225 169 314 244 373 279 c 6
 758 508 l 5
 758 508 845 558 869 558 c 4
 888 558 912 522 919 508 c 5
 902 410 l 5
 895 424 871 460 852 460 c 4
 827 460 737 410 737 410 c 5
 352 181 l 6
 231 109 173 0 173 0 c 5
 234 620 l 5
EndSplineSet
Position2: "Advance neume with cinnabar mark-1" dx=200 dy=0 dh=0 dv=0
EndChar

StartChar: uniEE78
Encoding: 61048 61048 238
Width: 229
VWidth: 999
GlyphClass: 2
Flags: W
HStem: 0 21G<147 168.06> 515 99<55 109.081>
VStem: 147 19<0 19> 181 34<399.429 433.153>
DStem2: 147 0 166 0 0.102462 0.994737<1.94678 396.41>
AnchorPoint: "Zevok" 135 763 basechar 0
AnchorPoint: "Udarka" 133 760 basechar 0
AnchorPoint: "Kupnaya" 155 -108 basechar 0
AnchorPoint: "Kachka" 131 758 basechar 0
AnchorPoint: "Lomka" 16 188 basechar 0
AnchorPoint: "Tikhaya" 133 760 basechar 0
AnchorPoint: "Oblachko" 133 761 basechar 0
AnchorPoint: "Podchashie" 133 758 basechar 0
AnchorPoint: "Zaderzhka" 133 757.9 basechar 0
AnchorPoint: "Ochko" 322 457 basechar 0
AnchorPoint: "Podvertka" 153 -76 basechar 0
AnchorPoint: "Borzaya" 16 34 basechar 0
AnchorPoint: "Otsechka" 231 0 basechar 0
AnchorPoint: "Shaidur" 15 342 basechar 0
LayerCount: 3
Fore
SplineSet
166 0 m 5
 147 0 l 5
 181 351 l 5
 181 373 181 392 174 412 c 4
 160 451 133 483 97 501 c 4
 79 510 60 515 38 515 c 5
 55 614 l 5
 128 614 183 573 205 522 c 4
 211 508 215 492 215 477 c 4
 215 473 214 470 214 466 c 6
 166 0 l 5
EndSplineSet
Position2: "Advance neume with cinnabar mark-1" dx=200 dy=0 dh=0 dv=0
EndChar

StartChar: uniEEA4
Encoding: 61092 61092 239
Width: 792
VWidth: 999
GlyphClass: 2
Flags: W
HStem: 0 21G<34.9677 52.779> 460 98<671.698 743.058>
AnchorPoint: "Zevok" 878 623 basechar 0
AnchorPoint: "Udarka" 434 572 basechar 0
AnchorPoint: "Kupnaya" 449 -115 basechar 0
AnchorPoint: "Kachka" 435 572 basechar 0
AnchorPoint: "Lomka" 739 52 basechar 0
AnchorPoint: "Tikhaya" 66 221.5 basechar 0
AnchorPoint: "Oblachko" 730 623 basechar 0
AnchorPoint: "Podchashie" 470 241 basechar 0
AnchorPoint: "Zaderzhka" 881 491.9 basechar 0
AnchorPoint: "Ochko" 438 571 basechar 0
AnchorPoint: "Podvertka" 761 320 basechar 0
AnchorPoint: "Borzaya" 511 8 basechar 0
AnchorPoint: "Otsechka" 816 325 basechar 0
AnchorPoint: "Shaidur" 437 572 basechar 0
LayerCount: 3
Fore
SplineSet
94 620 m 5
 304 461 l 5
 287 362 l 5
 102 496 l 5
 62 100 l 5
 85 169 174 244 233 279 c 6
 618 508 l 5
 618 508 705 558 729 558 c 4
 748 558 772 522 779 508 c 5
 762 410 l 5
 755 424 731 460 712 460 c 4
 687 460 597 410 597 410 c 5
 212 181 l 6
 91 109 33 0 33 0 c 5
 94 620 l 5
EndSplineSet
Position2: "Advance neume with cinnabar mark-1" dx=200 dy=0 dh=0 dv=0
EndChar

StartChar: uniE100
Encoding: 57600 57600 240
Width: 382
VWidth: 999
GlyphClass: 2
Flags: W
HStem: 0 21G<34.9032 35.5>
VStem: 92 18<602 620>
DStem2: 33 0 61 100 0.0947333 0.995503<102.203 622.801>
AnchorPoint: "Lomka" 315 616 basechar 0
AnchorPoint: "Kupnaya" 100 722 basechar 0
AnchorPoint: "Udarka" 314 614 basechar 0
AnchorPoint: "Zevok" 316 614 basechar 0
AnchorPoint: "Kachka" 99 724 basechar 0
AnchorPoint: "Tikhaya" 52 200 basechar 0
AnchorPoint: "Shaidur" 15 342 basechar 0
AnchorPoint: "Otsechka" 413 40 basechar 0
AnchorPoint: "Borzaya" 347 4 basechar 0
AnchorPoint: "Podvertka" 413 134 basechar 0
AnchorPoint: "Ochko" 100 725 basechar 0
AnchorPoint: "Zaderzhka" 99 724 basechar 0
AnchorPoint: "Podchashie" 99 724 basechar 0
AnchorPoint: "Oblachko" 101 725 basechar 0
LayerCount: 3
Fore
SplineSet
61 100 m 1
 66 117 76 132 90 145 c 0
 117 172 150 192 187 208 c 1
 173 115 l 1
 130 94 96 74 63 44 c 0
 48 31 38 16 33 0 c 1
 92 620 l 1
 110 620 l 1
 61 100 l 1
236 234 m 1
 246 257 276 280 297 294 c 0
 311 303 326 312 341 321 c 1
 328 226 l 1
 288 202 244 178 221 136 c 1
 236 234 l 1
EndSplineSet
Validated: 1
LCarets2: 1 0 
EndChar

StartChar: uniE101
Encoding: 57601 57601 241
Width: 512
VWidth: 999
Flags: W
HStem: 0 21G<34.9032 35.5>
VStem: 92 18<602 620>
DStem2: 33 0 61 100 0.0947333 0.995503<102.203 622.801> 341 321 328 226 0.859795 0.51064<-133.738 -59.6881 44.2722 117.818>
AnchorPoint: "Zevok" 526 645 basechar 0
AnchorPoint: "Udarka" -71 340 basechar 0
AnchorPoint: "Kupnaya" 262 -108 basechar 0
AnchorPoint: "Kachka" 93 726 basechar 0
AnchorPoint: "Lomka" 425 30 basechar 0
AnchorPoint: "Tikhaya" 92 255 basechar 0
AnchorPoint: "Oblachko" 90 724 basechar 0
AnchorPoint: "Podchashie" 93 720 basechar 0
AnchorPoint: "Zaderzhka" 87 721.9 basechar 0
AnchorPoint: "Ochko" 94 721 basechar 0
AnchorPoint: "Podvertka" 483 226 basechar 0
AnchorPoint: "Borzaya" 279 360 basechar 0
AnchorPoint: "Otsechka" 538 226 basechar 0
AnchorPoint: "Shaidur" 15 342 basechar 0
LayerCount: 3
Fore
SplineSet
61 100 m 1
 66 117 76 132 90 145 c 0
 117 172 150 192 187 208 c 1
 173 115 l 1
 130 94 96 74 63 44 c 0
 48 31 38 16 33 0 c 1
 92 620 l 1
 110 620 l 1
 61 100 l 1
389 324 m 1
 400 348 429 370 450 384 c 0
 464 393 479 402 494 411 c 1
 481 316 l 1
 441 292 396 268 374 226 c 1
 389 324 l 1
236 234 m 1
 246 257 276 280 297 294 c 0
 311 303 326 312 341 321 c 1
 328 226 l 1
 288 202 244 178 221 136 c 1
 236 234 l 1
EndSplineSet
Validated: 1
EndChar

StartChar: uniE102
Encoding: 57602 57602 242
Width: 415
Flags: W
HStem: 0 21G<7.5 8.6>
AnchorPoint: "Kupnaya" 111 450 basechar 0
AnchorPoint: "Shaidur" 10 187 basechar 0
AnchorPoint: "Otsechka" 445 117 basechar 0
AnchorPoint: "Borzaya" 110 450 basechar 0
AnchorPoint: "Podvertka" 317 230 basechar 0
AnchorPoint: "Ochko" 457 474 basechar 0
AnchorPoint: "Zaderzhka" 229 501.9 basechar 0
AnchorPoint: "Podchashie" 317 229 basechar 0
AnchorPoint: "Oblachko" 112 454 basechar 0
AnchorPoint: "Tikhaya" 62 110.5 basechar 0
AnchorPoint: "Lomka" 111 452 basechar 0
AnchorPoint: "Kachka" 111 452 basechar 0
AnchorPoint: "Udarka" 111 451 basechar 0
AnchorPoint: "Zevok" 113 449 basechar 0
LayerCount: 3
Fore
SplineSet
23 100 m 1
 33 134 71 162 99 179 c 0
 117 190 137 200 159 208 c 1
 143 112 l 1
 102 95 65 73 36 44 c 1
 20 31 10 16 5 0 c 1
 23 100 l 1
83 290 m 1
 93 324 131 352 159 369 c 0
 177 380 197 390 219 398 c 1
 203 302 l 1
 162 285 125 263 96 234 c 1
 80 221 70 206 65 190 c 1
 83 290 l 1
268 415 m 1
 278 450 316 477 344 494 c 0
 362 505 382 515 404 523 c 1
 388 427 l 1
 346 410 314 387 280 360 c 1
 266 346 255 331 250 315 c 1
 268 415 l 1
EndSplineSet
Validated: 1
LCarets2: 1 0 
EndChar

StartChar: uniE103
Encoding: 57603 57603 243
Width: 414
Flags: W
HStem: 0 21G<7.5 8.6>
AnchorPoint: "Zevok" 111 449 basechar 0
AnchorPoint: "Udarka" 109 449 basechar 0
AnchorPoint: "Kachka" 111 448 basechar 0
AnchorPoint: "Lomka" 109 450 basechar 0
AnchorPoint: "Tikhaya" 62 110.5 basechar 0
AnchorPoint: "Oblachko" 109 450 basechar 0
AnchorPoint: "Podchashie" 329 152 basechar 0
AnchorPoint: "Zaderzhka" 219 528.9 basechar 0
AnchorPoint: "Ochko" 457 474 basechar 0
AnchorPoint: "Podvertka" 329 153 basechar 0
AnchorPoint: "Borzaya" 112 448 basechar 0
AnchorPoint: "Otsechka" 445 117 basechar 0
AnchorPoint: "Shaidur" 10 187 basechar 0
AnchorPoint: "Kupnaya" 106 450 basechar 0
LayerCount: 3
Fore
SplineSet
268 415 m 1
 278 450 316 477 344 494 c 0
 362 505 382 515 404 523 c 1
 388 427 l 1
 346 410 314 387 280 360 c 1
 266 346 255 331 250 315 c 1
 268 415 l 1
208 225 m 1
 218 260 256 287 284 304 c 0
 302 315 322 325 344 333 c 1
 328 237 l 1
 286 220 254 197 220 170 c 1
 206 156 195 141 190 125 c 1
 208 225 l 1
83 290 m 1
 93 324 131 352 159 369 c 0
 177 380 197 390 219 398 c 1
 203 302 l 1
 162 285 125 263 96 234 c 1
 80 221 70 206 65 190 c 1
 83 290 l 1
23 100 m 1
 33 134 71 162 99 179 c 0
 117 190 137 200 159 208 c 1
 143 112 l 1
 102 95 65 73 36 44 c 1
 20 31 10 16 5 0 c 1
 23 100 l 1
EndSplineSet
Validated: 1
LCarets2: 1 0 
EndChar

StartChar: uniE104
Encoding: 57604 57604 244
Width: 415
Flags: W
HStem: 0 21G<7.5 8.6>
AnchorPoint: "Kupnaya" 111 450 basechar 0
AnchorPoint: "Shaidur" 10 187 basechar 0
AnchorPoint: "Otsechka" 445 117 basechar 0
AnchorPoint: "Borzaya" 110 450 basechar 0
AnchorPoint: "Podvertka" 110 450 basechar 0
AnchorPoint: "Ochko" 457 474 basechar 0
AnchorPoint: "Zaderzhka" 111 448.9 basechar 0
AnchorPoint: "Podchashie" 110 449 basechar 0
AnchorPoint: "Oblachko" 109 450 basechar 0
AnchorPoint: "Tikhaya" 62 110.5 basechar 0
AnchorPoint: "Lomka" 109 450 basechar 0
AnchorPoint: "Kachka" 111 448 basechar 0
AnchorPoint: "Udarka" 109 449 basechar 0
AnchorPoint: "Zevok" 111 449 basechar 0
LayerCount: 3
Fore
SplineSet
315 120 m 1
 298 21 l 1
 218 146 l 1
 235 245 l 1
 315 120 l 1
23 100 m 1
 33 134 71 162 99 179 c 0
 117 190 137 200 159 208 c 1
 143 112 l 1
 102 95 65 73 36 44 c 1
 20 31 10 16 5 0 c 1
 23 100 l 1
83 290 m 1
 93 324 131 352 159 369 c 0
 177 380 197 390 219 398 c 1
 203 302 l 1
 162 285 125 263 96 234 c 1
 80 221 70 206 65 190 c 1
 83 290 l 1
268 415 m 1
 278 450 316 477 344 494 c 0
 362 505 382 515 404 523 c 1
 388 427 l 1
 346 410 314 387 280 360 c 1
 266 346 255 331 250 315 c 1
 268 415 l 1
EndSplineSet
Validated: 1
EndChar

StartChar: uniEE81
Encoding: 61057 61057 245
Width: 274
VWidth: 999
GlyphClass: 2
Flags: W
HStem: 0 98<37.9071 166.492>
AnchorPoint: "Zevok" 110 652 basechar 0
AnchorPoint: "Udarka" 113 652 basechar 0
AnchorPoint: "Kupnaya" 113 -108 basechar 0
AnchorPoint: "Kachka" 107 648 basechar 0
AnchorPoint: "Lomka" 114 650 basechar 0
AnchorPoint: "Tikhaya" 113 649 basechar 0
AnchorPoint: "Oblachko" 111 651 basechar 0
AnchorPoint: "Podchashie" 115 650 basechar 0
AnchorPoint: "Zaderzhka" 113 649.9 basechar 0
AnchorPoint: "Ochko" 114 649 basechar 0
AnchorPoint: "Podvertka" 117 650 basechar 0
AnchorPoint: "Borzaya" 115 650 basechar 0
AnchorPoint: "Otsechka" 280 0 basechar 0
AnchorPoint: "Shaidur" 21 426 basechar 0
LayerCount: 3
Fore
SplineSet
2 190 m 5
 2 128 58 98 108 98 c 4
 159 98 216 128 222 173 c 4
 231 238 155 302 117 359 c 4
 96 390 83 446 93 482 c 6
 114 558 l 5
 106 524 120 480 134 458 c 4
 221 326 283 302 238 111 c 4
 223 47 152 0 91 0 c 4
 43 0 -18 27 -18 97 c 5
 2 190 l 5
27 327 m 5
 137 254 l 5
 120 155 l 5
 10 228 l 5
 27 327 l 5
EndSplineSet
LCarets2: 1 0 
EndChar

StartChar: uniE106
Encoding: 57606 57606 246
Width: 894
VWidth: 999
Flags: W
HStem: 0 21G<153.061 157.5> 460 98<784.592 857.294>
AnchorPoint: "Zevok" 989 639 basechar 0
AnchorPoint: "Udarka" -54 342 basechar 0
AnchorPoint: "Kupnaya" 499 -115 basechar 0
AnchorPoint: "Kachka" 431 556 basechar 0
AnchorPoint: "Lomka" 854 52 basechar 0
AnchorPoint: "Tikhaya" 270 170.5 basechar 0
AnchorPoint: "Oblachko" 832 639 basechar 0
AnchorPoint: "Podchashie" 874 340 basechar 0
AnchorPoint: "Zaderzhka" 997 483.9 basechar 0
AnchorPoint: "Ochko" 429 450 basechar 0
AnchorPoint: "Podvertka" 870 341 basechar 0
AnchorPoint: "Borzaya" -55 146 basechar 0
AnchorPoint: "Otsechka" 920 349 basechar 0
AnchorPoint: "Shaidur" 99 368 basechar 0
LayerCount: 3
Fore
SplineSet
532.109 303 m 1
 327 181 l 2
 292.772 160.642 256 135 225 108 c 1
 194 79 165 46 150 0 c 1
 165 98 l 1
 177 138 214 174 242 201 c 1
 273 229 313 258 348 279 c 2
 733 508 l 1
 762 523 786 540 817 550 c 1
 829 556 838 558 844 558 c 0
 863 558 877 534 886 522 c 1
 891 513 891 513 894 508 c 1
 877 410 l 1
 869 424 855 443 842 454 c 0
 837 458 832 460 827 460 c 0
 821 460 812 456 799 450 c 1
 768 440 741 426 712 410 c 1
 551.484 314.524 l 1
 527.5 43 l 1
 504.5 36 l 1
 532.109 303 l 1
-27 -50 m 1
 -17 -16 21 12 49 29 c 0
 67 40 87 50 109 58 c 1
 93 -38 l 1
 52 -55 15 -77 -14 -106 c 1
 -30 -120 -40 -135 -45 -150 c 1
 -27 -50 l 1
33 140 m 1
 43 175 80 201 109 219 c 0
 127 230 147 240 169 248 c 1
 153 152 l 1
 112 135 75 113 46 84 c 1
 30 71 20 56 15 40 c 1
 33 140 l 1
EndSplineSet
Validated: 1
EndChar

